<svg version="1.2" baseProfile="tiny-ps" xmlns="http://www.w3.org/2000/svg" viewBox="0 0 200 240" width="200" height="240">
	<title>New Project</title>
	<style>
		tspan { white-space:pre }
		.shp0 { fill: #ffc289 } 
		.shp1 { mix-blend-mode: multiply;fill: #c4c5c7 } 
		.shp2 { fill: #c4c5c7 } 
		.shp3 { fill: #ececed } 
		.shp4 { fill: #ffffff } 
		.shp5 { fill: #9be4fa } 
		.shp6 { fill: #362017 } 
		.shp7 { fill: #123740 } 
		.shp8 { fill: #ff9027 } 
		.shp9 { fill: #b96617 } 
		.shp10 { fill: #dda574 } 
		.shp11 { fill: #44200e } 
		.shp12 { fill: #1c0800 } 
		.shp13 { fill: #1c4e5a } 
		.shp14 { fill: #c9f0fc } 
	</style>
	<g id="&lt;Group&gt;">
		<g id="&lt;Group&gt;">
			<g id="&lt;Group&gt;">
				<path id="&lt;Path&gt;" class="shp0" d="M109.45 166.17L84.52 166.17L84.52 141.75L109.45 141.75L109.45 166.17Z" />
				<path id="&lt;Path&gt;" class="shp1" d="M86.73 159.39C93.55 153.43 103.74 155.03 109.45 147.35L109.45 141.75L84.52 141.75L84.52 162.09C85.12 161.08 85.85 160.16 86.73 159.39Z" />
			</g>
			<g id="&lt;Group&gt;">
				<g id="&lt;Group&gt;">
					<path id="&lt;Path&gt;" class="shp0" d="M133.8 92.79C132.91 99.41 135.58 105.23 139.75 105.78C143.91 106.33 148 101.42 148.87 94.79C149.75 88.17 147.09 82.35 142.92 81.8C138.76 81.25 134.68 86.16 133.8 92.79Z" />
					<g id="&lt;Group&gt;" style="mix-blend-mode: multiply">
						<path id="&lt;Path&gt;" class="shp2" d="M138.91 90.82C138.93 90.57 138.99 90.24 139.07 89.84C139.19 89.23 139.46 88.37 139.91 87.44C140.37 86.55 141.13 85.53 142.18 85.45C142.43 85.43 142.71 85.46 142.98 85.53C143.03 85.55 143.3 85.63 143.39 85.68C143.48 85.76 143.58 85.78 143.7 85.88C144.15 86.2 144.52 86.71 144.79 87.3C145.07 87.87 145.27 88.52 145.39 89.16C145.5 89.8 145.59 90.48 145.54 91.05C145.45 91.72 145.45 92.4 145.35 92.97C145.25 93.56 145.16 94.12 145.07 94.63C144.94 95.15 144.84 95.63 144.75 96.06C144.67 96.49 144.52 96.85 144.45 97.15C144.33 97.56 144.25 97.88 144.19 98.12C144.32 97.91 144.49 97.62 144.7 97.25C144.84 96.97 145.05 96.64 145.22 96.23C145.41 95.82 145.61 95.36 145.82 94.85C146.01 94.33 146.17 93.74 146.35 93.12C146.54 92.5 146.61 91.87 146.72 91.19C146.84 90.43 146.81 89.69 146.68 88.93C146.55 88.19 146.34 87.43 146 86.71C145.66 86 145.16 85.3 144.45 84.8C144.28 84.68 144.05 84.57 143.83 84.47C143.6 84.38 143.54 84.37 143.26 84.3C142.85 84.22 142.43 84.2 142.01 84.27C141.17 84.4 140.48 84.93 140.06 85.47C139.62 86.02 139.38 86.61 139.2 87.15C138.84 88.24 138.81 89.18 138.81 89.82C138.82 90.25 138.85 90.58 138.91 90.82Z" />
					</g>
					<path id="&lt;Path&gt;" class="shp1" d="M138.91 90.82C138.62 90.35 139.38 90.04 141.19 89.9C143.23 90.17 143.72 91.4 142.68 93.62C142.34 94.33 142.06 95.07 141.91 95.84C141.72 96.95 142.3 98.43 141.63 99.42C140.77 100.7 138.34 100.04 138.1 98.59C137.92 97.49 139.2 95.57 139.79 94.77C140.98 93.14 140.69 91.83 138.91 90.82Z" />
					<g id="&lt;Group&gt;" style="mix-blend-mode: multiply">
						<path id="&lt;Path&gt;" class="shp2" d="M138.09 98.45C138.09 98.45 138 98.5 137.9 98.63C137.77 98.76 137.64 98.98 137.54 99.25C137.47 99.4 137.46 99.55 137.43 99.73C137.4 99.9 137.36 100.09 137.41 100.27C137.44 100.46 137.46 100.66 137.51 100.86C137.57 101.05 137.68 101.22 137.77 101.4C137.88 101.57 137.96 101.77 138.11 101.89C138.25 102.04 138.41 102.16 138.54 102.27C138.81 102.53 139.12 102.67 139.4 102.73C139.76 102.85 140.08 102.91 140.34 102.9C140.22 102.64 140.06 102.38 139.86 102.11C139.79 102.01 139.71 101.9 139.61 101.81C139.54 101.69 139.48 101.55 139.4 101.45C139.32 101.33 139.25 101.21 139.15 101.1C139.05 101 139.02 100.86 138.95 100.74C138.78 100.51 138.69 100.26 138.57 100.02C138.51 99.91 138.48 99.79 138.43 99.66C138.41 99.54 138.33 99.42 138.3 99.3C138.22 99 138.14 98.72 138.09 98.45Z" />
					</g>
				</g>
				<g id="&lt;Group&gt;">
					<path id="&lt;Path&gt;" class="shp0" d="M60.16 92.79C61.05 99.41 58.38 105.23 54.22 105.78C50.06 106.33 45.97 101.42 45.09 94.79C44.21 88.17 46.87 82.35 51.04 81.8C55.21 81.25 59.29 86.16 60.16 92.79Z" />
					<g id="&lt;Group&gt;" style="mix-blend-mode: multiply">
						<path id="&lt;Path&gt;" class="shp2" d="M55.05 90.82C55.04 90.57 54.98 90.24 54.9 89.84C54.79 89.23 54.51 88.37 54.06 87.44C53.6 86.55 52.83 85.53 51.79 85.45C51.54 85.43 51.26 85.46 50.99 85.53C50.94 85.55 50.67 85.63 50.58 85.68C50.48 85.76 50.39 85.78 50.27 85.88C49.82 86.2 49.45 86.71 49.18 87.3C48.9 87.87 48.71 88.52 48.58 89.16C48.46 89.8 48.37 90.48 48.44 91.05C48.51 91.72 48.5 92.4 48.62 92.97C48.71 93.56 48.82 94.12 48.9 94.63C49.03 95.15 49.14 95.63 49.22 96.06C49.31 96.49 49.44 96.85 49.52 97.15C49.63 97.56 49.72 97.88 49.78 98.12C49.65 97.91 49.48 97.62 49.27 97.25C49.14 96.97 48.92 96.64 48.74 96.23C48.57 95.82 48.36 95.36 48.15 94.85C47.95 94.33 47.8 93.74 47.62 93.12C47.43 92.5 47.37 91.87 47.24 91.19C47.13 90.43 47.16 89.69 47.29 88.93C47.42 88.19 47.62 87.43 47.96 86.71C48.3 86 48.81 85.3 49.53 84.8C49.69 84.68 49.92 84.57 50.13 84.47C50.37 84.38 50.43 84.37 50.71 84.3C51.12 84.22 51.55 84.2 51.96 84.27C52.8 84.4 53.48 84.93 53.91 85.47C54.35 86.02 54.6 86.61 54.78 87.15C55.13 88.24 55.15 89.18 55.15 89.82C55.15 90.25 55.11 90.58 55.05 90.82Z" />
					</g>
					<path id="&lt;Path&gt;" class="shp1" d="M55.05 90.82C55.35 90.35 54.59 90.04 52.79 89.9C50.75 90.17 50.25 91.4 51.29 93.62C51.63 94.33 51.91 95.07 52.05 95.84C52.26 96.95 51.67 98.43 52.34 99.42C53.2 100.7 55.64 100.04 55.87 98.59C56.05 97.49 54.77 95.57 54.18 94.77C52.98 93.14 53.27 91.83 55.05 90.82Z" />
					<g id="&lt;Group&gt;" style="mix-blend-mode: multiply">
						<path id="&lt;Path&gt;" class="shp2" d="M55.87 98.45C55.87 98.45 55.96 98.5 56.07 98.63C56.19 98.76 56.33 98.98 56.43 99.25C56.5 99.4 56.51 99.55 56.54 99.73C56.57 99.9 56.61 100.09 56.56 100.27C56.53 100.46 56.51 100.66 56.46 100.86C56.39 101.05 56.29 101.22 56.19 101.4C56.09 101.57 56 101.77 55.86 101.89C55.73 102.04 55.56 102.16 55.43 102.27C55.15 102.53 54.86 102.67 54.57 102.73C54.21 102.85 53.89 102.91 53.64 102.9C53.76 102.64 53.91 102.38 54.11 102.11C54.18 102.01 54.26 101.9 54.36 101.81C54.43 101.69 54.49 101.55 54.57 101.45C54.66 101.33 54.71 101.21 54.81 101.1C54.92 101 54.94 100.86 55.02 100.74C55.2 100.51 55.28 100.26 55.39 100.02C55.46 99.91 55.49 99.79 55.54 99.66C55.56 99.54 55.64 99.42 55.66 99.3C55.75 99 55.82 98.72 55.87 98.45Z" />
					</g>
				</g>
			</g>
			<g id="&lt;Group&gt;">
				<path id="&lt;Path&gt;" class="shp0" d="M97.12 17.82L97.12 17.8C97.07 17.81 97.01 17.81 96.97 17.81C96.93 17.81 96.87 17.81 96.83 17.8L96.83 17.82C86.86 18.38 43.4 24.61 53.8 91.57L56.35 119.6C57.83 123.79 61.18 127.87 66.37 131.82C75.33 139.36 83.57 144.79 91.08 148.13C92.72 148.61 94.65 149.25 96.86 150.05L96.86 150.16C96.91 150.14 96.95 150.12 97 150.1C97.05 150.12 97.1 150.14 97.15 150.16L97.15 150.05C99.36 149.25 101.28 148.6 102.92 148.13C110.44 144.78 118.67 139.35 127.62 131.82C132.82 127.86 135.55 123.78 135.79 119.58L140.17 91.56C150.55 24.58 107.08 18.37 97.12 17.82Z" />
			</g>
			<g id="&lt;Group&gt;" style="mix-blend-mode: multiply">
				<g id="&lt;Group&gt;">
					<path id="&lt;Path&gt;" class="shp3" d="M96.89 150.15L96.89 150.05C95.07 149.25 93.49 148.61 92.15 148.13C85.99 144.79 79.24 139.36 71.89 131.82C67.63 127.87 64.88 123.79 63.67 119.6L61.58 91.57C53.06 24.6 88.68 18.38 96.86 17.82L96.86 17.8C96.84 17.8 96.83 17.8 96.83 17.8L96.83 17.82C86.86 18.38 43.4 24.61 53.8 91.57L56.35 119.6C57.83 123.79 61.18 127.87 66.37 131.82C75.33 139.36 83.57 144.79 91.08 148.13C92.72 148.61 94.65 149.25 96.86 150.05L96.86 150.16C96.87 150.16 96.88 150.15 96.89 150.15Z" />
				</g>
				<g id="&lt;Group&gt;">
					<path id="&lt;Path&gt;" class="shp3" d="M97.12 17.82L97.12 17.8C97.11 17.8 97.1 17.8 97.09 17.8L97.09 17.82C105.26 18.37 140.89 24.59 132.39 91.56L128.81 119.58C128.6 123.78 126.37 127.86 122.1 131.82C114.76 139.35 108.01 144.78 101.85 148.13C100.51 148.6 98.93 149.25 97.12 150.05L97.12 150.15C97.13 150.15 97.14 150.16 97.15 150.16L97.15 150.05C99.36 149.25 101.28 148.6 102.92 148.13C110.44 144.78 118.67 139.35 127.62 131.82C132.82 127.86 135.55 123.78 135.79 119.58L140.17 91.56C150.55 24.58 107.08 18.37 97.12 17.82Z" />
				</g>
			</g>
			<path id="&lt;Path&gt;" class="shp0" d="M48.19 239.92L145.77 239.92L152.12 195.2C154.29 186.11 151.85 179.36 144.78 174.95L108.39 160.5L85.58 160.5L49.18 174.95C42.12 179.36 39.67 186.11 41.85 195.2L48.19 239.92Z" />
			<g id="&lt;Group&gt;">
				<path id="&lt;Path&gt;" class="shp4" d="M43.72 239.92L150.13 239.92L152.12 195.2C154.29 186.11 151.85 179.36 144.78 174.95L109.42 160.89L96.81 166.05L84.57 160.85L49.18 174.95C42.12 179.36 39.67 186.11 41.85 195.2L43.72 239.92Z" />
			</g>
			<g id="&lt;Group&gt;">
				<path id="&lt;Path&gt;" class="shp5" d="M15 239.92L46.39 239.92C48.92 224.29 54.08 187.72 49.22 175.04L27.21 184.37C22.32 187.36 20.15 192.93 20.69 201.08L15 239.92Z" />
			</g>
			<g id="&lt;Group&gt;">
				<path id="&lt;Path&gt;" class="shp5" d="M182.3 239.92L171.83 197.3C171.28 190.05 168.2 185.07 162.59 182.36L144.05 174.76C139.18 187.46 144.39 224.24 146.94 239.92L182.3 239.92Z" />
			</g>
			<g id="&lt;Group&gt;">
				<path id="&lt;Path&gt;" class="shp6" d="M136.5 25.8C145.67 38.61 148.19 57.35 144.05 82.03L140.94 90.77L139.82 98.6L137.65 98.6C140.48 81.42 139.14 70.31 133.64 65.27C133.2 50.68 129.76 42.87 123.31 41.82C111.79 40.02 102.95 39.47 96.77 40.19C90.56 40.11 81.55 39.83 71.13 43.08C65.04 44.81 61.47 52.21 60.42 65.27C54.92 70.31 53.58 81.42 56.4 98.6L54.23 98.6L53.11 90.77L50 82.85C47.18 57.63 49.91 38.93 58.2 26.75C63.72 17.88 75.46 13.18 93.4 12.64C109.16 14.27 114.19 10.06 108.48 0C117.45 1.63 121.94 6.25 121.94 13.86C127.92 13.86 130.36 10.33 129.28 3.26C139.18 10.21 141.59 17.73 136.5 25.8Z" />
				<path id="&lt;Path&gt;" class="shp6" d="M96.77 40.19C96.62 40.22 96.62 40.22 96.77 40.19Z" />
			</g>
			<g id="&lt;Group&gt;">
				<path id="&lt;Path&gt;" class="shp7" d="M15 239.92L46.39 239.92C48.92 224.29 54.08 187.72 49.22 175.04L27.21 184.37C22.32 187.36 20.15 192.93 20.69 201.08L15 239.92Z" />
			</g>
			<path id="&lt;Path&gt;" class="shp7" d="M183.52 239.92L180.64 201.81C180.1 193.16 177.02 187.48 171.4 184.77L144.05 174.76C139.18 187.46 144.39 224.24 146.94 239.92L183.52 239.92Z" />
			<g id="&lt;Group&gt;">
				<path id="&lt;Path&gt;" class="shp8" d="M104.78 239.92L101.77 182.37L92.09 182.37L89.14 239.92L104.78 239.92Z" />
				<path id="&lt;Path&gt;" class="shp9" d="M86.39 166.88L107.58 166.88L101.88 182.37L92.09 182.37L86.39 166.88Z" />
			</g>
			<path id="&lt;Path&gt;" class="shp6" d="M118.41 114.29C128.6 112.93 133.22 104.78 137.63 98.26L139.87 98.26L135.79 119.58C135.55 123.78 132.82 127.86 127.62 131.82C118.67 139.35 110.44 144.78 102.92 148.13C101.28 148.6 99.36 149.25 97.15 150.05L97.15 150.16C97.1 150.14 97.05 150.12 97 150.1C96.95 150.12 96.91 150.14 96.86 150.16L96.86 150.05C94.65 149.25 92.72 148.61 91.08 148.13C83.57 144.79 75.33 139.36 66.37 131.82C61.18 127.87 57.83 123.79 56.35 119.6L54.19 98.26L56.34 98.26C58.51 101.93 68.94 113.75 77.19 114.05C86 113.67 92.76 115.2 97.47 118.64C101.73 115.47 108.71 114.02 118.41 114.29Z" />
			<g id="&lt;Group&gt;">
				<g id="&lt;Group&gt;">
					<path id="&lt;Path&gt;" class="shp10" d="M90.47 107.97C90.62 107.99 90.81 108.02 91.06 108.05C91.42 108.13 91.96 108.1 92.57 108.18C93.19 108.23 93.89 108.38 94.67 108.37C95.45 108.36 96.28 108.35 97.11 108.35C97.93 108.43 98.76 108.45 99.54 108.33C100.31 108.26 101.04 108.2 101.66 108.14C102.91 108.07 103.76 108.08 103.77 108.08L103.91 108.78C103.89 108.86 103.87 108.97 103.83 109.12C103.77 109.32 103.69 109.71 103.56 110.04C103.3 110.75 102.89 111.69 102.28 112.49C101.69 113.38 100.91 114.13 100.01 114.69C99.57 114.97 99.09 115.23 98.6 115.35C98.1 115.48 97.59 115.49 97.08 115.51C96.57 115.47 96.06 115.45 95.56 115.29C95.07 115.19 94.59 114.97 94.14 114.74C93.23 114.26 92.3 113.41 91.72 112.51C91.09 111.69 90.72 110.74 90.56 109.98C90.46 109.63 90.41 109.24 90.36 109.02C90.34 108.87 90.31 108.75 90.3 108.66L90.47 107.97Z" />
				</g>
				<g id="&lt;Group&gt;">
					<g id="&lt;Group&gt;">
						<g id="&lt;Group&gt;">
							<g id="&lt;Group&gt;">
								<g id="&lt;Group&gt;">
									<g id="&lt;Group&gt;">
										<g id="&lt;Group&gt;">
											<path id="&lt;Path&gt;" class="shp11" d="M118.4 86.29C118.4 88.59 116.53 90.45 114.24 90.45C111.94 90.45 110.09 88.59 110.09 86.29C110.09 83.99 111.94 82.14 114.24 82.14C116.53 82.14 118.4 83.99 118.4 86.29Z" />
										</g>
										<g id="&lt;Group&gt;">
											<path id="&lt;Path&gt;" class="shp12" d="M116.15 86.29C116.15 87.35 115.3 88.21 114.24 88.21C113.19 88.21 112.32 87.35 112.32 86.29C112.32 85.24 113.19 84.38 114.24 84.38C115.3 84.38 116.15 85.24 116.15 86.29Z" />
										</g>
										<g id="&lt;Group&gt;">
											<path id="&lt;Path&gt;" class="shp4" d="M117.66 85.15C117.66 85.98 116.98 86.66 116.15 86.66C115.32 86.66 114.65 85.98 114.65 85.15C114.65 84.32 115.32 83.65 116.15 83.65C116.98 83.65 117.66 84.32 117.66 85.15Z" />
										</g>
										<g id="&lt;Group&gt;">
											<path id="&lt;Path&gt;" class="shp4" d="M114.62 84.13C114.62 84.62 114.21 85.03 113.71 85.03C113.21 85.03 112.8 84.62 112.8 84.13C112.8 83.63 113.21 83.22 113.71 83.22C114.21 83.22 114.62 83.63 114.62 84.13Z" />
										</g>
									</g>
									<path id="&lt;Path&gt;" class="shp6" d="M105.15 71.46C119.47 69.11 127.26 71.37 128.53 78.26C124.72 76.63 120.1 75.9 114.66 76.08L104.34 76.63C103.61 74.27 103.88 72.55 105.15 71.46Z" />
								</g>
							</g>
						</g>
					</g>
					<g id="&lt;Group&gt;">
						<g id="&lt;Group&gt;">
							<g id="&lt;Group&gt;">
								<g id="&lt;Group&gt;">
									<g id="&lt;Group&gt;">
										<g id="&lt;Group&gt;">
											<path id="&lt;Path&gt;" class="shp11" d="M75.57 86.29C75.57 88.59 77.43 90.45 79.72 90.45C82.01 90.45 83.88 88.59 83.88 86.29C83.88 83.99 82.01 82.14 79.72 82.14C77.43 82.14 75.57 83.99 75.57 86.29Z" />
										</g>
										<g id="&lt;Group&gt;">
											<path id="&lt;Path&gt;" class="shp12" d="M77.81 86.29C77.81 87.35 78.66 88.21 79.72 88.21C80.78 88.21 81.64 87.35 81.64 86.29C81.64 85.24 80.78 84.38 79.72 84.38C78.66 84.38 77.81 85.24 77.81 86.29Z" />
										</g>
										<g id="&lt;Group&gt;">
											<path id="&lt;Path&gt;" class="shp4" d="M76.3 85.15C76.3 85.98 76.97 86.66 77.81 86.66C78.64 86.66 79.31 85.98 79.31 85.15C79.31 84.32 78.64 83.65 77.81 83.65C76.97 83.65 76.3 84.32 76.3 85.15Z" />
										</g>
										<g id="&lt;Group&gt;">
											<path id="&lt;Path&gt;" class="shp4" d="M79.35 84.13C79.35 84.62 79.75 85.03 80.25 85.03C80.75 85.03 81.16 84.62 81.16 84.13C81.16 83.63 80.75 83.22 80.25 83.22C79.75 83.22 79.35 83.63 79.35 84.13Z" />
										</g>
									</g>
									<path id="&lt;Path&gt;" class="shp6" d="M88.81 71.46C74.49 69.11 66.7 71.37 65.43 78.26C69.24 76.63 73.86 75.9 79.3 76.08L89.63 76.63C90.35 74.27 90.08 72.55 88.81 71.46Z" />
								</g>
							</g>
						</g>
					</g>
				</g>
				<g id="&lt;Group&gt;">
					<g id="&lt;Group&gt;">
						<g id="&lt;Group&gt;">
							<path id="&lt;Path&gt;" class="shp4" d="M110.36 121.98C96.98 122.77 92.42 121.98 83.61 122.17C91.27 132.8 100.18 132.74 110.36 121.98Z" />
							<path id="&lt;Compound Path&gt;" fill-rule="evenodd" class="shp10" d="M110.5 122.12C109.8 123.27 108.96 124.3 108.09 125.35C107.16 126.33 106.17 127.29 105.02 128.1C102.79 129.76 100 130.93 97 131.14C95.51 131.24 93.99 131.1 92.55 130.71C91.11 130.32 89.77 129.69 88.52 128.95C87.29 128.18 86.17 127.28 85.15 126.31C84.64 125.83 84.15 125.32 83.68 124.79C83.21 124.25 82.79 123.75 82.34 123.09L82.26 122.98C81.78 122.29 81.95 121.34 82.64 120.86C82.93 120.66 83.26 120.57 83.58 120.59L90.33 120.91C92.55 121.04 94.79 121.24 96.99 121.32C99.2 121.43 101.41 121.65 103.65 121.65L110.35 121.78C110.46 121.79 110.55 121.88 110.54 121.99C110.54 122.02 110.53 122.06 110.51 122.09L110.5 122.12ZM109.59 122.25L103.69 122.83C101.48 123.1 99.23 123.14 96.98 123.29C94.72 123.4 92.51 123.4 90.28 123.47L87.33 123.59C87.37 123.62 87.41 123.65 87.45 123.68C88.39 124.41 89.39 125.04 90.43 125.56C91.45 126.1 92.53 126.49 93.6 126.76C94.68 127.05 95.78 127.21 96.89 127.23C99.11 127.31 101.4 126.71 103.63 125.72C104.75 125.23 105.84 124.62 106.95 123.98C107.85 123.46 108.7 122.85 109.59 122.25ZM87.33 123.59C86.9 123.24 86.49 122.88 86.09 122.5C85.66 122.1 85.21 121.63 84.89 121.25L83.65 123.74L87.33 123.59Z" />
						</g>
					</g>
					<path id="&lt;Path&gt;" class="shp10" d="M92.94 132.44C95.63 133.24 98.33 133.24 101.02 132.45C98.21 135.82 95.51 135.81 92.94 132.44Z" />
				</g>
			</g>
			<g id="&lt;Group&gt;">
				<g id="&lt;Group&gt;">
					<path id="&lt;Path&gt;" class="shp7" d="M41.9 239.92L81.31 239.92L81.31 162.19L49.18 174.95C42.12 179.36 39.67 186.11 41.85 195.2L41.9 239.92Z" />
				</g>
				<g id="&lt;Group&gt;">
					<path id="&lt;Path&gt;" class="shp7" d="M152.06 239.92L152.12 195.2C154.29 186.11 151.85 179.36 144.78 174.95L111.49 161.73L111.49 239.92L152.06 239.92Z" />
				</g>
				<g id="&lt;Group&gt;">
					<path id="&lt;Path&gt;" class="shp13" d="M62.54 222.08L68.55 239.92L81.31 239.92L81.31 162.19L47.05 174.38L72.74 212.7L62.54 222.08Z" />
				</g>
				<g id="&lt;Group&gt;">
					<path id="&lt;Path&gt;" class="shp13" d="M124.1 239.92L130.26 221.61L120.07 212.24L145.75 173.92L111.49 161.73L111.49 239.92L124.1 239.92Z" />
				</g>
			</g>
			<g id="&lt;Group&gt;">
				<path id="&lt;Path&gt;" class="shp14" d="M97.01 166.05L109.45 156.54L124.12 166.73L109.55 185.28L97.01 166.05Z" />
				<path id="&lt;Path&gt;" class="shp14" d="M96.81 166.05L84.37 156.54L69.7 166.73L84.28 185.28L96.81 166.05Z" />
			</g>
		</g>
	</g>
</svg>