<svg version="1.2" baseProfile="tiny-ps" xmlns="http://www.w3.org/2000/svg" viewBox="0 0 1200 600" width="1200" height="600">
	<title>5283-ai</title>
	<style>
		tspan { white-space:pre }
		.shp0 { fill: #ebf2f9 } 
		.shp1 { fill: #f8fbff } 
		.shp2 { fill: #c9e0f2 } 
		.shp3 { fill: #a8d29f } 
		.shp4 { fill: #ffb27d } 
		.shp5 { fill: #233862 } 
		.shp6 { fill: #2b478b } 
		.shp7 { fill: #e8945b } 
		.shp8 { fill: #ee9849 } 
		.shp9 { fill: #e58638 } 
		.shp10 { fill: #c65447 } 
		.shp11 { fill: #ba4c43 } 
		.shp12 { fill: #f1a34f } 
		.shp13 { fill: #ce8032 } 
		.shp14 { fill: #e89746 } 
		.shp15 { fill: #82b378 } 
		.shp16 { fill: #2e3552 } 
	</style>
	<g id="&lt;Layer&gt;">
		<g id="&lt;Group&gt;">
			<path id="&lt;Path&gt;" class="shp0" d="M1071.69 545.61L838.18 545.54L639.89 545.49L612.58 545.48L150.11 545.34C133.85 505.15 127.9 463.32 132.26 419.86C133.07 411.7 134.37 403.47 136.26 395.28C136.27 395.25 136.28 395.23 136.28 395.2C137.44 390.17 138.83 385.15 140.46 380.17C147.38 359.08 158.74 338.66 176.43 320.8C283.72 212.52 422.37 303.03 474.4 300.39C526.42 297.75 529.35 193.86 684.79 181.45C771.01 174.57 863.57 190.67 893.46 262.98C905.24 291.47 907.29 328.69 895.38 376.67C888.46 404.57 894.4 421.64 907.6 432.7C935.04 455.67 993.84 452.7 1033.94 467.01C1063.81 477.66 1083.3 497.91 1071.69 545.61Z" />
			<path id="&lt;Path&gt;" class="shp1" d="M907.6 432.7L233.56 520.27C227.45 498.12 224.3 474.06 225.88 448.43L893.46 262.98C905.24 291.47 907.29 328.69 895.38 376.67C888.46 404.57 894.4 421.64 907.6 432.7Z" />
			<path id="&lt;Path&gt;" class="shp1" d="M625.73 297.02L132.26 419.86C133.07 411.7 134.37 403.47 136.26 395.28C136.27 395.25 136.28 395.23 136.28 395.2C137.44 390.17 138.83 385.15 140.46 380.17L625.73 297.02Z" />
			<path id="&lt;Path&gt;" class="shp2" d="M612.58 545.49L150.11 545.34C129.53 494.46 124.92 444.44 136.26 395.28C136.27 395.25 136.28 395.23 136.28 395.2C164.86 393.87 211.81 397.24 261.23 425.34C339.28 469.73 467.43 437.25 504.51 462.15C541.6 487.05 550.12 512.83 577.7 517.26C601.76 521.12 610.7 540.58 612.58 545.48C612.58 545.48 612.58 545.48 612.58 545.49Z" />
			<path id="&lt;Path&gt;" class="shp1" d="M799.18 246.33C799.18 239.2 804.95 233.43 812.07 233.43C819.2 233.43 824.97 239.2 824.97 246.33C824.97 253.45 819.2 259.23 812.07 259.23C804.95 259.23 799.18 253.45 799.18 246.33Z" />
			<path id="&lt;Path&gt;" class="shp3" d="M753.86 508.65C766.67 504.64 783.14 498.1 774.18 493.2C764.59 487.95 752.35 499.09 745.72 506.47C745.37 506.41 745.03 506.36 744.68 506.31C742.99 506.07 741.27 505.95 739.53 505.95C752.17 485.68 766.28 458.7 754.26 455.27C741.32 451.57 732.05 484.38 727.47 507.36C714.82 510.1 701.21 516.24 687.04 520.33C682.03 502.11 670.49 474.94 646.33 475.54C620.95 476.17 652.63 505.66 673.98 523.34C669.21 524.11 664.39 524.48 659.53 524.26C638.84 523.29 622.02 529.82 609.06 543.85L775.71 543.85C781.97 533.93 772.49 515.63 753.86 508.65Z" />
			<g id="&lt;Group&gt;">
				<path id="&lt;Path&gt;" class="shp4" d="M471.43 99.61C463.69 91.17 458.62 86.8 456.23 86.52C452.64 86.1 437.85 93.18 437.01 95.97C436.16 98.77 453.27 93.18 454.22 95.97C455.17 98.77 456.23 100.67 461.08 100.88C464.32 101.02 467.35 102.01 470.16 103.84L471.43 99.61Z" />
				<path id="&lt;Path&gt;" class="shp5" d="M485.37 543.85C482.9 542.34 482.37 535.99 483.77 524.79C495.24 515.62 501.76 514.54 503.34 521.56C505.7 532.1 519.68 536.83 527.63 538.12C533.12 539.01 534.82 542.05 535.35 543.85L485.37 543.85Z" />
				<path id="&lt;Path&gt;" class="shp6" d="M482.29 533.17C477.88 531.5 453.34 472.6 454.36 453.47C454.48 451.2 454.04 432.59 453.34 428.73C452.79 425.73 452.06 422.23 451.19 418.35C449.85 412.44 448.17 405.63 446.31 398.33C441.09 377.82 434.45 353.44 429.86 334.03C438.09 315.58 448.63 299.43 458.3 293.92C465.2 294.76 471.85 296.03 476.78 297.1C480.71 299.4 483.64 301.38 485.82 303.06C486.58 306.89 487.7 313.27 488.6 321.48C489.19 326.86 489.68 333.03 489.91 339.77C491.54 387.62 483.18 439.61 504.51 524.48C505.1 526.85 489.11 535.74 482.29 533.17Z" />
				<path id="&lt;Path&gt;" class="shp5" d="M488.6 321.48C485.05 339.27 476.5 377.29 446.31 398.33C441.09 377.82 434.45 353.44 429.86 334.03C438.09 315.58 448.63 299.43 458.3 293.92C465.2 294.76 471.85 296.03 476.78 297.1C480.71 299.4 483.64 301.38 485.82 303.06C486.58 306.89 487.7 313.27 488.6 321.48Z" />
				<path id="&lt;Path&gt;" class="shp4" d="M451.49 154.11L451.48 157.1C452.02 163.32 448.46 166.88 440.8 167.79C429.3 169.16 420.6 164.15 420.91 156.95C421.94 151.37 423.08 147.54 423.16 142.93C423.19 141.22 423.07 139.4 422.75 137.34L445.02 136.9L451.58 137.97L451.49 154.11Z" />
				<path id="&lt;Path&gt;" class="shp7" d="M451.58 137.97L451.49 154.11C449.13 155.21 446.46 155.88 443.46 155.88C433.23 155.88 426.61 148.38 423.16 142.93C423.19 141.22 423.07 139.4 422.75 137.34L445.02 136.9L451.58 137.97Z" />
				<path id="&lt;Path&gt;" class="shp4" d="M452.88 145.81C433.86 149.65 423.25 145.64 421.04 133.76C417.73 115.94 411.81 104.69 429.88 100.25C447.95 95.82 452.77 101.96 455.32 107.64C457.87 113.32 460.21 143.85 452.88 145.81Z" />
				<path id="&lt;Path&gt;" class="shp5" d="M432.34 543.85C431.3 538.16 429.96 533.67 428.32 530.38C426.67 527.09 420.61 526.49 410.14 528.59C408.05 530.38 406.77 535.47 406.33 543.85L432.34 543.85Z" />
				<path id="&lt;Path&gt;" class="shp6" d="M463.12 303.34C452.7 349.78 445.82 383.48 442.48 404.44C440.6 416.21 436.69 453.9 436.08 465.8C435.52 476.68 433.45 498.78 429.86 532.09C423.81 528.27 416.29 528.14 407.31 531.71C405.04 516.78 403.18 493.67 401.74 462.4C401.1 448.64 403.76 427.99 403.44 421.28C401.85 388.29 391.31 302.99 399.69 297.51C405.28 293.86 426.42 295.81 463.12 303.34Z" />
				<path id="&lt;Path&gt;" class="shp5" d="M460.86 94.4C455.56 93.99 449.78 92.43 443.53 89.71C435.92 86.4 426.31 90.05 423.19 91.69C423.28 91.19 423.48 90.5 423.95 89.81C423.02 90.47 422.48 91.27 422.35 92.19C422.2 92.3 422.14 92.37 422.17 92.4C421.12 92.2 420.25 92.26 419.57 92.57C420.04 92.5 420.37 92.62 420.54 92.92C420.56 92.97 420.6 93.01 420.65 93.05C408.77 98.79 407.68 117.56 411.5 121.9C414.56 125.39 417.93 131.05 421.61 138.89C422.95 137.04 423.34 134.58 422.79 131.52C421.95 126.92 425.92 126.92 430.94 124.83C435.95 122.74 431.77 116.89 436.16 113.33C440.55 109.78 456.65 111.87 456.44 109.15C462.41 106.97 460.86 95.01 460.86 94.4Z" />
				<path id="&lt;Path&gt;" class="shp8" d="M468.48 93.45C466.88 94.1 465.59 95.56 464.63 97.82C463.4 100.72 463.29 102.96 464.29 104.54C484.41 122.79 493.82 133.57 492.51 136.9C491.49 139.5 468.1 153.21 458.38 158.82C454.39 158.49 451.3 158.52 451.2 158.52L451.19 158.52C446.79 171.95 436.69 171.43 420.91 156.95C416.75 163 384.52 177.85 390.12 203.49C391.43 209.51 392.57 215.2 393.55 220.56C400.2 256.88 399.68 278.3 398.39 290.12C397.38 299.34 393.55 300.27 396.97 302.73C401.41 304.71 407.78 306.57 416.09 308.29C425.34 310.21 437.8 311.91 453.11 312.01C469.34 312.11 480.53 309.36 486.68 303.77C493.12 297.47 480.37 272.66 481.39 254.75C481.92 245.56 481.34 214.11 481.25 199.66C481.25 199.66 481.26 199.65 481.26 199.65C481.26 199.64 481.27 199.64 481.28 199.63C482.45 198.35 518.07 159.16 525.08 136.91C525.08 136.9 525.09 136.9 525.09 136.9C525.44 135.77 525.72 134.7 525.92 133.67C527.34 126.37 508.19 112.96 468.48 93.45Z" />
				<path id="&lt;Path&gt;" class="shp9" d="M398.39 290.12C399.68 278.3 400.2 256.88 393.55 220.56C394.01 219.11 394.46 217.72 394.91 216.4C396.92 210.41 405.49 210.71 407.07 216.83C411.99 235.83 416.42 268.14 398.39 290.12Z" />
				<path id="&lt;Path&gt;" class="shp4" d="M391.12 270.26C400.99 264.3 407.45 261.69 410.51 262.45C415.1 263.58 425.05 267.91 424.43 270.56C423.82 273.2 412.25 275.01 410.24 274.69C408.23 274.38 404.98 274.75 403.66 275.89C402.34 277.02 391.85 277.45 390.57 274.38C389.72 272.33 389.9 270.96 391.12 270.26Z" />
				<path id="&lt;Path&gt;" class="shp8" d="M420.91 156.95C408.81 157.83 399.47 160.19 392.9 164.04C386.52 167.79 349.54 226.7 349.54 235.37C349.54 241.15 362.49 254.29 388.37 274.8C393.17 276.39 395.66 273.37 395.83 265.72C382.92 246.63 376.8 235.98 377.48 233.77C377.91 232.38 387.64 224.05 406.67 208.79L420.91 156.95Z" />
				<path id="&lt;Path&gt;" class="shp9" d="M525.08 136.91C518.07 159.16 482.45 198.35 481.28 199.63C481.27 199.64 481.26 199.64 481.26 199.65C481.26 199.65 481.25 199.66 481.25 199.66C481.25 199.66 481.25 199.65 481.24 199.65C481.14 199.26 478.2 188.04 485.22 180.03C492.36 171.87 517 151.41 525.08 136.91Z" />
				<g id="&lt;Group&gt;">
					<path id="&lt;Path&gt;" class="shp9" d="M414.07 160.3C414.01 159.26 416.47 158.01 421.44 156.56C427.12 164.44 434.64 168.45 444.01 168.58C441.34 173.78 438.43 177.05 435.29 178.39C421.45 172.56 414.37 166.53 414.07 160.3Z" />
					<path id="&lt;Path&gt;" class="shp9" d="M444.01 168.31C448.97 165.37 451.46 162.3 451.48 159.11C454.68 158.71 456.98 159.29 458.38 160.84C459.56 166.31 459.36 170.63 457.8 173.8C450.66 172.71 446.06 170.88 444.01 168.31Z" />
					<path id="&lt;Path&gt;" class="shp10" d="M469.88 279.35C469.74 283.21 468.16 286.88 465.46 289.65L461.21 293.99C460.14 295.08 458.37 295.03 457.37 293.89L451.47 287.15C449.89 285.35 449.07 283 449.17 280.6C449.41 275.26 449.84 264.98 450.1 255.06C450.3 247.02 450.4 239.21 450.19 234.48C449.75 224.4 447.69 203.36 444.01 171.35L447.64 171.35C454.29 183.5 459.63 197.98 463.65 214.78C465.14 220.98 466.39 227.6 467.19 234.48C469.41 252.76 470.31 267.71 469.88 279.35Z" />
					<path id="&lt;Path&gt;" class="shp11" d="M438.96 167.6L449.05 165.18C449.93 165.26 450.35 165.84 450.33 166.94C450.29 168.58 447.49 173.38 446.24 173.77C445 174.15 436.57 170.92 438.96 167.6Z" />
					<path id="&lt;Path&gt;" class="shp8" d="M414.07 158.01C414.01 156.96 416.47 155.71 421.44 154.26C427.12 162.14 434.64 166.15 444.01 166.29C441.34 171.48 438.43 174.75 435.29 176.1C421.45 170.26 414.37 164.24 414.07 158.01Z" />
					<path id="&lt;Path&gt;" class="shp8" d="M444.01 166.29C448.97 163.35 451.46 160.28 451.48 157.1C454.68 156.69 456.98 157.27 458.38 158.82C459.56 164.29 459.36 168.61 457.8 171.78C450.66 170.69 446.06 168.86 444.01 166.29Z" />
					<path id="&lt;Path&gt;" class="shp11" d="M469.88 279.35C469.74 283.21 468.16 286.88 465.46 289.65L461.21 293.99C460.14 295.08 458.37 295.03 457.37 293.89L451.47 287.15C449.89 285.35 449.07 283 449.17 280.6C449.41 275.26 449.84 264.98 450.1 255.06C459.52 243.29 462.76 227.54 463.65 214.78C465.14 220.98 466.39 227.6 467.19 234.48C469.41 252.76 470.31 267.71 469.88 279.35Z" />
				</g>
			</g>
			<g id="&lt;Group&gt;">
				<path id="&lt;Path&gt;" class="shp5" d="M379.11 543.85L317.39 543.85C314.02 543.85 311.27 541.09 311.27 537.73L311.27 496.26C311.27 492.89 314.02 490.14 317.39 490.14L379.11 490.14C382.47 490.14 385.23 492.89 385.23 496.26L385.23 537.73C385.23 541.09 382.47 543.85 379.11 543.85Z" />
				<path id="&lt;Path&gt;" class="shp6" d="M379.62 496.26L379.62 537.73C379.62 541.09 376.86 543.85 373.49 543.85L311.78 543.85C308.41 543.85 305.66 541.09 305.66 537.73L305.66 496.26C305.66 492.89 308.41 490.14 311.78 490.14L373.49 490.14C376.86 490.14 379.62 492.89 379.62 496.26Z" />
				<g id="&lt;Group&gt;">
					<path id="&lt;Path&gt;" class="shp5" d="M329.15 490.14C333.1 485.47 338.24 483.64 341.53 483.64C349.58 483.64 354.07 489.9 354.24 490.14L352.28 490.27C352.14 490.07 348.95 486.06 342 486.06C339.14 486.06 334.95 486.07 331.51 490.14C331.28 490.4 329.1 490.2 329.15 490.14Z" />
				</g>
				<path id="&lt;Path&gt;" class="shp5" d="M379.62 497.96L379.62 510.01C379.62 513.38 376.86 516.13 373.49 516.13L311.78 516.13C308.41 516.13 305.66 513.38 305.66 510.01L305.66 497.96C305.66 494.59 308.41 491.84 311.78 491.84L373.49 491.84C376.86 491.84 379.62 494.59 379.62 497.96Z" />
				<path id="&lt;Path&gt;" class="shp6" d="M379.62 496.26L379.62 508.31C379.62 511.68 376.86 514.43 373.49 514.43L311.78 514.43C308.41 514.43 305.66 511.68 305.66 508.31L305.66 496.26C305.66 492.89 308.41 490.14 311.78 490.14L373.49 490.14C376.86 490.14 379.62 492.89 379.62 496.26Z" />
				<path id="&lt;Path&gt;" class="shp5" d="M339.66 509.69C339.66 508.66 340.5 507.82 341.53 507.82C342.56 507.82 343.4 508.66 343.4 509.69C343.4 510.72 342.56 511.56 341.53 511.56C340.5 511.56 339.66 510.72 339.66 509.69Z" />
			</g>
			<path id="&lt;Path&gt;" class="shp3" d="M1071.69 545.61L838.18 545.54L837.87 545.49C851.58 526.6 871.79 517.19 898.5 517.26C938.55 517.36 938.05 496.57 990.51 483.64C1006.04 479.8 1020.82 473.7 1033.94 467.01C1063.81 477.66 1083.3 497.91 1071.69 545.61Z" />
			<g id="&lt;Group&gt;">
				<path id="&lt;Path&gt;" class="shp12" d="M721.23 208.35L721.23 538.45C721.23 541.42 718.97 543.85 716.2 543.85L711.17 543.85C709.78 543.85 708.53 543.24 707.62 542.27C706.7 541.29 706.13 539.93 706.13 538.45L706.13 208.35C706.13 206.41 707.1 204.71 708.54 203.76C709.3 203.25 710.2 202.95 711.17 202.95L716.2 202.95C718.97 202.95 721.23 205.38 721.23 208.35Z" />
				<path id="&lt;Path&gt;" class="shp9" d="M710.02 207.58L710.02 537.67C710.02 539.61 709.06 541.32 707.62 542.27C706.7 541.29 706.13 539.93 706.13 538.45L706.13 208.35C706.13 206.41 707.1 204.71 708.54 203.76C709.45 204.73 710.02 206.09 710.02 207.58Z" />
				<path id="&lt;Path&gt;" class="shp12" d="M652.37 337.17L624.51 355.95L649.77 378.1L712.29 374.16L712.29 348.9L652.37 337.17Z" />
				<path id="&lt;Path&gt;" class="shp13" d="M708.12 352.35C707.83 353.12 707.92 354.19 708.32 354.74C708.72 355.3 709.27 355.12 709.56 354.35C709.84 353.58 709.75 352.51 709.35 351.96C708.96 351.4 708.4 351.58 708.12 352.35Z" />
				<path id="&lt;Path&gt;" class="shp13" d="M708.12 367.28C707.83 368.05 707.92 369.13 708.32 369.68C708.72 370.23 709.27 370.06 709.56 369.29C709.84 368.52 709.75 367.44 709.35 366.89C708.96 366.34 708.4 366.51 708.12 367.28Z" />
				<g id="&lt;Group&gt;">
					<path id="&lt;Path&gt;" class="shp12" d="M813.42 286.15L856.95 304.89L815.09 327.12L714.91 323.64L714.91 292.37L813.42 286.15Z" />
					<path id="&lt;Path&gt;" class="shp14" d="M813.42 286.15L819.74 286.15L863.28 304.89L856.95 304.89L813.42 286.15Z" />
					<path id="&lt;Path&gt;" class="shp13" d="M815.09 327.12L818.46 327.12L863.28 304.89L856.95 304.89L815.09 327.12Z" />
					<path id="&lt;Path&gt;" class="shp13" d="M721.46 297.07C721.83 298.05 721.71 299.43 721.2 300.14C720.69 300.85 719.99 300.62 719.62 299.63C719.25 298.65 719.37 297.27 719.88 296.56C720.39 295.85 721.1 296.08 721.46 297.07Z" />
					<path id="&lt;Path&gt;" class="shp13" d="M721.46 316.23C721.83 317.21 721.71 318.59 721.2 319.3C720.69 320.01 719.99 319.78 719.62 318.79C719.25 317.81 719.37 316.43 719.88 315.72C720.39 315.01 721.1 315.24 721.46 316.23Z" />
				</g>
				<g id="&lt;Group&gt;">
					<path id="&lt;Path&gt;" class="shp12" d="M616.4 231.92L572.87 250.67L614.73 272.9L714.91 269.42L714.91 238.15L616.4 231.92Z" />
					<path id="&lt;Path&gt;" class="shp14" d="M616.4 231.92L610.08 231.92L566.54 250.67L572.87 250.67L616.4 231.92Z" />
					<path id="&lt;Path&gt;" class="shp13" d="M614.73 272.9L611.36 272.9L566.54 250.67L572.87 250.67L614.73 272.9Z" />
					<path id="&lt;Path&gt;" class="shp13" d="M708.35 242.84C707.99 243.83 708.1 245.2 708.61 245.91C709.12 246.62 709.83 246.4 710.2 245.41C710.56 244.42 710.45 243.05 709.94 242.34C709.43 241.63 708.72 241.85 708.35 242.84Z" />
					<path id="&lt;Path&gt;" class="shp13" d="M708.35 262C707.99 262.99 708.1 264.36 708.61 265.07C709.12 265.78 709.83 265.56 710.2 264.57C710.56 263.58 710.45 262.21 709.94 261.5C709.43 260.79 708.72 261.01 708.35 262Z" />
				</g>
				<path id="&lt;Path&gt;" class="shp14" d="M652.37 337.17L648.76 337.17L619.17 356.12L624.51 356.12L652.37 337.17Z" />
				<path id="&lt;Path&gt;" class="shp13" d="M649.77 378.1L644.91 378.1L619.17 356.12L624.51 356.12L649.77 378.1Z" />
				<path id="&lt;Path&gt;" class="shp12" d="M732.44 506.59L732.44 543.85L694.92 543.85L694.92 506.45C694.92 499.51 700.19 493.8 706.94 493.11C707.4 493.06 707.87 493.03 708.33 493.03L718.88 493.03C726.38 493.03 732.44 499.11 732.44 506.59Z" />
				<path id="&lt;Path&gt;" class="shp9" d="M719.09 506.59L719.09 543.85L694.92 543.85L694.92 506.45C694.92 499.51 700.19 493.8 706.94 493.11C713.77 493.81 719.09 499.58 719.09 506.59Z" />
				<g id="&lt;Group&gt;">
					<g id="&lt;Group&gt;">
						<path id="&lt;Path&gt;" class="shp9" d="M715.43 192.48L715.43 191.18L712.11 191.18L712.11 191.2C711.21 191.29 710.43 191.65 709.77 192.29C709 193.04 708.62 193.95 708.62 195.04C708.62 196.1 709.01 197 709.79 197.76C710.57 198.53 711.49 198.91 712.54 198.91L715.43 198.91L715.43 197.61C716.04 196.9 716.35 196.04 716.35 195.04C716.35 194.04 716.04 193.19 715.43 192.48Z" />
						<path id="&lt;Path&gt;" class="shp9" d="M721.79 160.81C719.43 158.82 716.5 157.82 712.98 157.82C710.73 157.82 708.59 158.34 706.56 159.37C704.52 160.4 702.95 161.86 701.82 163.75C701.13 164.91 700.79 166.07 700.79 167.23C700.79 168.14 701.07 168.89 701.63 169.49C702.19 170.09 702.91 170.39 703.78 170.39L706.66 170.39C706.64 169.67 706.63 169.06 706.63 168.57L708.62 165.87C709.68 164.82 711.07 164.29 712.81 164.29C714.3 164.29 715.54 164.7 716.54 165.52C717.54 166.34 718.04 167.49 718.04 168.97C718.04 170.68 717.51 172 716.46 172.95C715.7 173.64 714.39 174.27 712.54 174.85C711.16 175.29 710.25 175.73 709.79 176.19C709.34 176.64 709.11 177.32 709.11 178.23L709.11 183.67C709.11 184.76 709.4 185.66 709.98 186.39C710.56 187.12 711.38 187.48 712.43 187.48L715.32 187.48L715.32 185.83C715.45 185.57 715.56 185.29 715.64 184.97C715.79 184.4 715.86 182.91 715.86 180.51C718.84 179.93 721.19 178.65 722.91 176.68C724.63 174.7 725.49 172.2 725.49 169.19C725.49 165.75 724.26 162.95 721.79 160.81Z" />
					</g>
					<g id="&lt;Group&gt;">
						<path id="&lt;Compound Path&gt;" class="shp12" d="M728.38 169.19C728.38 172.2 727.52 174.7 725.79 176.68C724.07 178.65 721.72 179.93 718.75 180.51C718.75 182.91 718.67 184.4 718.53 184.97C718.09 186.64 717.02 187.48 715.32 187.48C714.27 187.48 713.45 187.12 712.87 186.39C712.29 185.66 712 184.76 712 183.67L712 178.23C712 177.32 712.22 176.64 712.68 176.19C713.13 175.73 714.05 175.29 715.43 174.85C717.28 174.27 718.58 173.64 719.34 172.95C720.4 172 720.92 170.68 720.92 168.97C720.92 167.49 720.42 166.34 719.43 165.52C718.43 164.7 717.19 164.29 715.7 164.29C713.96 164.29 712.56 164.82 711.51 165.87L709.33 168.81C708.57 169.86 707.68 170.39 706.66 170.39C705.79 170.39 705.08 170.09 704.51 169.49C703.95 168.89 703.67 168.14 703.67 167.23C703.67 166.07 704.02 164.91 704.71 163.75C705.83 161.86 707.41 160.4 709.44 159.37C711.47 158.34 713.61 157.82 715.86 157.82C719.38 157.82 722.32 158.82 724.68 160.81C727.14 162.95 728.38 165.75 728.38 169.19ZM719.24 195.04C719.24 196.13 718.87 197.05 718.15 197.79C717.42 198.53 716.51 198.91 715.43 198.91C714.37 198.91 713.46 198.53 712.68 197.76C711.9 197 711.51 196.1 711.51 195.04C711.51 193.95 711.89 193.04 712.65 192.29C713.41 191.55 714.34 191.18 715.43 191.18C716.51 191.18 717.42 191.55 718.15 192.29C718.87 193.04 719.24 193.95 719.24 195.04Z" />
					</g>
				</g>
			</g>
			<path id="&lt;Path&gt;" class="shp15" d="M94.8 544.08L270.36 545.22C259.53 523.47 240.7 514.92 213.84 519.57C188.42 523.98 180 517.33 169.53 510.81C188.9 503.48 217.6 491.37 204.24 488.44C191.49 485.65 174.12 498.06 163.42 507.29C161.18 506.14 158.75 505.07 155.98 504.15C178.88 482.76 221.97 440.12 202.94 438.91C184.26 437.72 160.63 479.9 149.38 502.41C148.09 502.16 146.73 501.93 145.3 501.74C139.47 500.97 134.04 502.03 129.06 504.23C126.58 494.89 121.99 484.21 115.9 486.38C109.75 488.58 116.7 499.41 123.08 507.54C111.29 515.37 101.87 527.55 94.8 544.08Z" />
			<path id="&lt;Path&gt;" class="shp16" d="M1120.88 546.6L84.86 546.6C84.21 546.6 83.69 546.07 83.69 545.42L83.69 545.02C83.69 544.38 84.21 543.85 84.86 543.85L1120.88 543.85C1121.52 543.85 1122.05 544.38 1122.05 545.02L1122.05 545.42C1122.05 546.07 1121.52 546.6 1120.88 546.6Z" />
		</g>
	</g>
</svg>