<svg version="1.2" baseProfile="tiny-ps" xmlns="http://www.w3.org/2000/svg" viewBox="0 0 440 440" width="440" height="440">
	<title>New Project</title>
	<style>
		tspan { white-space:pre }
		.shp0 { opacity: 0.302;fill: #ffafa4 } 
		.shp1 { fill: #ffafa4 } 
		.shp2 { opacity: 0.502;fill: #ff696a } 
		.shp3 { fill: #ea8d83 } 
		.shp4 { fill: #ff696a } 
		.shp5 { fill: #ef525a } 
		.shp6 { fill: #ff8973 } 
		.shp7 { fill: #01334c } 
		.shp8 { fill: #00d7cf } 
		.shp9 { fill: #04bfb1 } 
		.shp10 { fill: #002838 } 
	</style>
	<g id="&lt;Group&gt;">
		<g id="&lt;Group&gt;">
			<path id="&lt;Path&gt;" class="shp0" d="M56.59 439.47L411.11 439.47C461.63 389.86 431.06 299.8 428.64 179.04C424.97 -4.17 357.7 16.77 168.11 1.06C-21.48 -14.64 -1.91 143.71 2.98 326.93C4.41 380.45 26.32 415.97 56.59 439.47Z" />
			<g id="&lt;Group&gt;">
				<g id="&lt;Group&gt;">
					<g id="&lt;Group&gt;">
						<path id="&lt;Path&gt;" class="shp1" d="M348.96 144.89C326.02 143.84 303.08 142.79 280.14 141.74C268.78 141.22 257.43 140.69 246.07 140.17C242.92 140.03 244.06 141.18 244.06 139.03C244.06 133.34 244.06 127.66 244.06 121.97C244.06 106.34 244.06 90.71 244.06 75.08C244.06 72.86 244.06 70.65 244.06 68.43C244.06 65.7 244.56 66.79 242.85 66.89C245.49 66.74 248.13 66.59 250.77 66.44C278.49 64.88 306.21 63.32 333.94 61.76C337.46 61.56 340.98 61.36 344.5 61.16C345.41 61.11 346.32 61.06 347.23 61.01C348.63 60.93 346.92 60.51 346.92 60.5C346.97 68.42 347.01 76.34 347.06 84.27C347.18 104.79 347.3 125.31 347.42 145.83C347.43 147.04 349.71 146.62 349.7 145.61C349.53 117.09 349.37 88.56 349.2 60.03C349.19 59.43 348.65 59.28 348.17 59.31C313.12 61.28 278.08 63.26 243.03 65.23C242.62 65.25 241.78 65.6 241.78 66.17C241.78 91.11 241.78 116.04 241.78 140.98C241.78 141.43 242.11 141.69 242.51 141.7C277.73 143.32 312.94 144.93 348.16 146.55C349.19 146.6 350.5 144.96 348.96 144.89Z" />
					</g>
				</g>
				<g id="&lt;Group&gt;">
					<g id="&lt;Group&gt;">
						<path id="&lt;Path&gt;" class="shp1" d="M343.47 138.49C319.8 137.4 296.13 136.3 272.46 135.2C266.72 134.94 260.99 134.67 255.25 134.41C253.48 134.33 251.72 134.24 249.96 134.16C247.98 134.07 248.27 133.73 248.27 134.61C248.29 122.1 248.32 109.59 248.34 97.08C248.36 90.31 248.37 83.53 248.39 76.76C248.39 75.19 248.39 73.62 248.39 72.06C248.39 72.47 246.47 72.6 248.97 72.45C260.06 71.8 271.15 71.14 282.24 70.49C297.16 69.61 312.08 68.74 327 67.86C331.51 67.59 336.01 67.33 340.51 67.06C344.12 66.85 342.57 65.61 342.55 68.75C342.4 92.27 342.24 115.8 342.09 139.33C342.08 140.42 344.13 140.05 344.13 139.14C344.29 114.77 344.45 90.41 344.61 66.05C344.62 65.51 344.11 65.37 343.69 65.4C311.62 67.29 279.55 69.17 247.47 71.06C247.1 71.08 246.35 71.39 246.35 71.9C246.31 92.9 246.26 113.9 246.22 134.89C246.22 135.29 246.52 135.52 246.88 135.54C278.84 137.02 310.79 138.5 342.75 139.98C343.67 140.02 344.85 138.55 343.47 138.49Z" />
					</g>
				</g>
				<path id="&lt;Path&gt;" class="shp2" d="M336.92 131.63L256.97 128.51L256.97 80.23L336.54 76.41L336.92 131.63Z" />
			</g>
			<g id="&lt;Group&gt;">
				<g id="&lt;Group&gt;">
					<g id="&lt;Group&gt;">
						<path id="&lt;Path&gt;" class="shp1" d="M312.77 175.63C336.76 176.34 360.76 177.06 384.75 177.77C388.33 177.87 391.91 177.98 395.48 178.09C396.06 178.1 395.36 177.04 395.36 178.61C395.36 180.84 395.36 183.08 395.36 185.31C395.36 200.88 395.36 216.46 395.36 232.04C395.36 237.84 395.36 243.64 395.36 249.44C395.36 253.54 397.59 251.99 394.08 251.93C381.69 251.72 369.29 251.51 356.9 251.29C343.78 251.07 330.66 250.84 317.54 250.62C316.3 250.6 315.05 250.57 313.81 250.55C313.25 250.54 313.95 251.61 313.95 250.06C313.96 244.82 313.97 239.58 313.99 234.33C314.03 214.5 314.07 194.66 314.11 174.82C314.11 173.77 312.13 174.13 312.13 175.01C312.08 200.46 312.02 225.91 311.97 251.36C311.97 251.74 312.26 251.98 312.61 251.98C340.41 252.46 368.2 252.94 396 253.42C396.41 253.42 397.34 253.23 397.34 252.6C397.34 227.5 397.34 202.39 397.34 177.29C397.34 176.91 397.05 176.67 396.7 176.66C368.96 175.84 341.21 175.02 313.47 174.19C312.58 174.17 311.44 175.59 312.77 175.63Z" />
					</g>
				</g>
				<g id="&lt;Group&gt;">
					<g id="&lt;Group&gt;">
						<path id="&lt;Path&gt;" class="shp1" d="M317.15 181.21C340.4 181.89 363.66 182.57 386.91 183.25C390.42 183.36 390.16 182.23 390.16 184.81C390.16 191.09 390.16 197.37 390.16 203.65C390.16 217.99 390.16 232.33 390.16 246.67C390.16 249 390.02 247.92 391.08 247.94C389.89 247.92 388.71 247.9 387.52 247.88C381.46 247.78 375.4 247.68 369.35 247.57C354.83 247.33 340.31 247.08 325.79 246.83C323.84 246.8 318.19 246.21 318.19 247.16C318.2 242.78 318.21 238.39 318.22 234.01C318.25 218.57 318.28 203.14 318.32 187.7C318.32 185.3 318.33 182.89 318.33 180.49C318.33 179.57 316.59 179.89 316.59 180.66C316.54 202.91 316.5 225.16 316.45 247.41C316.45 247.74 316.7 247.95 317.01 247.96C341.58 248.38 366.15 248.79 390.72 249.21C391.08 249.22 391.9 249.05 391.9 248.5C391.9 226.55 391.9 204.6 391.9 182.65C391.9 182.32 391.65 182.11 391.34 182.1C366.81 181.38 342.29 180.66 317.77 179.94C316.98 179.92 315.98 181.17 317.15 181.21Z" />
					</g>
				</g>
				<path id="&lt;Path&gt;" class="shp2" d="M325.75 191.21L383.79 192.47L382.34 239.53L325.47 238.48L325.75 191.21Z" />
			</g>
		</g>
		<g id="&lt;Group&gt;">
			<g id="&lt;Group&gt;">
				<g id="&lt;Group&gt;">
					<g id="&lt;Group&gt;">
						<g id="&lt;Group&gt;">
							<path id="&lt;Path&gt;" class="shp1" d="M67.76 275.96C63.57 257.48 72.73 244.03 95.24 235.63C129.02 223.03 126.66 228.91 116.45 150.76L167.5 145.72C168.55 192.78 174.04 217.7 183.99 220.5C198.91 224.71 239.49 205.38 260.7 251.6C274.83 282.41 279.46 336.56 274.57 414.05L118.81 437.3C85.3 363.91 68.28 310.14 67.76 275.96Z" />
							<path id="&lt;Path&gt;" class="shp3" d="M179.93 218.71C180.24 218.63 180.55 218.57 180.86 218.5C172.85 210.25 168.4 185.99 167.5 145.72L116.45 150.76C119.51 174.17 121.86 190.04 122.75 201.12C132.85 208 153.88 219.57 179.93 218.71Z" />
							<path id="&lt;Path&gt;" class="shp3" d="M261.49 283.76C245.64 304.15 229.12 324.05 212.46 343.69C185.39 375.6 157.09 406.29 127.88 435.95L274.57 414.05C278.17 357.03 276.01 310.68 268.11 275.02C265.93 277.96 263.73 280.88 261.49 283.76Z" />
						</g>
						<path id="&lt;Path&gt;" class="shp1" d="M109.99 147.26C98 109.26 100.88 82.3 118.63 66.38C145.27 42.5 186.54 28.38 201.66 93.85C212 138.65 224.22 191.67 191.1 206.31C157.99 220.94 122.23 186.54 109.99 147.26Z" />
					</g>
					<g id="&lt;Group&gt;">
						<g id="&lt;Group&gt;">
							<path id="&lt;Path&gt;" class="shp4" d="M196.86 49.69C205.18 43.87 207.58 35.66 204.06 25.05C201.13 27.3 197.56 29.51 193.34 31.68C193.95 30.08 194.37 27.93 194.46 25.05C135.91 11.35 105.2 24.7 102.32 65.1C91.44 63.73 85.04 70.58 83.12 85.64C81.2 100.7 86.8 116.45 99.92 132.88C101.84 130.82 103.6 129.97 105.2 130.31C108.07 130.31 110.79 134.59 113.35 143.15C115.91 151.71 117.83 157.18 119.11 159.58L126.31 157.53L116.71 121.58C129.51 116.45 132.07 103.61 124.39 83.07C171.43 89.57 201.18 77.25 213.66 46.1L196.86 49.69Z" />
							<path id="&lt;Path&gt;" class="shp5" d="M160.68 82.32C155.81 81.55 151.02 80.44 146.43 78.73C129.71 72.5 115.61 57.36 111.94 39.48C106.66 45.75 103.1 54.08 102.32 65.1C91.44 63.73 85.04 70.57 83.12 85.64C81.2 100.7 86.8 116.45 99.92 132.88C101.84 130.82 103.6 129.97 105.2 130.31C108.07 130.31 110.79 134.59 113.35 143.15C115.91 151.71 117.83 157.18 119.11 159.58L126.31 157.53L116.71 121.58C129.51 116.45 132.07 103.61 124.39 83.07C135.64 84.62 147.73 84.37 160.68 82.32Z" />
						</g>
						<path id="&lt;Path&gt;" class="shp1" d="M119.11 159.25C114.11 138.57 109.28 128.41 104.61 128.77C97.62 129.31 92.62 135.72 96.12 147.49C99.62 159.25 120.61 178.51 119.11 159.25Z" />
					</g>
				</g>
				<g id="&lt;Group&gt;">
					<g id="&lt;Group&gt;">
						<path id="&lt;Path&gt;" class="shp6" d="M173.84 115.4C175.25 118.57 176.65 121.69 178.11 124.75C178.5 125.5 178.83 126.28 179.2 127.04L180.36 129.28C181.14 130.76 181.89 132.27 182.77 133.67C183.21 134.36 183.56 135.12 184.03 135.79L185.37 137.86C185.85 138.5 186.35 139.14 186.81 139.8C187.26 140.49 187.83 141.03 188.33 141.65L189.11 142.56L189.97 143.34C190.55 143.85 191.05 144.49 191.69 144.88C192.32 145.3 192.9 145.83 193.56 146.17C194.23 146.47 194.88 146.84 195.55 147.18L197.64 148.26L196.06 149.6C192.67 152.46 189.21 155.22 185.52 157.72C188.27 154.1 191.25 150.74 194.3 147.48L194.81 149.9C193.98 149.6 193.12 149.31 192.29 148.97C191.47 148.61 190.75 148.08 189.97 147.63C189.17 147.19 188.55 146.56 187.85 145.99L186.85 145.1L185.95 144.12C185.37 143.45 184.72 142.83 184.22 142.11C183.68 141.41 183.17 140.68 182.65 139.96L181.27 137.71C180.8 136.97 180.4 136.18 180 135.4C179.6 134.62 179.2 133.83 178.86 133.03C178.51 132.22 178.13 131.43 177.81 130.62C177.19 128.97 176.57 127.34 176.06 125.66C175.05 122.31 174.23 118.9 173.84 115.4Z" />
					</g>
					<g id="&lt;Group&gt;">
						<path id="&lt;Path&gt;" class="shp6" d="M162.87 175.06C163.17 175.18 163.58 175.34 164.09 175.52C164.85 175.81 165.94 176.19 167.22 176.6C167.86 176.82 168.56 177 169.28 177.22C170 177.46 170.8 177.57 171.57 177.81C173.17 178.1 174.85 178.5 176.55 178.56C177.4 178.68 178.25 178.68 179.08 178.68C179.92 178.72 180.74 178.64 181.55 178.61C182.36 178.6 183.12 178.42 183.87 178.36C184.62 178.29 185.31 178.13 185.97 178C186.61 177.85 187.25 177.81 187.78 177.65C188.3 177.49 188.78 177.38 189.18 177.29C189.71 177.16 190.14 177.08 190.46 177.02C190.23 177.25 189.91 177.56 189.48 177.93C189.16 178.21 188.77 178.56 188.29 178.92C187.83 179.31 187.24 179.61 186.61 179.97C185.97 180.33 185.28 180.75 184.49 180.99C183.7 181.25 182.88 181.66 181.97 181.77C181.08 181.91 180.15 182.21 179.19 182.19C178.23 182.23 177.25 182.28 176.28 182.17C175.31 182.1 174.35 181.91 173.42 181.7C172.47 181.55 171.6 181.13 170.73 180.87C169.05 180.16 167.55 179.37 166.38 178.47C164.78 177.34 163.61 176.21 162.87 175.06Z" />
					</g>
					<g id="&lt;Group&gt;">
						<path id="&lt;Path&gt;" class="shp7" d="M176.69 109.47C176.66 109.06 176.71 108.53 176.84 107.87C177 106.87 177.4 105.5 178.19 104.02C178.59 103.28 179.07 102.5 179.69 101.76C180.27 100.98 181.04 100.31 181.84 99.6C182.26 99.26 182.72 98.97 183.19 98.67C183.64 98.35 184.13 98.08 184.67 97.88C185.19 97.66 185.71 97.41 186.26 97.22L187.96 96.84C189.1 96.57 190.27 96.67 191.4 96.7C192.52 96.79 193.59 97.14 194.61 97.42C195.58 97.81 196.47 98.32 197.29 98.78C198.09 99.28 198.73 99.94 199.33 100.48C199.93 101.05 200.43 101.59 200.79 102.18C201.18 102.74 201.47 103.27 201.7 103.69C202.02 104.26 202.24 104.73 202.37 105.1C201.97 105.12 201.48 105.11 200.88 105.08C200.43 105.04 199.89 105.03 199.32 104.95C198.76 104.85 198.11 104.84 197.44 104.81C196.77 104.79 196.09 104.65 195.39 104.65C194.68 104.67 193.98 104.63 193.28 104.59C192.58 104.68 191.89 104.65 191.21 104.7C190.54 104.86 189.84 104.75 189.19 104.98L188.17 105.13C187.85 105.25 187.51 105.31 187.17 105.4C186.49 105.51 185.84 105.83 185.14 105.97C184.49 106.26 183.78 106.42 183.14 106.72C182.47 106.97 181.83 107.24 181.21 107.5C179.4 108.29 177.9 108.94 176.69 109.47Z" />
					</g>
					<g id="&lt;Group&gt;">
						<path id="&lt;Path&gt;" class="shp7" d="M164.99 113.69C164.57 113.64 164.01 113.56 163.34 113.45C162.36 113.28 160.96 113.05 159.28 112.77C156.05 112.22 152.03 111.52 148.59 111.83C147.73 111.9 146.9 112.05 146.1 112.24C145.7 112.33 145.32 112.49 144.92 112.58C144.55 112.74 144.16 112.86 143.79 113.03C142.3 113.69 140.89 114.63 139.63 115.61C139.05 116.14 138.4 116.57 137.91 117.06C137.43 117.55 136.9 117.94 136.54 118.32C136.04 118.81 135.61 119.19 135.26 119.47C135.23 119.03 135.23 118.42 135.27 117.65C135.29 117.07 135.4 116.38 135.57 115.59C135.69 114.79 136 113.93 136.33 112.97C136.74 112.05 137.22 111.04 137.92 110.07C138.59 109.09 139.46 108.13 140.48 107.29C141.51 106.45 142.7 105.71 144 105.21C145.29 104.67 146.66 104.41 148.02 104.26C149.37 104.18 150.72 104.2 151.98 104.45C153.25 104.64 154.44 105.02 155.55 105.46C157.75 106.35 159.59 107.56 161 108.79C162.41 110.03 163.43 111.24 164.07 112.16C164.5 112.77 164.8 113.28 164.99 113.69Z" />
					</g>
					<g id="&lt;Group&gt;">
						<path id="&lt;Path&gt;" class="shp6" d="M114.55 162.92C113.78 162.81 113 162.6 112.26 162.22C111.89 162.04 111.52 161.81 111.19 161.5C111.03 161.34 110.84 161.2 110.71 161C110.58 160.8 110.4 160.62 110.31 160.37C110.22 160.14 110.07 159.91 110.04 159.64C110.01 159.38 109.93 159.1 109.95 158.84C109.97 158.58 109.99 158.31 110.02 158.04L110.23 157.32C110.38 156.83 110.63 156.45 110.84 156.01L111.64 154.92L111.35 155.95C110.64 153.34 109.9 150.71 109.12 148.13C108.73 146.83 108.29 145.57 107.86 144.31C107.42 143.06 106.94 141.83 106.38 140.69C105.86 139.54 105.22 138.42 104.51 137.82C104.18 137.51 103.88 137.39 103.64 137.39C103.36 137.45 102.93 137.48 102.76 137.58C102.56 137.66 102.35 137.7 102.13 137.85C101.2 138.32 100.48 139.33 99.98 140.51C99.47 141.7 99.14 143.04 98.96 144.43C98.69 143.06 98.61 141.6 98.89 140.15C99 139.42 99.25 138.69 99.58 137.99C99.96 137.32 100.41 136.62 101.07 136.13C101.35 135.85 101.77 135.66 102.16 135.46C102.57 135.25 102.81 135.23 103.14 135.1C104.19 134.81 105.22 135.17 105.91 135.67C107.31 136.71 108.08 138.01 108.8 139.27C110.15 141.86 111.06 144.53 111.79 147.25C112.17 148.6 112.47 149.97 112.74 151.34C113.03 152.72 113.25 154.09 113.44 155.5L113.52 156.14L113.15 156.53L112.41 157.3C112.24 157.57 111.97 157.83 111.83 158.11L111.61 158.53L111.5 158.95C111.45 159.1 111.49 159.23 111.47 159.38C111.43 159.54 111.51 159.67 111.52 159.83C111.65 160.44 112.12 161.04 112.66 161.56C113.21 162.07 113.86 162.54 114.55 162.92Z" />
					</g>
					<g id="&lt;Group&gt;">
						<path id="&lt;Path&gt;" class="shp7" d="M184.62 120.3C184.76 120.58 184.95 120.95 185.19 121.42C185.56 122.12 186.09 123.1 186.79 124.17C187.5 125.21 188.4 126.37 189.51 127.13C190.06 127.52 190.65 127.81 191.28 127.95C191.9 128.11 192.56 128.13 193.24 128.04L193.5 128.02L193.51 128.02C193.26 128.08 193.44 128.04 193.39 128.05L193.41 128.04L193.45 128.03L193.53 128.01L193.68 127.97L194.3 127.81C194.79 127.72 194.88 127.55 195.19 127.46C195.45 127.36 195.71 127.11 195.98 126.96C196.21 126.73 196.45 126.53 196.67 126.28C197.06 125.76 197.45 125.2 197.7 124.56C197.98 123.94 198.17 123.29 198.34 122.67C198.64 121.43 198.8 120.31 198.89 119.51C198.96 118.98 199 118.56 199.02 118.24C199.16 118.52 199.31 118.93 199.46 119.45C199.69 120.24 199.97 121.41 199.98 122.88C199.99 123.61 199.96 124.43 199.74 125.29C199.58 126.15 199.23 127.06 198.7 127.93C198.15 128.79 197.42 129.56 196.46 130.12C196 130.35 195.37 130.72 195.01 130.77L194.4 130.94L193.97 131.06L193.59 131.1C192.58 131.22 191.51 131.17 190.53 130.82C190.03 130.67 189.55 130.47 189.13 130.18C188.68 129.93 188.3 129.61 187.95 129.28C187.23 128.63 186.71 127.85 186.28 127.13C185.85 126.39 185.56 125.65 185.32 124.97C184.86 123.6 184.71 122.42 184.65 121.59C184.61 121.04 184.6 120.61 184.62 120.3Z" />
					</g>
					<g id="&lt;Group&gt;">
						<path id="&lt;Path&gt;" class="shp7" d="M146.23 128.77C146.36 129.05 146.55 129.43 146.8 129.89C147.16 130.59 147.7 131.57 148.39 132.64C149.11 133.69 150 134.84 151.12 135.6C151.67 135.99 152.26 136.28 152.88 136.42C153.5 136.59 154.17 136.6 154.85 136.51L155.1 136.5L155.11 136.5C154.87 136.55 155.05 136.51 155 136.52L155.02 136.52L155.06 136.51L155.13 136.49L155.29 136.45L155.91 136.28C156.4 136.19 156.49 136.03 156.8 135.93C157.06 135.83 157.31 135.58 157.59 135.43C157.82 135.21 158.06 135 158.27 134.75C158.67 134.23 159.06 133.67 159.31 133.03C159.58 132.42 159.78 131.76 159.94 131.14C160.25 129.9 160.4 128.78 160.5 127.98C160.56 127.45 160.6 127.03 160.63 126.72C160.76 127 160.91 127.4 161.07 127.93C161.3 128.72 161.57 129.88 161.58 131.35C161.59 132.08 161.56 132.9 161.35 133.76C161.18 134.62 160.84 135.53 160.31 136.4C159.75 137.26 159.02 138.04 158.07 138.59C157.6 138.83 156.98 139.19 156.62 139.24L156 139.42L155.57 139.53L155.19 139.57C154.19 139.69 153.12 139.64 152.13 139.3C151.64 139.14 151.16 138.94 150.74 138.65C150.29 138.4 149.91 138.09 149.56 137.75C148.83 137.1 148.32 136.32 147.89 135.6C147.46 134.87 147.16 134.13 146.93 133.44C146.47 132.07 146.32 130.89 146.25 130.07C146.21 129.52 146.2 129.08 146.23 128.77Z" />
					</g>
				</g>
				<g id="&lt;Group&gt;">
					<g id="&lt;Group&gt;">
						<path id="&lt;Path&gt;" class="shp8" d="M114.36 438.7C81.2 361.39 64.27 309.86 63.57 284.09C62.87 258.32 75.26 240.95 100.74 231.99C108.77 258.5 128.67 269.71 160.43 265.6C192.2 261.49 204.59 245.62 197.61 217.98C222.04 213.5 241.59 220.22 256.25 238.15C262.88 246.26 273.46 269.47 277.17 295.58C277.66 299.04 270.63 301.73 256.08 303.64L269.64 397.1L281.9 439.26L114.36 438.7Z" />
						<path id="&lt;Path&gt;" class="shp9" d="M208 377.11C170.26 363.99 139.11 340.9 111.85 310.27C96.96 293.54 83.36 275.67 70.12 257.48C66.02 264.58 63.28 273.36 63.57 284.09C64.27 309.86 81.2 361.39 114.36 438.7L281.9 439.26C281.62 425.91 281.01 410.07 280.07 391.73C255.58 389.46 231.31 385.21 208 377.11Z" />
					</g>
					<g id="&lt;Group&gt;">
						<g id="&lt;Group&gt;">
							<path id="&lt;Path&gt;" class="shp1" d="M60.43 327.22C55.19 396.31 57.11 432.54 66.19 435.9C75.26 439.26 118.72 434.97 196.56 423.02C216.8 446.92 218.55 445.61 201.79 419.09C226.23 444.49 228.5 443.74 208.6 416.85C235.48 434.03 237.05 432.17 213.31 411.25C236.67 417.89 235.1 415.28 208.6 403.41C193.59 396.69 160.08 391.27 108.07 387.16L114.88 327.78L60.95 307.62L60.43 327.22Z" />
							<path id="&lt;Path&gt;" class="shp3" d="M68.33 346.14C77.3 349.23 88.15 350.39 97.6 350.19C102.65 350.08 107.61 349.45 112.51 348.44L114.88 327.78L60.95 307.62L60.43 327.22C60.13 331.11 59.82 336.04 59.49 342.01C62.32 343.51 65.17 345.05 68.33 346.14Z" />
						</g>
						<path id="&lt;Path&gt;" class="shp8" d="M119.07 338.43C103.71 340.29 81.02 336.56 51 327.22C51.35 268.21 67.93 236.47 100.74 231.99C128.32 301.08 134.43 336.56 119.07 338.43Z" />
					</g>
				</g>
			</g>
			<g id="&lt;Group&gt;">
				<path id="&lt;Path&gt;" class="shp10" d="M312.93 434.43C312.93 437.1 310.91 439.26 308.42 439.26L137.02 439.26C134.53 439.26 132.51 437.1 132.51 434.43C132.51 431.77 134.53 429.61 137.02 429.61L308.42 429.61C310.91 429.61 312.93 431.77 312.93 434.43Z" />
				<g id="&lt;Group&gt;">
					<path id="&lt;Path&gt;" class="shp7" d="M390.61 431.22C390.61 435.66 387.25 439.26 383.09 439.26L234.25 439.26C230.09 439.26 226.73 435.66 226.73 431.22L226.73 323.44C226.73 319 230.09 315.4 234.25 315.4L383.09 315.4C387.25 315.4 390.61 319 390.61 323.44L390.61 431.22Z" />
					<path id="&lt;Path&gt;" class="shp10" d="M237.7 431.22L237.7 323.44C237.7 319 241.07 315.4 245.22 315.4L234.25 315.4C230.09 315.4 226.73 319 226.73 323.44L226.73 431.22C226.73 435.66 230.09 439.26 234.25 439.26L245.22 439.26C241.07 439.26 237.7 435.66 237.7 431.22Z" />
				</g>
			</g>
		</g>
	</g>
</svg>