<svg version="1.2" baseProfile="tiny-ps" xmlns="http://www.w3.org/2000/svg" viewBox="0 0 440 440" width="440" height="440">
	<title>New Project</title>
	<style>
		tspan { white-space:pre }
		.shp0 { opacity: 0.302;fill: #ffafa4 } 
		.shp1 { fill: #ffafa4 } 
		.shp2 { fill: #ff8973 } 
		.shp3 { fill: #ea8d83 } 
		.shp4 { fill: #ffffff } 
		.shp5 { opacity: 0.102;fill: #002838 } 
		.shp6 { fill: #01334c } 
		.shp7 { fill: #002838 } 
	</style>
	<g id="&lt;Group&gt;">
		<g id="&lt;Group&gt;">
			<path id="&lt;Path&gt;" class="shp0" d="M56.72 435.85L394.67 436.06C450.53 382.59 440.22 269.78 436.9 145.37C433.67 24.54 356.35 -20.95 204.93 8.91C-46.29 16.52 2.56 110.15 6.16 291.4C7.8 373.89 22.8 414.55 56.72 435.85Z" />
			<g id="&lt;Group&gt;">
				<g id="&lt;Group&gt;">
					<g id="&lt;Group&gt;">
						<g id="&lt;Group&gt;">
							<path id="&lt;Path&gt;" class="shp1" d="M42.3 133.91C43.07 170.71 72.44 197.95 107.27 195.51C138.38 193.33 162.02 165.21 162.73 133.25C163.54 96.36 131.43 69.28 97.76 71.64C66.65 73.82 43.01 101.94 42.3 133.91C42.29 134.37 44.92 133.99 44.94 133.17C45.76 96.1 76.3 67.55 112.06 73.5C140.13 78.18 159.49 105.18 160.09 133.98C160.87 171.23 127.38 199.38 92.97 193.65C64.9 188.98 45.54 161.97 44.94 133.17C44.93 132.68 42.28 133.11 42.3 133.91Z" />
						</g>
					</g>
					<g id="&lt;Group&gt;">
						<path id="&lt;Path&gt;" class="shp1" d="M49.46 133.54C49.44 164.2 73.18 189.06 102.48 189.08C131.78 189.1 155.55 164.26 155.57 133.61C155.59 102.96 131.85 78.09 102.55 78.07C73.25 78.05 49.48 102.89 49.46 133.54Z" />
					</g>
				</g>
				<g id="&lt;Group&gt;">
					<g id="&lt;Group&gt;">
						<path id="&lt;Path&gt;" class="shp2" d="M100.64 103.02L101.09 111.81C101.22 114.74 101.38 117.66 101.47 120.59C101.7 126.45 101.87 132.31 102.17 138.17L100.37 136.35C101.3 136.25 102.23 136.18 103.17 136.12C104.1 136.06 105.03 135.97 105.96 135.96C107.83 135.88 109.7 135.93 111.57 135.98C113.44 136.05 115.31 136.16 117.19 136.32C118.13 136.43 119.06 136.49 120 136.65C120.94 136.78 121.88 136.89 122.82 137.09L122.83 137.47C121.91 137.74 120.98 137.92 120.06 138.14C119.13 138.36 118.2 138.5 117.27 138.68C115.42 138.99 113.56 139.25 111.7 139.47C109.83 139.66 107.97 139.86 106.11 139.93C105.18 139.99 104.24 139.98 103.31 139.99C102.37 140.01 101.44 140.01 100.5 139.98L98.61 139.93L98.7 138.17C99.01 132.31 99.19 126.45 99.42 120.59C99.52 117.66 99.68 114.73 99.82 111.81L100.28 103.02L100.64 103.02Z" />
					</g>
					<g id="&lt;Group&gt;">
						<g id="&lt;Group&gt;">
							<g id="&lt;Group&gt;">
								<g id="&lt;Group&gt;">
									<path id="&lt;Path&gt;" class="shp2" d="M98.79 84.34C98.79 87.76 98.79 91.19 98.79 94.62C98.79 95.44 101.61 94.91 101.61 93.83C101.61 90.4 101.61 86.98 101.61 83.55C101.61 82.73 98.79 83.26 98.79 84.34Z" />
								</g>
							</g>
							<g id="&lt;Group&gt;">
								<g id="&lt;Group&gt;">
									<path id="&lt;Path&gt;" class="shp2" d="M67.55 101.22C69.87 103.65 72.18 106.07 74.5 108.5C75.15 109.18 77.81 108.1 77.13 107.38C74.81 104.96 72.5 102.53 70.18 100.1C69.53 99.42 66.87 100.51 67.55 101.22Z" />
								</g>
							</g>
							<g id="&lt;Group&gt;">
								<g id="&lt;Group&gt;">
									<path id="&lt;Path&gt;" class="shp2" d="M55.19 136.87C58.47 136.87 61.75 136.88 65.02 136.88C66 136.88 68.05 135.32 66.15 135.32C62.87 135.32 59.6 135.32 56.32 135.31C55.34 135.31 53.29 136.87 55.19 136.87Z" />
								</g>
							</g>
						</g>
						<g id="&lt;Group&gt;">
							<g id="&lt;Group&gt;">
								<g id="&lt;Group&gt;">
									<path id="&lt;Path&gt;" class="shp2" d="M69.03 168.08C71.34 165.66 73.65 163.23 75.97 160.81C77.11 159.61 74.33 159.78 73.73 160.41C71.42 162.84 69.1 165.27 66.79 167.69C65.65 168.89 68.42 168.71 69.03 168.08Z" />
								</g>
							</g>
							<g id="&lt;Group&gt;">
								<g id="&lt;Group&gt;">
									<path id="&lt;Path&gt;" class="shp2" d="M102.79 178.79C102.79 175.36 102.79 171.94 102.78 168.51C102.78 167.69 99.96 168.22 99.96 169.3C99.96 172.72 99.97 176.15 99.97 179.58C99.97 180.4 102.79 179.87 102.79 178.79Z" />
								</g>
							</g>
							<g id="&lt;Group&gt;">
								<g id="&lt;Group&gt;">
									<path id="&lt;Path&gt;" class="shp2" d="M135.89 163.21C133.57 160.79 131.25 158.37 128.93 155.95C128.28 155.26 125.62 156.35 126.3 157.07C128.62 159.49 130.94 161.91 133.26 164.33C133.92 165.02 136.57 163.93 135.89 163.21Z" />
								</g>
							</g>
						</g>
						<g id="&lt;Group&gt;">
							<g id="&lt;Group&gt;">
								<g id="&lt;Group&gt;">
									<path id="&lt;Path&gt;" class="shp2" d="M150.87 134.08C147.6 134.08 144.32 134.08 141.04 134.08C140.06 134.08 138.01 135.63 139.92 135.63C143.19 135.64 146.47 135.64 149.75 135.64C150.73 135.64 152.78 134.08 150.87 134.08Z" />
								</g>
							</g>
							<g id="&lt;Group&gt;">
								<g id="&lt;Group&gt;">
									<path id="&lt;Path&gt;" class="shp2" d="M133.21 101.88C130.89 104.31 128.57 106.73 126.26 109.15C125.11 110.34 127.89 110.17 128.49 109.54C130.81 107.12 133.13 104.7 135.45 102.28C136.59 101.08 133.81 101.25 133.21 101.88Z" />
								</g>
							</g>
						</g>
					</g>
				</g>
			</g>
		</g>
		<g id="&lt;Group&gt;">
			<g id="&lt;Group&gt;">
				<g id="&lt;Group&gt;">
					<g id="&lt;Group&gt;">
						<g id="&lt;Group&gt;">
							<path id="&lt;Path&gt;" class="shp1" d="M352.47 274.9C356.72 256.61 347.46 243.31 324.68 234.98C290.53 222.49 292.91 228.31 303.28 151.01L251.64 145.99C250.55 192.54 244.97 217.2 234.91 219.96C219.81 224.11 178.77 204.96 157.28 250.67C142.96 281.14 138.25 334.71 143.15 411.38L300.72 434.47C334.67 361.9 351.92 308.7 352.47 274.9Z" />
							<path id="&lt;Path&gt;" class="shp3" d="M239.02 218.18C238.71 218.11 238.39 218.05 238.07 217.98C246.18 209.83 250.71 185.83 251.64 145.99L303.28 151.01C300.17 174.16 297.78 189.86 296.88 200.83C286.66 207.62 265.38 219.06 239.02 218.18Z" />
							<path id="&lt;Path&gt;" class="shp3" d="M156.46 282.49C172.49 302.67 189.18 322.37 206.03 341.81C233.4 373.4 262 403.77 291.55 433.13L143.15 411.38C139.54 354.96 141.75 309.12 149.77 273.84C151.97 276.75 154.19 279.64 156.46 282.49Z" />
						</g>
						<g id="&lt;Group&gt;">
							<path id="&lt;Path&gt;" class="shp4" d="M305.22 435.86C338.82 359.41 355.98 308.43 356.7 282.94C357.42 257.45 342.26 238.63 311.21 226.48C306.83 249.3 288.67 257.92 256.75 252.34C232 248.01 222.11 235.92 227.07 216.07C198.4 212.55 176.64 219.65 161.79 237.37C155.08 245.39 144.36 268.35 140.6 294.17C140.1 297.6 147.21 300.26 161.92 302.15L148.15 394.61L135.71 436.31L305.22 435.86Z" />
							<path id="&lt;Path&gt;" class="shp5" d="M210.52 374.87C248.71 361.92 280.24 339.09 307.84 308.81C322.92 292.27 336.68 274.6 350.09 256.61C354.24 263.64 357 272.32 356.7 282.94C355.98 308.43 338.82 359.41 305.22 435.86L135.71 436.31C136.01 423.1 136.64 407.43 137.6 389.29C162.37 387.06 186.93 382.87 210.52 374.87Z" />
						</g>
					</g>
					<g id="&lt;Group&gt;">
						<path id="&lt;Path&gt;" class="shp1" d="M359.64 325.4C365.04 395.66 363.02 432.5 353.58 435.91C344.14 439.33 298.95 434.93 218.01 422.73C196.94 447.02 195.12 445.69 212.56 418.74C187.14 444.54 184.78 443.78 205.49 416.45C177.52 433.9 175.89 432 200.59 410.75C176.29 417.49 177.93 414.83 205.49 402.78C221.11 395.95 255.96 390.47 310.05 386.32L303.01 325.93L359.11 305.46L359.64 325.4Z" />
						<path id="&lt;Path&gt;" class="shp4" d="M310.05 386.32C326.02 388.23 344.51 392.53 365.5 399.2C376.6 289.19 360.69 232.3 317.77 228.53C297.07 256.08 289.2 280.32 294.17 301.25C299.4 323.3 301.07 385.25 310.05 386.32Z" />
					</g>
				</g>
				<g id="&lt;Group&gt;">
					<g id="&lt;Group&gt;">
						<g id="&lt;Group&gt;">
							<path id="&lt;Path&gt;" class="shp1" d="M309.82 147.54C321.98 109.96 319.08 83.29 301.13 67.53C274.19 43.89 232.45 29.9 217.11 94.65C206.62 138.96 194.23 191.41 227.72 205.91C261.22 220.41 297.41 186.4 309.82 147.54Z" />
							<path id="&lt;Path&gt;" class="shp1" d="M300.59 159.41C305.66 138.95 310.55 128.9 315.27 129.26C322.35 129.79 327.4 136.14 323.86 147.78C320.31 159.42 299.06 178.45 300.59 159.41Z" />
						</g>
						<g id="&lt;Group&gt;">
							<path id="&lt;Path&gt;" class="shp6" d="M342.83 81.01C341.67 72.1 333.59 68.95 329.14 69.09C341.35 17.94 261.4 30.59 244.28 33.65C232.66 35.74 228.03 30.32 230.4 17.41C221.32 23.67 219.59 32.22 225.21 43.05C219.76 39.81 217.41 34.3 218.14 26.52C207.6 42.84 207.77 57.94 218.65 71.82L213.48 67.54C219.98 97.8 290.04 85.6 296.1 84.48C295.7 84.7 295.3 84.91 294.9 85.13C287.71 104.83 290.42 117.16 303.03 122.14L296.6 145.63C290.45 165.35 280.63 189.96 270.43 187.65C253.61 183.83 272.26 169.1 250.9 162.43C236.08 157.8 211.81 152.9 211.34 179.05C211.03 196.49 209.06 192.05 205.44 165.73C201.18 190.14 203.75 204.72 213.14 209.49C227.23 216.63 278.58 225.22 290.88 193.37C295.68 180.91 298.68 168.53 301.4 157.95C302.31 155.81 303.98 151.44 306.42 143.48C309.02 135.01 311.77 130.78 314.68 130.78C316.3 130.44 318.08 131.29 320.02 133.33C337.16 113.35 344.76 95.91 342.83 81.01Z" />
							<path id="&lt;Path&gt;" class="shp7" d="M342.83 81.01C341.67 72.1 333.59 68.95 329.14 69.09C335.29 43.33 318.06 33.75 297.25 30.98C299.65 51.23 297.53 72.02 286.94 85.9C291.65 85.28 294.98 84.69 296.1 84.48C295.7 84.7 295.3 84.91 294.9 85.13C287.71 104.83 290.42 117.16 303.03 122.14L296.6 145.63C290.45 165.35 280.63 189.96 270.43 187.65C270.07 187.57 269.75 187.47 269.43 187.38C267.92 198.91 262.64 209.61 252.46 216.04C252.44 216.05 252.43 216.05 252.42 216.06C268.65 215.17 284.7 209.38 290.88 193.37C295.68 180.91 298.68 168.53 301.4 157.95C302.31 155.81 303.98 151.44 306.42 143.48C309.02 135.01 311.77 130.78 314.68 130.78C316.3 130.44 318.08 131.29 320.02 133.33C337.16 113.35 344.76 95.91 342.83 81.01Z" />
						</g>
					</g>
					<g id="&lt;Group&gt;">
						<g id="&lt;Group&gt;">
							<path id="&lt;Path&gt;" class="shp6" d="M242.36 110.12C241.14 109.6 239.62 108.95 237.79 108.17C237.17 107.91 236.52 107.64 235.84 107.4C235.19 107.1 234.47 106.94 233.82 106.66C233.11 106.51 232.46 106.19 231.76 106.09C231.42 106 231.08 105.94 230.75 105.82L229.72 105.67C229.06 105.44 228.36 105.55 227.68 105.39C226.99 105.34 226.29 105.37 225.58 105.28C224.87 105.32 224.16 105.36 223.45 105.34C222.73 105.34 222.05 105.48 221.37 105.5C220.7 105.52 220.04 105.54 219.47 105.64C218.89 105.71 218.35 105.73 217.9 105.76C217.29 105.79 216.79 105.8 216.39 105.78C216.52 105.42 216.74 104.95 217.06 104.39C217.3 103.97 217.6 103.45 217.98 102.89C218.35 102.31 218.86 101.77 219.46 101.22C220.07 100.68 220.72 100.03 221.53 99.54C222.36 99.07 223.26 98.57 224.25 98.18C225.27 97.91 226.35 97.56 227.49 97.48C228.63 97.45 229.82 97.35 230.97 97.62L232.69 98C233.24 98.18 233.77 98.43 234.3 98.64C234.84 98.84 235.34 99.12 235.8 99.43C236.27 99.73 236.73 100.02 237.16 100.35C237.96 101.05 238.75 101.72 239.33 102.49C239.96 103.23 240.45 104 240.85 104.73C241.65 106.2 242.05 107.55 242.21 108.54C242.34 109.19 242.39 109.72 242.36 110.12Z" />
						</g>
						<g id="&lt;Group&gt;">
							<path id="&lt;Path&gt;" class="shp6" d="M253.93 107.4C254.71 105.75 256.08 104.11 258.03 102.47C259.49 101.23 261.38 100.02 263.65 99.12C264.78 98.68 266.01 98.3 267.32 98.11C268.62 97.86 270 97.84 271.39 97.92C272.79 98.07 274.2 98.34 275.53 98.88C276.86 99.38 278.09 100.12 279.14 100.97C280.2 101.82 281.09 102.79 281.78 103.77C282.5 104.75 282.99 105.76 283.41 106.69C283.75 107.66 284.08 108.51 284.21 109.32C284.37 110.12 284.48 110.81 284.5 111.4C284.54 112.17 284.54 112.78 284.51 113.23C284.15 112.95 283.71 112.56 283.19 112.07C282.82 111.69 282.28 111.3 281.77 110.82C281.27 110.32 280.62 109.87 280.02 109.34C278.72 108.36 277.27 107.41 275.74 106.75C275.36 106.57 274.95 106.46 274.57 106.29C274.16 106.2 273.78 106.04 273.36 105.95C272.54 105.76 271.69 105.61 270.8 105.54C267.27 105.22 263.12 105.93 259.8 106.48C258.08 106.76 256.64 106.99 255.63 107.15C254.93 107.27 254.36 107.35 253.93 107.4Z" />
						</g>
						<g id="&lt;Group&gt;">
							<path id="&lt;Path&gt;" class="shp2" d="M305.78 162.75C306.5 162.37 307.16 161.9 307.73 161.39C308.29 160.86 308.77 160.27 308.91 159.65C308.92 159.49 309 159.35 308.96 159.2C308.94 159.05 308.98 158.91 308.93 158.77L308.81 158.34L308.58 157.92C308.44 157.63 308.17 157.37 307.99 157.1L307.23 156.33L306.85 155.94L306.93 155.29C307.12 153.87 307.35 152.49 307.65 151.11C307.94 149.73 308.24 148.35 308.64 146.99C309.39 144.26 310.33 141.57 311.71 138.97C312.46 137.7 313.25 136.4 314.69 135.35C315.4 134.84 316.46 134.48 317.54 134.78C317.88 134.91 318.13 134.93 318.55 135.14C318.95 135.34 319.38 135.53 319.67 135.81C320.34 136.31 320.81 137.01 321.2 137.68C321.54 138.39 321.79 139.12 321.91 139.86C322.2 141.32 322.12 142.79 321.84 144.17C321.65 142.77 321.31 141.42 320.79 140.22C320.27 139.03 319.53 138.01 318.58 137.54C318.35 137.39 318.14 137.35 317.93 137.27C317.76 137.18 317.32 137.15 317.02 137.08C316.78 137.08 316.47 137.2 316.12 137.51C315.4 138.12 314.73 139.25 314.2 140.39C313.62 141.54 313.13 142.78 312.68 144.04C312.24 145.3 311.78 146.58 311.38 147.88C310.58 150.47 309.81 153.13 309.08 155.75L308.78 154.71L309.6 155.81C309.82 156.25 310.08 156.63 310.23 157.12L310.45 157.85C310.48 158.12 310.5 158.39 310.52 158.66C310.54 158.92 310.46 159.2 310.42 159.46C310.4 159.73 310.24 159.96 310.15 160.2C310.05 160.45 309.87 160.62 309.73 160.82C309.6 161.03 309.41 161.17 309.24 161.33C308.9 161.64 308.53 161.87 308.14 162.05C307.38 162.44 306.58 162.65 305.78 162.75Z" />
						</g>
						<g id="&lt;Group&gt;">
							<path id="&lt;Path&gt;" class="shp2" d="M242.74 114.87C240.86 118.3 239.14 121.76 237.48 125.25C235.84 128.74 234.25 132.25 232.78 135.8C232.06 137.59 231.28 139.35 230.62 141.16C229.95 142.96 229.23 144.75 228.6 146.57C227.92 148.37 227.36 150.21 226.7 152.03C226.08 153.85 225.56 155.72 224.92 157.54L223.81 155.8C229.38 156.85 234.93 158.04 240.44 159.57C234.74 159.51 229.09 159.1 223.45 158.57L221.98 158.43L222.34 156.82C223.18 152.95 224.15 149.1 225.45 145.37C226.07 143.49 226.73 141.62 227.49 139.8C227.84 138.88 228.24 137.98 228.63 137.07C229.04 136.17 229.39 135.25 229.84 134.37C230.71 132.6 231.58 130.84 232.53 129.12C233.5 127.41 234.47 125.71 235.55 124.07C236.61 122.43 237.73 120.82 238.92 119.28C240.11 117.73 241.37 116.24 242.74 114.87Z" />
						</g>
						<g id="&lt;Group&gt;">
							<path id="&lt;Path&gt;" class="shp6" d="M219.29 123.46C219.26 123.15 219.25 122.73 219.28 122.19C219.32 121.39 219.43 120.23 219.84 118.88C220.05 118.21 220.31 117.48 220.71 116.75C221.11 116.02 221.59 115.24 222.28 114.58C222.63 114.25 222.99 113.91 223.43 113.65C223.84 113.34 224.3 113.12 224.8 112.95C225.78 112.58 226.86 112.52 227.87 112.62L228.06 112.63L228.16 112.64L228.21 112.64L228.37 112.68L228.68 112.76L229.29 112.92C229.67 112.99 230.3 113.35 230.77 113.58C231.7 114.14 232.43 114.91 232.95 115.76C233.49 116.59 233.81 117.48 233.98 118.32C234.19 119.15 234.22 119.94 234.22 120.65C234.23 122.08 233.98 123.22 233.77 123.99C233.62 124.51 233.49 124.9 233.36 125.18C233.33 124.87 233.28 124.46 233.2 123.95C233.09 123.18 232.92 122.09 232.6 120.87C232.43 120.27 232.22 119.63 231.95 119.02C231.7 118.39 231.32 117.83 230.93 117.32C230.74 117.04 230.47 116.87 230.25 116.64C229.99 116.48 229.72 116.27 229.47 116.14C229.16 116.05 229.07 115.9 228.62 115.8L228 115.65L227.69 115.58L227.67 115.57L227.66 115.57C227.71 115.58 227.53 115.54 227.78 115.6L227.75 115.6L227.68 115.59L227.56 115.59C226.89 115.51 226.24 115.54 225.63 115.72C225.02 115.87 224.44 116.17 223.92 116.58C222.85 117.39 221.99 118.55 221.32 119.6C220.67 120.67 220.17 121.65 219.82 122.34C219.59 122.81 219.42 123.18 219.29 123.46Z" />
						</g>
						<g id="&lt;Group&gt;">
							<path id="&lt;Path&gt;" class="shp6" d="M258.5 127.75C258.47 127.45 258.47 127.03 258.49 126.49C258.53 125.69 258.64 124.53 259.05 123.18C259.26 122.51 259.53 121.78 259.92 121.05C260.32 120.32 260.8 119.54 261.5 118.88C261.84 118.55 262.2 118.21 262.64 117.95C263.05 117.64 263.51 117.42 264.01 117.25C264.99 116.87 266.07 116.81 267.08 116.91L267.27 116.93L267.37 116.94L267.42 116.94L267.58 116.98L267.89 117.06L268.51 117.22C268.89 117.29 269.52 117.64 269.98 117.87C270.92 118.43 271.64 119.21 272.17 120.05C272.7 120.89 273.03 121.78 273.19 122.62C273.4 123.44 273.44 124.24 273.44 124.95C273.44 126.38 273.19 127.51 272.98 128.29C272.84 128.81 272.7 129.2 272.57 129.48C272.54 129.17 272.49 128.76 272.41 128.25C272.3 127.47 272.13 126.38 271.81 125.17C271.64 124.57 271.43 123.93 271.16 123.32C270.91 122.69 270.53 122.13 270.14 121.62C269.96 121.34 269.68 121.17 269.47 120.93C269.2 120.77 268.93 120.57 268.68 120.44C268.37 120.35 268.28 120.2 267.83 120.1L267.21 119.95L266.9 119.88L266.88 119.87L266.87 119.87C266.93 119.88 266.74 119.84 266.99 119.89L266.96 119.89L266.9 119.89L266.77 119.89C266.1 119.81 265.45 119.83 264.85 120.02C264.24 120.17 263.65 120.47 263.13 120.88C262.06 121.69 261.21 122.85 260.54 123.9C259.88 124.97 259.38 125.95 259.04 126.64C258.81 127.1 258.63 127.48 258.5 127.75Z" />
						</g>
						<path id="&lt;Path&gt;" class="shp4" d="M219.13 173.73L256.11 172.3C246.85 182.61 234.53 183.08 219.13 173.73Z" />
					</g>
				</g>
			</g>
			<g id="&lt;Group&gt;">
				<path id="&lt;Path&gt;" class="shp7" d="M104.33 431.52C104.33 434.15 106.37 436.29 108.89 436.29L282.3 436.4C284.82 436.4 286.86 434.27 286.86 431.63C286.86 428.99 284.82 426.86 282.3 426.85L108.89 426.75C106.37 426.74 104.33 428.88 104.33 431.52Z" />
				<path id="&lt;Path&gt;" class="shp6" d="M25.74 428.29C25.73 432.68 29.14 436.24 33.34 436.25L183.93 436.34C188.13 436.34 191.54 432.78 191.54 428.39L191.61 321.76C191.61 317.37 188.21 313.81 184.01 313.8L33.41 313.71C29.21 313.71 25.81 317.27 25.8 321.66L25.74 428.29Z" />
				<path id="&lt;Path&gt;" class="shp7" d="M180.44 428.38L180.51 321.76C180.51 317.36 177.11 313.8 172.91 313.8L184.01 313.8C188.21 313.81 191.61 317.37 191.61 321.76L191.54 428.39C191.54 432.78 188.13 436.34 183.93 436.34L172.83 436.33C177.03 436.34 180.44 432.78 180.44 428.38Z" />
			</g>
		</g>
	</g>
</svg>