<?xml version="1.0" encoding="utf-8"?>
<!-- Generator: Adobe Illustrator 21.0.2, SVG Export Plug-In . SVG Version: 6.00 Build 0)  -->
<svg version="1.1" id="Layer_1" xmlns="http://www.w3.org/2000/svg" xmlns:xlink="http://www.w3.org/1999/xlink" x="0px" y="0px"
	 viewBox="0 0 1120 194.9" style="enable-background:new 0 0 1120 194.9;" xml:space="preserve">
<style type="text/css">
	.st0{fill:none;}
	.st1{fill-rule:evenodd;clip-rule:evenodd;fill:#FFFFFF;}
	.st2{fill:#FDD247;}
	.st3{fill:#EFB73A;}
	.st4{fill:#1b536d;}
	.st5{fill:#FFFFFF;}
	.st6{fill:#E8B138;}
</style>
<g>
	<g>
		<g>
			<g>
				<path class="st0" d="M972.5,203.1l-0.4-0.4l-0.3-0.3l-0.5-0.6c-0.3-0.4-0.7-0.8-1-1.2c-0.6-0.8-1.3-1.5-1.9-2.3
					c-1.2-1.6-2.4-3.1-3.5-4.7c-2.2-3.2-4.3-6.5-6.2-10l20.5-11.2c1.5,2.7,3.1,5.3,4.9,7.8c0.9,1.3,1.8,2.5,2.7,3.7
					c0.5,0.6,0.9,1.2,1.4,1.8l0.7,0.8l0.3,0.4l0.2,0.3L972.5,203.1z"/>
			</g>
			<path class="st1" d="M972.4,182.3l-2,1.2c-0.7-1.1-1.4-2.2-2-3.4l2-1.2C971.1,180.1,971.7,181.2,972.4,182.3z"/>
			<path class="st1" d="M976.3,188l-1.9,1.4c-0.8-1.1-1.5-2.1-2.3-3.2l1.9-1.3C974.8,185.9,975.5,186.9,976.3,188z"/>
			<path class="st1" d="M980.5,193.4l-1.8,1.5c-0.9-1-1.7-2-2.5-3.1l1.8-1.4C978.9,191.4,979.7,192.4,980.5,193.4z"/>
		</g>
		<g>
			<g>
				<path class="st0" d="M958.7,183.6c-1.9-3.5-3.6-7-5.1-10.8c-1.5-3.7-2.7-7.6-3.6-11.7l22.7-5.2c1.3,5.5,3.5,11.1,6.4,16.5
					L958.7,183.6z"/>
			</g>
			<path class="st1" d="M963.6,163.5l-2.2,0.7c-0.2-0.6-0.4-1.3-0.6-1.9c-0.2-0.6-0.4-1.3-0.5-1.9l2.3-0.6c0.2,0.6,0.3,1.2,0.5,1.9
				C963.2,162.3,963.4,162.9,963.6,163.5z"/>
			<path class="st1" d="M966,170l-2.1,0.9c-0.3-0.6-0.5-1.2-0.8-1.8c-0.2-0.6-0.5-1.2-0.7-1.9l2.2-0.8c0.2,0.6,0.5,1.2,0.7,1.8
				C965.5,168.8,965.7,169.4,966,170z"/>
			<polygon class="st1" points="968.9,176.2 966.9,177.3 966,175.5 965.1,173.7 967.2,172.8 968.1,174.5 			"/>
		</g>
		<g>
			<g>
				<path class="st0" d="M950,161.1c-0.2-1-0.5-2-0.6-3.1c-0.1-0.5-0.2-1-0.3-1.5l-0.2-1.6c-0.2-1-0.3-2.2-0.4-3.3
					c-0.1-0.5-0.1-1.2-0.1-1.7c0-0.6-0.1-1.2,0-1.8l0-1.8c0-0.3,0-0.6,0-0.9l0.1-0.9l0.1-0.9c0-0.3,0.1-0.6,0.1-0.9
					c0.1-0.6,0.2-1.3,0.3-1.9c0-0.2,0.1-0.3,0.1-0.5l0.1-0.5l0.2-1l0.3-1c0.1-0.3,0.2-0.7,0.3-1c0.2-0.7,0.4-1.3,0.7-2
					c0.3-0.6,0.6-1.3,0.9-1.9l20.9,10.3c-0.1,0.2-0.1,0.3-0.2,0.5c-0.1,0.2-0.1,0.3-0.2,0.5c0,0.1-0.1,0.2-0.1,0.3
					c0,0.1,0,0.2-0.1,0.3c0,0.1,0,0.2-0.1,0.3l0,0.1c0,0.1,0,0.1,0,0.2c0,0.2-0.1,0.4-0.1,0.6c0,0.1,0,0.2,0,0.4l0,0.4l0,0.4
					c0,0.1,0,0.3,0,0.4c0,0.3,0,0.5,0,0.8c0,0.3,0,0.6,0,0.9c0,0.3,0,0.6,0,0.9l0.1,0.9c0,0.2,0,0.3,0,0.5l0.1,0.5l0.1,1
					c0.1,0.3,0.1,0.7,0.2,1c0.1,0.7,0.3,1.4,0.4,2.1L950,161.1z"/>
			</g>
			<path class="st1" d="M961.3,143.3l-2.3-0.4l0.1-0.5l0.1-0.5l0.3-1c0.1-0.3,0.2-0.7,0.3-1l0.3-1l2.2,0.9l-0.3,0.9
				c-0.1,0.3-0.2,0.6-0.3,0.9l-0.2,0.9l-0.1,0.5L961.3,143.3z"/>
			<path class="st1" d="M960.9,150l-2.3,0.1c0-0.7-0.1-1.4-0.1-2c0-0.7,0-1.4,0.1-2l2.3,0.1c0,0.6,0,1.3-0.1,1.9
				C960.9,148.8,960.9,149.4,960.9,150z"/>
			<path class="st1" d="M961.8,156.8l-2.3,0.5l-0.4-2c-0.1-0.7-0.2-1.3-0.3-2l2.3-0.3c0.1,0.6,0.2,1.3,0.3,1.9L961.8,156.8z"/>
		</g>
		<g>
			<g>
				<path class="st0" d="M951.7,132.9c1.3-2.5,2.9-4.9,4.7-7c0.5-0.5,0.9-1,1.4-1.5c0.2-0.2,0.5-0.5,0.7-0.7l0.7-0.6l0.8-0.6
					c0.3-0.2,0.5-0.4,0.8-0.6c0.5-0.4,1-0.8,1.5-1.1c0.1-0.1,0.3-0.2,0.4-0.3l0.4-0.2l0.8-0.5c0.5-0.3,1-0.7,1.6-0.9l1.6-0.8
					l0.4-0.2l0.4-0.2l0.8-0.4c0.5-0.2,1-0.5,1.5-0.7l1.5-0.6l0.8-0.3c0.3-0.1,0.5-0.2,0.8-0.3l1.5-0.5l7.5,22.1l-1,0.3
					c-0.2,0.1-0.3,0.1-0.5,0.2l-0.4,0.2l-0.9,0.4c-0.3,0.1-0.6,0.3-0.8,0.4l-0.4,0.2l-0.2,0.1l-0.2,0.1L977,139
					c-0.3,0.1-0.5,0.3-0.7,0.4l-0.3,0.2l-0.2,0.1c-0.1,0-0.1,0.1-0.1,0.1c-0.2,0.1-0.4,0.3-0.6,0.4c-0.1,0.1-0.2,0.1-0.3,0.2
					l-0.2,0.2l-0.2,0.2c-0.1,0.1-0.1,0.1-0.2,0.2c-0.1,0.1-0.3,0.3-0.4,0.4c-0.5,0.5-0.8,1.1-1.1,1.6L951.7,132.9z"/>
			</g>
			<path class="st1" d="M973.8,128.5l-1-2.1c1.2-0.6,2.5-1.1,3.7-1.6l0.8,2.2C976.1,127.5,974.9,127.9,973.8,128.5z"/>
			<path class="st1" d="M968,132.1l-1.5-1.8c0.3-0.2,0.5-0.4,0.8-0.6l0.8-0.6c0.3-0.2,0.6-0.4,0.9-0.6l0.9-0.5l1.2,2l-0.8,0.5
				c-0.3,0.2-0.5,0.3-0.8,0.5l-0.8,0.6C968.5,131.7,968.2,131.8,968,132.1z"/>
			<path class="st1" d="M963.6,137l-2-1.2c0.2-0.3,0.4-0.6,0.6-0.9l0.6-0.9c0.2-0.3,0.4-0.5,0.7-0.8c0.2-0.3,0.4-0.5,0.7-0.8
				l1.7,1.6c-0.2,0.2-0.4,0.5-0.6,0.7c-0.2,0.2-0.4,0.5-0.6,0.7l-0.5,0.8C964,136.5,963.8,136.7,963.6,137z"/>
		</g>
		<g>
			<g>
				<path class="st0" d="M974.7,114.7c4-1.4,7.9-2.3,11.7-3c3.8-0.7,7.5-1.3,11.2-1.7l2.8,23.2c-3.2,0.4-6.4,0.9-9.5,1.5
					c-3.1,0.6-6,1.3-8.6,2.2L974.7,114.7z"/>
			</g>
			<path class="st1" d="M993.7,123l-0.4-2.3c1.3-0.2,2.6-0.4,3.9-0.5l0.3,2.3C996.2,122.7,995,122.8,993.7,123z"/>
			<path class="st1" d="M986.9,124.3l-0.5-2.3l1.9-0.4c0.6-0.1,1.3-0.2,1.9-0.4l0.4,2.3c-0.6,0.1-1.3,0.2-1.9,0.4L986.9,124.3z"/>
			<path class="st1" d="M980.2,126l-0.7-2.2c1.3-0.4,2.5-0.7,3.8-1.1l0.6,2.3C982.7,125.3,981.4,125.6,980.2,126z"/>
		</g>
		<g>
			<g>
				<path class="st0" d="M997.6,109.9c7.4-0.9,14.6-1.4,21.7-1.7l1.1,23.3c-6.8,0.3-13.5,0.8-20,1.6L997.6,109.9z"/>
			</g>
			<polygon class="st1" points="1014.4,121 1014.3,118.6 1016.3,118.5 1018.2,118.4 1018.3,120.8 1016.4,120.9 			"/>
			<path class="st1" d="M1007.5,121.5l-0.2-2.3c1.3-0.1,2.6-0.2,3.9-0.3l0.2,2.3C1010.1,121.3,1008.8,121.3,1007.5,121.5z"/>
			<path class="st1" d="M1000.6,122.1l-0.3-2.3c1.3-0.2,2.6-0.3,3.9-0.4l0.2,2.3C1003.2,121.9,1001.9,122,1000.6,122.1z"/>
		</g>
		<g>
			<g>
				<path class="st0" d="M1019.3,108.2l5.2-0.3c1.7-0.1,3.4-0.2,5.1-0.3c1.7-0.1,3.4-0.2,5.1-0.4c1.7-0.1,3.4-0.3,5-0.4l2.2,23.2
					c-1.8,0.2-3.6,0.3-5.4,0.5c-1.8,0.1-3.6,0.3-5.4,0.4c-1.8,0.1-3.6,0.2-5.3,0.3l-5.3,0.3L1019.3,108.2z"/>
			</g>
			<polygon class="st1" points="1035.4,119.8 1035.2,117.4 1039.1,117.1 1039.3,119.4 			"/>
			<polygon class="st1" points="1028.4,120.2 1028.3,117.9 1032.1,117.7 1032.3,120 			"/>
			<path class="st1" d="M1021.5,120.6l-0.1-2.3c1.3-0.1,2.6-0.1,3.9-0.2l0.1,2.3C1024,120.5,1022.8,120.5,1021.5,120.6z"/>
		</g>
		<g>
			<g>
				<path class="st0" d="M1039.6,106.9c3.3-0.3,6.6-0.7,9.8-1.1c3.2-0.5,6.3-1,9.1-1.8l5.8,22.6c-3.9,1-7.7,1.7-11.5,2.2
					c-3.7,0.6-7.4,1-11,1.3L1039.6,106.9z"/>
			</g>
			<path class="st1" d="M1056.3,117.2l-0.4-2.3c0.6-0.1,0.4-0.2,1-0.3l1.8-0.3l0.9-0.2l0.5,2.3l-1,0.2l-1,0.2
				C1057.5,117,1056.9,117.1,1056.3,117.2z"/>
			<polygon class="st1" points="1049.3,118.3 1049,116 1050.9,115.8 1052.8,115.5 1053.2,117.8 1050.4,118.2 			"/>
			<path class="st1" d="M1042.4,119.2l-0.2-2.3c1.3-0.1,2.6-0.3,3.8-0.4l0.3,2.3C1045,118.9,1043.7,119,1042.4,119.2z"/>
		</g>
		<g>
			<g>
				<path class="st0" d="M1058.5,104c1.4-0.4,2.8-0.8,3.9-1.2l0.5-0.2l0.2-0.1l0.2-0.1l0.8-0.3c0.1-0.1,0.3-0.1,0.4-0.2l0.4-0.2
					l0.4-0.2c0.1-0.1,0.2-0.1,0.3-0.2l0.3-0.2c0.1-0.1,0.2-0.1,0.3-0.2c0.2-0.1,0.3-0.2,0.5-0.3c0.1-0.1,0.3-0.2,0.4-0.3
					c0,0,0.1,0,0.1-0.1l0.1-0.1c0,0,0.1-0.1,0.1-0.1c0.4-0.3,0.5-0.5,0.6-0.7l21.1,10c-0.2,0.4-0.4,0.7-0.5,1.1
					c-0.2,0.4-0.4,0.7-0.6,1.1c-0.2,0.4-0.4,0.7-0.6,1c-0.2,0.3-0.5,0.7-0.7,1c-0.2,0.3-0.5,0.6-0.7,1c-0.2,0.3-0.5,0.6-0.8,0.9
					c-0.5,0.6-1.1,1.2-1.6,1.6l-0.8,0.7l-0.4,0.4c-0.1,0.1-0.3,0.2-0.4,0.3c-0.6,0.4-1.1,0.9-1.7,1.3c-0.6,0.4-1.1,0.7-1.7,1.1
					c-0.3,0.2-0.6,0.3-0.8,0.5l-0.8,0.5c-0.3,0.2-0.6,0.3-0.8,0.5l-0.8,0.4l-0.8,0.4c-0.3,0.1-0.5,0.3-0.8,0.4l-1.6,0.7l-0.4,0.2
					l-0.4,0.1l-0.8,0.3c-2.1,0.8-4.1,1.3-6.1,1.9L1058.5,104z"/>
			</g>
			<path class="st1" d="M1075,109.4l-0.7-1.8c0.5-0.4,0.8-0.8,1.2-1.3c0.2-0.2,0.4-0.5,0.5-0.7l0.3-0.3c0.1-0.1,0.1-0.2,0.2-0.4
				l2,1.2c-0.1,0.1-0.2,0.3-0.3,0.4l-0.3,0.4c-0.2,0.3-0.4,0.6-0.6,0.8C1076.9,108.4,1075.5,109,1075,109.4z"/>
			<path class="st1" d="M1069.8,113.2l-1-2.1c0.6-0.3,0.2-0.4,0.8-0.7l1.7-0.5c0.3-0.2,0.5-0.3,0.8-0.5l1.3,2
				c-0.3,0.2-0.6,0.4-0.8,0.5l-0.9,0.5C1071,112.7,1070.4,113,1069.8,113.2z"/>
			<path class="st1" d="M1063.2,115.6l-0.6-2.2c0.6-0.2,1.2-0.4,1.8-0.5c0.6-0.2,1.2-0.4,1.8-0.6l0.8,2.2c-0.6,0.2-2.1,0.5-2.8,0.7
				C1063.5,115.3,1063.8,115.5,1063.2,115.6z"/>
		</g>
		<g>
			<g>
				<path class="st0" d="M1068.1,99.4c0.1-0.2,0.2-0.5,0.3-1.1c0-0.2,0-0.3,0-0.5c0-0.2,0-0.4,0-0.6c0,0,0-0.1,0-0.2l0-0.2l0-0.4
					l0-0.2l0-0.1l0-0.1c0-0.1,0-0.2,0-0.3c-0.1-0.3-0.1-0.6-0.2-0.8c-0.1-0.2-0.1-0.3-0.1-0.2c0,0,0,0,0,0l13.4-19.1
					c2.9,2,5.3,4.7,7,7.7c0.2,0.4,0.4,0.8,0.6,1.2c0.2,0.4,0.4,0.8,0.5,1.2c0.2,0.4,0.3,0.8,0.4,1.1c0.1,0.4,0.3,0.8,0.4,1.1
					c0.5,1.5,0.8,2.9,1,4.3l0.1,1l0,0.3l0,0.2l0,0.5l0.1,1l0,0.5c0,0.2,0,0.3,0,0.5c0,0.7,0,1.3,0,2c0,0.7-0.1,1.4-0.1,2.1l0,0.5
					l-0.1,0.6l-0.2,1.1c-0.1,0.7-0.3,1.5-0.5,2.3c-0.1,0.4-0.2,0.8-0.3,1.1c-0.1,0.4-0.3,0.8-0.4,1.1c-0.1,0.4-0.3,0.8-0.4,1.1
					c-0.2,0.4-0.3,0.7-0.5,1.1L1068.1,99.4z"/>
			</g>
			<path class="st1" d="M1079,89l-2.1,1.1c-0.5-1-2.1-1.8-2.9-2.6l2.5-1.8C1077.5,86.7,1078.3,87.8,1079,89z"/>
			<path class="st1" d="M1080.8,96l-2.3,0.2c-0.1-1.5-0.2-2.2-0.5-3.5l2.3-0.6C1080.5,93.4,1080.7,94.7,1080.8,96z"/>
			<path class="st1" d="M1080,103.2l-2.2-0.8l0.1-0.4l0.1-0.4c0.1-0.3,0.1-0.6,0.2-0.8l0.1-0.9c0-0.1,0.1-0.3,0.1-0.4l0-0.4l2.3,0.2
				l0,0.5c0,0.2,0,0.3-0.1,0.5l-1,1.1c-0.1,0.3,0.7,0.6,0.7,0.9l-0.1,0.5L1080,103.2z"/>
		</g>
		<g>
			<g>
				<path class="st0" d="M1068,94.9C1068,94.9,1068,94.9,1068,94.9C1068,94.9,1067.9,94.9,1068,94.9c0,0-0.1,0-0.1-0.1c0,0,0,0,0,0
					c0,0,0,0-0.1,0c-0.2-0.1-0.4-0.2-0.8-0.3c-0.3-0.1-0.7-0.2-1.2-0.2c-0.5-0.1-1-0.1-1.6-0.1c-1.1,0-2.4,0-3.8,0.1
					c-1.4,0.1-2.8,0.3-4.3,0.5l-3.6-23c2-0.3,4-0.6,6.1-0.7c2.1-0.2,4.3-0.2,6.7-0.1c1.2,0.1,2.4,0.2,3.6,0.3
					c1.3,0.2,2.6,0.4,3.9,0.8c1.3,0.3,2.8,0.8,4.2,1.4l0.5,0.2l0.5,0.3c0.4,0.2,0.7,0.3,1.1,0.6c0.4,0.2,0.7,0.4,1.1,0.6
					c0.4,0.2,0.7,0.5,1.1,0.7L1068,94.9z"/>
			</g>
			<path class="st1" d="M1059.6,81.8l0.2,2.3c-2.2,0.2-3.4,0.4-3.8,0.4l-0.3-2.3C1057,82.1,1058.3,81.9,1059.6,81.8z"/>
			<path class="st1" d="M1066.7,81.9l-0.3,2.3c-1.2-0.1-2.5-0.2-3.7-0.2l-0.9-2.2C1063.2,81.8,1065.4,81.7,1066.7,81.9z"/>
			<path class="st1" d="M1073.7,83.8l-1.1,2.1c-1-0.5-2.1-0.9-3.3-1.2l0.6-2.3C1070.4,82.5,1071.7,82.8,1073.7,83.8z"/>
		</g>
		<g>
			<g>
				<path class="st0" d="M1056.1,94.8c-3,0.5-6.1,1.2-9.3,1.9c-3.2,0.8-6.4,1.7-9.8,2.6l-6.3-22.5c3.4-0.9,6.9-1.9,10.4-2.8
					c3.6-0.9,7.3-1.7,11.2-2.3L1056.1,94.8z"/>
			</g>
			<polygon class="st1" points="1038.9,85.9 1038.6,88.2 1034.9,89.3 1035.2,86.9 			"/>
			<path class="st1" d="M1044.8,84.3l1.4,2.2c-1.3,0.3-2.5,0.6-3.7,0.9l-0.6-2.3C1043.2,84.8,1043.6,84.6,1044.8,84.3z"/>
			<path class="st1" d="M1052.6,82.7l-0.5,2.4c-1.3,0.2-1.6,0.4-2.9,0.7l-0.5-2.3C1050,83.2,1051.3,83,1052.6,82.7z"/>
		</g>
		<g>
			<g>
				<path class="st0" d="M1037,99.4l-5.1,1.4l-0.7,0.2l-0.3,0.1l-0.5,0.1c-0.7,0.2-1.3,0.3-2,0.4c-0.7,0.1-1.4,0.2-2.1,0.3
					c-0.7,0.1-1.4,0.1-2.1,0.2c-2.8,0.1-5.8-0.1-8.6-0.9c-2.8-0.7-5.5-1.9-7.8-3.3l11.9-20.1c0.7,0.4,1.2,0.6,1.8,0.8
					c0.6,0.1,1.1,0.2,1.7,0.2c0.3,0,0.7-0.1,1-0.1c0.2-0.1,0.4-0.1,0.6-0.1l0.1,0l0.3-0.1l0.6-0.2l5-1.4L1037,99.4z"/>
			</g>
			<path class="st1" d="M1018.9,89.2l-0.6,2.3c-0.3-0.1-0.7-0.2-1-0.3c-0.3-0.1-1.6-0.1-1.9-0.2l-0.1-0.5c-0.3-0.1-0.6-0.3-1-0.4
				l1-2.1c0.3,0.1,0.6,0.3,0.8,0.4l0.9,0.3c0.3,0.1,0.6,0.2,0.9,0.3C1018.3,89,1018.6,89.1,1018.9,89.2z"/>
			<path class="st1" d="M1025.5,89.4l0.3,2.3l-1,0.1c-0.3,0-0.7,0-1,0.1l-0.5,0l-0.3,0l-0.3,0l-1.1,0l0.1-2.3l0.9,0l0.2,0l-0.7,0.1
				l1.4-0.1c0.3,0,0.6,0,0.9-0.1L1025.5,89.4z"/>
			<polygon class="st1" points="1032.2,87.8 1031.9,90.1 1028.1,91.1 1028.4,88.8 			"/>
		</g>
		<g>
			<g>
				<path class="st0" d="M1007.8,98c-2.4-1.4-4.4-3-6.2-4.7c-1.8-1.7-3.4-3.5-4.8-5.4c-1.4-1.8-2.6-3.7-3.7-5.7c-0.5-1-1.1-2-1.6-3
					c-0.1-0.3-0.2-0.5-0.4-0.8c-0.1-0.3-0.2-0.5-0.4-0.8c-0.1-0.3-0.2-0.5-0.4-0.8l-0.2-0.4l-0.1-0.3l-0.1-0.4l21.9-8.1l0-0.1l0,0
					l0,0l0.1,0.2l0.2,0.4c0.1,0.1,0.1,0.3,0.2,0.4c0.1,0.1,0.1,0.3,0.2,0.4c0.3,0.6,0.6,1.1,0.9,1.7c0.6,1.1,1.3,2.2,2,3.1
					c1.4,1.9,3,3.3,4.3,4.1L1007.8,98z"/>
			</g>
			<path class="st1" d="M1007.9,81.8l-1.8,1.5c-0.9-1-1.7-2.1-2.4-3.2l1.9-1.3C1006.3,79.7,1006.7,80.4,1007.9,81.8z"/>
			<path class="st1" d="M1012.8,86.4l-1.3,1.9c-1.1-0.8-2.2-1.7-3.2-2.6l1.6-1.7C1010.6,84.7,1011.2,85.2,1012.8,86.4z"/>
		</g>
	</g>
	<g>
		<path class="st2" d="M1012.2,57.4l-6.5,7.4L965.3,53L1012.2,57.4z"/>
		<path class="st3" d="M1003.9,80.2l1.8-15.5L965.3,53l34.4,18.2L1003.9,80.2z"/>
		<path class="st2" d="M988.8,82.3l10.9-11.1L965.3,53L988.8,82.3z"/>
	</g>
</g>
<g>
	<path class="st4" d="M463.2,174.6c0.3-1.1,0.5-2.3,0.5-3.6c0-7.4-6-13.3-13.3-13.3c-0.5,0-1,0-1.5,0.1c-2.2-8.7-10-15.1-19.4-15.1
		c-10.1,0-18.5,7.5-19.8,17.3c-0.6-0.1-1.2-0.1-1.8-0.1c-7.7,0-13.9,6.2-13.9,13.9c0,7.7,6.2,13.9,13.9,13.9h53c3.7,0,6.8-3,6.8-6.8
		C467.7,178,465.8,175.5,463.2,174.6z"/>
	<path class="st4" d="M422.2,51.8c-0.4,0-0.8,0-1.1,0.1c2-2.4,3.3-5.5,3.3-9c0-4.6-2.3-8.7-5.7-11.2c-1.5-13.6-13.1-24.2-27.1-24.2
		c-15.1,0-27.3,12.2-27.3,27.3c0,0.9,0,1.7,0.1,2.6c0,0-0.1,0-0.1,0c-2.1,0-4.1,0.5-5.9,1.5c-2.9-3.9-7.6-6.4-12.8-6.4
		c-8.9,0-16.1,7.2-16.1,16.1c0,8.9,7.2,16.1,16.1,16.1h76.6c3.6,0,6.4-2.9,6.4-6.4C428.6,54.7,425.7,51.8,422.2,51.8z"/>
	<path class="st4" d="M106.5,178.5C106.5,178.5,106.5,178.5,106.5,178.5c0-0.4,0-0.8,0-1.3c0-6.2-5-11.2-11.2-11.2
		c-2.8,0-5.4,1.1-7.4,2.8c-1.6-2.5-4.1-4.4-7-5.3c-2.6-7.1-9.4-12.2-17.5-12.2c-10.3,0-18.6,8.3-18.6,18.6c0,0.3,0,0.6,0,1
		c-1.8-1.6-4.1-2.6-6.7-2.6c-0.4,0-0.7,0-1.1,0.1c-2.2-5.2-7.3-8.8-13.3-8.8c-8,0-14.4,6.5-14.4,14.4c0,1.6,0.3,3.2,0.8,4.6
		c-2.3,0.5-4,2.5-4,4.9c0,2.7,2.2,5,5,5h95.3c2.7,0,5-2.2,5-5C111.5,180.7,109.3,178.5,106.5,178.5z"/>
	<g>
		<g>
			<path class="st5" d="M115,92.3c0,0-10.4,2.2-17.2-6.4C91,77.2,99.2,70,88.9,64.9c-10.3-5.1-21.4,0.5-33.8,0.3
				c-12.4-0.3-19.5-10.5-21.8-9.1c-2.3,1.5,1,24.2,37,22c0,0-15.8,2.2-23.2,1.4c-7.4-0.8-4.8,8.5,6.9,10.9
				c11.7,2.4,22.3-2.5,22.3-2.5s-8.4,5.4-15.1,6.5c-6.7,1.2,9.1,14.1,23.5,0.8c0,0-2.2,3.3-4.6,6.5c-2.4,3.2,10.5,5.7,16.1-3.2
				c0,0-2.3,4.5-1.7,6.8c0.6,2.2,9.2,3.7,12.9-4c0,0-0.3,4.7,2.4,5.2c2.7,0.5,6.3,0.9,7.8-5C119.2,95.7,115,92.3,115,92.3z"/>
			<path class="st5" d="M217.2,72.1c0,0,10.5-1.9,13.4-12.5c3-10.6-7.4-14.1,0.2-22.7c7.6-8.6,20-7.7,31.4-12.6
				c11.4-5,14-17.2,16.7-16.7s8.3,22.7-25.9,34.4c0,0,15.5-4,22-7.5c6.6-3.6,7.6,6.1-2.2,12.7c-9.9,6.7-21.6,6.1-21.6,6.1
				s9.8,1.8,16.4,0.3s-3,16.5-21.5,9.7c0,0,3.3,2.2,6.8,4.2c3.4,2-7.5,9.2-16.1,3.2c0,0,3.9,3.3,4.2,5.6c0.3,2.3-7.1,7-13.5,1.2
				c0,0,2.1,4.3-0.2,5.7c-2.3,1.5-5.5,3.2-9.1-1.6C214.6,76.8,217.2,72.1,217.2,72.1z"/>
		</g>
		<g>
			<rect x="113.6" y="61.8" transform="matrix(0.981 -0.194 0.194 0.981 -15.699 34.6485)" class="st2" width="111" height="71.3"/>
			<polygon class="st6" points="171.1,107.6 111.5,76 172.6,115.4 214.2,55.7 			"/>
			<g>
				<polygon class="st6" points="146.5,97.1 124.3,139.8 149.1,100.1 				"/>
				<polygon class="st6" points="189.9,88.5 226.6,119.6 188.6,92.3 				"/>
			</g>
		</g>
	</g>
	<g>
		<g>
			<path class="st5" d="M318.2,106.9c0,0-5.7-0.6-7.8-6.1c-2.1-5.6,3.3-7.9-1.1-12.2c-4.5-4.3-11.1-3.2-17.4-5.4
				c-6.3-2.2-8.3-8.6-9.7-8.2c-1.4,0.4-3.4,12.6,15.4,17.4c0,0-8.5-1.4-12.2-3.1s-3.8,3.6,1.8,6.8c5.6,3.2,11.9,2.3,11.9,2.3
				s-5.2,1.4-8.8,0.9c-3.6-0.5,2.3,8.7,12,4.2c0,0-1.7,1.3-3.5,2.6c-1.8,1.2,4.5,4.6,8.8,1c0,0-1.9,1.9-2,3.2
				c-0.1,1.3,4.1,3.4,7.3,0.1c0,0-0.9,2.4,0.4,3.1c1.3,0.7,3.1,1.5,4.8-1.3C319.8,109.4,318.2,106.9,318.2,106.9z"/>
			<path class="st5" d="M374,113.3c0,0,5.7,0.7,9-4.2c3.3-5-1.5-8.5,3.8-11.6c5.3-3.2,11.5-0.7,18.2-1.4c6.7-0.7,10-6.5,11.3-5.8
				c1.3,0.7,0.5,13-18.9,13.5c0,0,8.6,0.5,12.6-0.3c4-0.8,2.9,4.4-3.2,6.2c-6.2,1.8-12.1-0.4-12.1-0.4s4.7,2.5,8.4,2.8
				c3.7,0.3-4.2,8-12.6,1.5c0,0,1.3,1.7,2.8,3.3c1.4,1.6-5.4,3.5-8.8-1c0,0,1.4,2.3,1.2,3.6c-0.2,1.2-4.8,2.4-7.1-1.6
				c0,0,0.4,2.5-1.1,2.9c-1.4,0.4-3.3,0.8-4.4-2.3C371.9,115.3,374,113.3,374,113.3z"/>
		</g>
		<g>
			
				<rect x="315.2" y="99.2" transform="matrix(0.9936 0.1128 -0.1128 0.9936 15.5666 -38.1769)" class="st2" width="59.9" height="38.5"/>
			<polygon class="st6" points="344.5,124 319,98 344,128.2 375.2,104.3 			"/>
			<g>
				<polygon class="st6" points="333.6,114.6 315.2,132.9 334.4,116.5 				"/>
				<polygon class="st6" points="357.3,117.2 371.1,139.3 356,119 				"/>
			</g>
		</g>
	</g>
	<g>
		<g>
			<path class="st5" d="M222.9,165.9c0,0-4.2,0.2-6.2-3.6c-2.1-3.8,1.6-6-2.1-8.7c-3.7-2.6-8.3-1.2-13.1-2.1
				c-4.8-0.9-6.8-5.3-7.8-4.9c-1,0.4-1.2,9.4,12.9,10.9c0,0-6.3-0.2-9.1-1c-2.8-0.8-2.4,3,1.9,4.7c4.3,1.7,8.8,0.5,8.8,0.5
				s-3.6,1.5-6.3,1.5c-2.7,0,2.6,6,9,1.8c0,0-1.1,1.1-2.2,2.2c-1.1,1.1,3.7,2.9,6.4-0.2c0,0-1.2,1.6-1.1,2.5
				c0.1,0.9,3.3,2.1,5.3-0.7c0,0-0.4,1.8,0.6,2.2c1,0.4,2.4,0.8,3.3-1.4C224.3,167.5,222.9,165.9,222.9,165.9z"/>
			<path class="st5" d="M263.7,164.8c0,0,4.2,0,6-3.9c1.8-3.9-1.9-5.9,1.6-8.8c3.5-2.8,8.2-1.7,12.9-2.8s6.6-5.7,7.5-5.3
				c1,0.4,1.7,9.3-12.3,11.6c0,0,6.2-0.5,9-1.5s2.5,2.8-1.7,4.8c-4.2,1.9-8.7,1-8.7,1s3.7,1.3,6.3,1.2c2.7-0.1-2.2,6.2-8.9,2.3
				c0,0,1.1,1.1,2.3,2.1c1.2,1-3.5,3.1-6.4,0.2c0,0,1.3,1.5,1.2,2.4c0,0.9-3.2,2.2-5.3-0.4c0,0,0.5,1.8-0.5,2.2
				c-1,0.4-2.3,0.9-3.4-1.2C262.4,166.5,263.7,164.8,263.7,164.8z"/>
		</g>
		<g>
			
				<rect x="221.7" y="157.5" transform="matrix(0.9996 -2.679079e-02 2.679079e-02 0.9996 -4.5068 6.5846)" class="st2" width="43.5" height="27.9"/>
			<polygon class="st6" points="243.6,175.5 222.6,159.4 243.7,178.6 263.6,158.3 			"/>
			<g>
				<polygon class="st6" points="234.8,169.8 223.4,184.9 235.6,171.2 				"/>
				<polygon class="st6" points="252.1,169.4 264.3,183.8 251.3,170.8 				"/>
			</g>
		</g>
	</g>
</g>
</svg>
