<svg version="1.2" baseProfile="tiny-ps" xmlns="http://www.w3.org/2000/svg" viewBox="0 0 1120 195" width="1120" height="195">
	<title>newsletters-svg</title>
	<style>
		tspan { white-space:pre }
		.shp0 { fill: #1b536d } 
		.shp1 { fill: #ffffff } 
		.shp2 { fill: #fdd247 } 
		.shp3 { fill: #e8b138 } 
	</style>
	<g id="Layer">
		<path id="Layer" class="shp0" d="M463.2 174.6C463.5 173.5 463.7 172.3 463.7 171C463.7 163.6 457.7 157.7 450.4 157.7C449.9 157.7 449.4 157.7 448.9 157.8C446.7 149.1 438.9 142.7 429.5 142.7C419.4 142.7 411 150.2 409.7 160C409.1 159.9 408.5 159.9 407.9 159.9C400.2 159.9 394 166.1 394 173.8C394 181.5 400.2 187.7 407.9 187.7L460.9 187.7C464.6 187.7 467.7 184.7 467.7 180.9C467.7 178 465.8 175.5 463.2 174.6Z" />
		<path id="Layer" class="shp0" d="M422.2 51.8C421.8 51.8 421.4 51.8 421.1 51.9C423.1 49.5 424.4 46.4 424.4 42.9C424.4 38.3 422.1 34.2 418.7 31.7C417.2 18.1 405.6 7.5 391.6 7.5C376.5 7.5 364.3 19.7 364.3 34.8C364.3 35.7 364.3 36.5 364.4 37.4L364.3 37.4C362.2 37.4 360.2 37.9 358.4 38.9C355.5 35 350.8 32.5 345.6 32.5C336.7 32.5 329.5 39.7 329.5 48.6C329.5 57.5 336.7 64.7 345.6 64.7L422.2 64.7C425.8 64.7 428.6 61.8 428.6 58.3C428.6 54.7 425.7 51.8 422.2 51.8Z" />
		<path id="Layer" class="shp0" d="M106.5 178.5L106.5 178.5C106.5 178.1 106.5 177.7 106.5 177.2C106.5 171 101.5 166 95.3 166C92.5 166 89.9 167.1 87.9 168.8C86.3 166.3 83.8 164.4 80.9 163.5C78.3 156.4 71.5 151.3 63.4 151.3C53.1 151.3 44.8 159.6 44.8 169.9C44.8 170.2 44.8 170.5 44.8 170.9C43 169.3 40.7 168.3 38.1 168.3C37.7 168.3 37.4 168.3 37 168.4C34.8 163.2 29.7 159.6 23.7 159.6C15.7 159.6 9.3 166.1 9.3 174C9.3 175.6 9.6 177.2 10.1 178.6C7.8 179.1 6.1 181.1 6.1 183.5C6.1 186.2 8.3 188.5 11.1 188.5L106.4 188.5C109.1 188.5 111.4 186.3 111.4 183.5C111.5 180.7 109.3 178.5 106.5 178.5Z" />
		<g id="Layer">
			<g id="Layer">
				<path id="Layer" class="shp1" d="M115 92.3C115 92.3 104.6 94.5 97.8 85.9C91 77.2 99.2 70 88.9 64.9C78.6 59.8 67.5 65.4 55.1 65.2C42.7 64.9 35.6 54.7 33.3 56.1C31 57.6 34.3 80.3 70.3 78.1C70.3 78.1 54.5 80.3 47.1 79.5C39.7 78.7 42.3 88 54 90.4C65.7 92.8 76.3 87.9 76.3 87.9C76.3 87.9 67.9 93.3 61.2 94.4C54.5 95.6 70.3 108.5 84.7 95.2C84.7 95.2 82.5 98.5 80.1 101.7C77.7 104.9 90.6 107.4 96.2 98.5C96.2 98.5 93.9 103 94.5 105.3C95.1 107.5 103.7 109 107.4 101.3C107.4 101.3 107.1 106 109.8 106.5C112.5 107 116.1 107.4 117.6 101.5C119.2 95.7 115 92.3 115 92.3Z" />
				<path id="Layer" class="shp1" d="M217.2 72.1C217.2 72.1 227.7 70.2 230.6 59.6C233.6 49 223.2 45.5 230.8 36.9C238.4 28.3 250.8 29.2 262.2 24.3C273.6 19.3 276.2 7.1 278.9 7.6C281.6 8.1 287.2 30.3 253 42C253 42 268.5 38 275 34.5C281.6 30.9 282.6 40.6 272.8 47.2C262.9 53.9 251.2 53.3 251.2 53.3C251.2 53.3 261 55.1 267.6 53.6C274.2 52.1 264.6 70.1 246.1 63.3C246.1 63.3 249.4 65.5 252.9 67.5C256.3 69.5 245.4 76.7 236.8 70.7C236.8 70.7 240.7 74 241 76.3C241.3 78.6 233.9 83.3 227.5 77.5C227.5 77.5 229.6 81.8 227.3 83.2C225 84.7 221.8 86.4 218.2 81.6C214.6 76.8 217.2 72.1 217.2 72.1Z" />
			</g>
			<g id="Layer">
				<path id="Layer" class="shp2" d="M107.73 73.24L216.62 51.7L230.45 121.65L121.56 143.18L107.73 73.24Z" />
				<path id="Layer" class="shp3" d="M171.1 107.6L111.5 76L172.6 115.4L214.2 55.7L171.1 107.6Z" />
				<g id="Layer">
					<path id="Layer" class="shp3" d="M146.5 97.1L124.3 139.8L149.1 100.1L146.5 97.1Z" />
					<path id="Layer" class="shp3" d="M189.9 88.5L226.6 119.6L188.6 92.3L189.9 88.5Z" />
				</g>
			</g>
		</g>
		<g id="Layer">
			<g id="Layer">
				<path id="Layer" class="shp1" d="M318.2 106.9C318.2 106.9 312.5 106.3 310.4 100.8C308.3 95.2 313.7 92.9 309.3 88.6C304.8 84.3 298.2 85.4 291.9 83.2C285.6 81 283.6 74.6 282.2 75C280.8 75.4 278.8 87.6 297.6 92.4C297.6 92.4 289.1 91 285.4 89.3C281.7 87.6 281.6 92.9 287.2 96.1C292.8 99.3 299.1 98.4 299.1 98.4C299.1 98.4 293.9 99.8 290.3 99.3C286.7 98.8 292.6 108 302.3 103.5C302.3 103.5 300.6 104.8 298.8 106.1C297 107.3 303.3 110.7 307.6 107.1C307.6 107.1 305.7 109 305.6 110.3C305.5 111.6 309.7 113.7 312.9 110.4C312.9 110.4 312 112.8 313.3 113.5C314.6 114.2 316.4 115 318.1 112.2C319.8 109.4 318.2 106.9 318.2 106.9Z" />
				<path id="Layer" class="shp1" d="M374 113.3C374 113.3 379.7 114 383 109.1C386.3 104.1 381.5 100.6 386.8 97.5C392.1 94.3 398.3 96.8 405 96.1C411.7 95.4 415 89.6 416.3 90.3C417.6 91 416.8 103.3 397.4 103.8C397.4 103.8 406 104.3 410 103.5C414 102.7 412.9 107.9 406.8 109.7C400.6 111.5 394.7 109.3 394.7 109.3C394.7 109.3 399.4 111.8 403.1 112.1C406.8 112.4 398.9 120.1 390.5 113.6C390.5 113.6 391.8 115.3 393.3 116.9C394.7 118.5 387.9 120.4 384.5 115.9C384.5 115.9 385.9 118.2 385.7 119.5C385.5 120.7 380.9 121.9 378.6 117.9C378.6 117.9 379 120.4 377.5 120.8C376.1 121.2 374.2 121.6 373.1 118.5C371.9 115.3 374 113.3 374 113.3Z" />
			</g>
			<g id="Layer">
				<path id="Layer" class="shp2" d="M317.56 95.94L377.08 102.7L372.73 140.95L313.22 134.2L317.56 95.94Z" />
				<path id="Layer" class="shp3" d="M344.5 124L319 98L344 128.2L375.2 104.3L344.5 124Z" />
				<g id="Layer">
					<path id="Layer" class="shp3" d="M333.6 114.6L315.2 132.9L334.4 116.5L333.6 114.6Z" />
					<path id="Layer" class="shp3" d="M357.3 117.2L371.1 139.3L356 119L357.3 117.2Z" />
				</g>
			</g>
		</g>
		<g id="Layer">
			<g id="Layer">
				<path id="Layer" class="shp1" d="M222.9 165.9C222.9 165.9 218.7 166.1 216.7 162.3C214.6 158.5 218.3 156.3 214.6 153.6C210.9 151 206.3 152.4 201.5 151.5C196.7 150.6 194.7 146.2 193.7 146.6C192.7 147 192.5 156 206.6 157.5C206.6 157.5 200.3 157.3 197.5 156.5C194.7 155.7 195.1 159.5 199.4 161.2C203.7 162.9 208.2 161.7 208.2 161.7C208.2 161.7 204.6 163.2 201.9 163.2C199.2 163.2 204.5 169.2 210.9 165C210.9 165 209.8 166.1 208.7 167.2C207.6 168.3 212.4 170.1 215.1 167C215.1 167 213.9 168.6 214 169.5C214.1 170.4 217.3 171.6 219.3 168.8C219.3 168.8 218.9 170.6 219.9 171C220.9 171.4 222.3 171.8 223.2 169.6C224.3 167.5 222.9 165.9 222.9 165.9Z" />
				<path id="Layer" class="shp1" d="M263.7 164.8C263.7 164.8 267.9 164.8 269.7 160.9C271.5 157 267.8 155 271.3 152.1C274.8 149.3 279.5 150.4 284.2 149.3C288.9 148.2 290.8 143.6 291.7 144C292.7 144.4 293.4 153.3 279.4 155.6C279.4 155.6 285.6 155.1 288.4 154.1C291.2 153.1 290.9 156.9 286.7 158.9C282.5 160.8 278 159.9 278 159.9C278 159.9 281.7 161.2 284.3 161.1C287 161 282.1 167.3 275.4 163.4C275.4 163.4 276.5 164.5 277.7 165.5C278.9 166.5 274.2 168.6 271.3 165.7C271.3 165.7 272.6 167.2 272.5 168.1C272.5 169 269.3 170.3 267.2 167.7C267.2 167.7 267.7 169.5 266.7 169.9C265.7 170.3 264.4 170.8 263.3 168.7C262.4 166.5 263.7 164.8 263.7 164.8Z" />
			</g>
			<g id="Layer">
				<path id="Layer" class="shp2" d="M221.32 158.08L264.81 156.92L265.55 184.81L222.07 185.97L221.32 158.08Z" />
				<path id="Layer" class="shp3" d="M243.6 175.5L222.6 159.4L243.7 178.6L263.6 158.3L243.6 175.5Z" />
				<g id="Layer">
					<path id="Layer" class="shp3" d="M234.8 169.8L223.4 184.9L235.6 171.2L234.8 169.8Z" />
					<path id="Layer" class="shp3" d="M252.1 169.4L264.3 183.8L251.3 170.8L252.1 169.4Z" />
				</g>
			</g>
		</g>
	</g>
</svg>