<svg version="1.2" baseProfile="tiny-ps" xmlns="http://www.w3.org/2000/svg" viewBox="0 0 1120 195" width="1120" height="195">
	<title>newsletters-svg</title>
	<style>
		tspan { white-space:pre }
		.shp0 { fill: none } 
		.shp1 { fill: #ffffff } 
		.shp2 { fill: #fdd247 } 
		.shp3 { fill: #efb73a } 
		.shp4 { fill: #1b536d } 
		.shp5 { fill: #e8b138 } 
	</style>
	<g id="Layer">
		<g id="Layer">
			<g id="Layer">
				<g id="Layer">
					<path id="Layer" class="shp0" d="M855.1 224L855.5 223.62L855.8 223.33L856.3 222.75C856.6 222.37 857 221.99 857.3 221.6C857.9 220.84 858.6 220.17 859.2 219.4C860.4 217.87 861.6 216.43 862.7 214.9C864.9 211.83 867 208.67 868.9 205.32L848.4 194.58C846.9 197.17 845.3 199.66 843.5 202.06C842.6 203.3 841.7 204.45 840.8 205.6C840.3 206.18 839.9 206.75 839.4 207.33L838.7 208.09L838.4 208.48L838.2 208.76L855.1 224Z" />
				</g>
				<path id="Layer" fill-rule="evenodd" class="shp1" d="M855.2 204.07L857.2 205.22C857.9 204.17 858.6 203.11 859.2 201.96L857.2 200.81C856.5 201.96 855.9 203.02 855.2 204.07Z" />
				<path id="Layer" fill-rule="evenodd" class="shp1" d="M851.3 209.53L853.2 210.87C854 209.82 854.7 208.86 855.5 207.81L853.6 206.56C852.8 207.52 852.1 208.48 851.3 209.53Z" />
				<path id="Layer" fill-rule="evenodd" class="shp1" d="M847.1 214.71L848.9 216.14C849.8 215.18 850.6 214.23 851.4 213.17L849.6 211.83C848.7 212.79 847.9 213.75 847.1 214.71Z" />
			</g>
			<g id="Layer">
				<g id="Layer">
					<path id="Layer" class="shp0" d="M868.9 205.32C870.8 201.96 872.5 198.61 874 194.97C875.5 191.42 876.7 187.68 877.6 183.76L854.9 178.77C853.6 184.04 851.4 189.41 848.5 194.58L868.9 205.32Z" />
				</g>
				<path id="Layer" fill-rule="evenodd" class="shp1" d="M864 186.06L866.2 186.73C866.4 186.15 866.6 185.48 866.8 184.91C867 184.33 867.2 183.66 867.3 183.09L865 182.51C864.8 183.09 864.7 183.66 864.5 184.33C864.4 184.91 864.2 185.48 864 186.06Z" />
				<path id="Layer" fill-rule="evenodd" class="shp1" d="M861.6 192.28L863.7 193.15C864 192.57 864.2 192 864.5 191.42C864.7 190.85 865 190.27 865.2 189.6L863 188.83C862.8 189.41 862.5 189.98 862.3 190.56C862.1 191.13 861.9 191.71 861.6 192.28Z" />
				<path id="Layer" class="shp1" d="M858.7 198.22L860.7 199.28L861.6 197.55L862.5 195.83L860.4 194.97L859.5 196.6L858.7 198.22Z" />
			</g>
			<g id="Layer">
				<g id="Layer">
					<path id="Layer" class="shp0" d="M877.6 183.76C877.8 182.8 878.1 181.84 878.2 180.79C878.3 180.31 878.4 179.83 878.5 179.35L878.7 177.82C878.9 176.86 879 175.71 879.1 174.65C879.2 174.17 879.2 173.5 879.2 173.02C879.2 172.45 879.3 171.87 879.2 171.3L879.2 169.58C879.2 169.29 879.2 169 879.2 168.71L879.1 167.85L879 166.99C879 166.7 878.9 166.41 878.9 166.13C878.8 165.55 878.7 164.88 878.6 164.31C878.6 164.11 878.5 164.02 878.5 163.83L878.4 163.35L878.2 162.39L877.9 161.43C877.8 161.14 877.7 160.76 877.6 160.47C877.4 159.8 877.2 159.23 876.9 158.56C876.6 157.98 876.3 157.31 876 156.74L855.1 166.6C855.2 166.8 855.2 166.89 855.3 167.08C855.4 167.28 855.4 167.37 855.5 167.56C855.5 167.66 855.6 167.75 855.6 167.85C855.6 167.95 855.6 168.04 855.7 168.14C855.7 168.23 855.7 168.33 855.8 168.43L855.8 168.52C855.8 168.62 855.8 168.62 855.8 168.71C855.8 168.9 855.9 169.1 855.9 169.29C855.9 169.38 855.9 169.48 855.9 169.67L855.9 170.05L855.9 170.44C855.9 170.53 855.9 170.72 855.9 170.82C855.9 171.11 855.9 171.3 855.9 171.59C855.9 171.87 855.9 172.16 855.9 172.45C855.9 172.74 855.9 173.02 855.9 173.31L855.8 174.17C855.8 174.37 855.8 174.46 855.8 174.65L855.7 175.13L855.6 176.09C855.5 176.38 855.5 176.76 855.4 177.05C855.3 177.72 855.1 178.39 855 179.06L877.6 183.76Z" />
				</g>
				<path id="Layer" fill-rule="evenodd" class="shp1" d="M866.3 166.7L868.6 166.32L868.5 165.84L868.4 165.36L868.1 164.4C868 164.11 867.9 163.73 867.8 163.44L867.5 162.48L865.3 163.35L865.6 164.21C865.7 164.5 865.8 164.78 865.9 165.07L866.1 165.93L866.2 166.41L866.3 166.7Z" />
				<path id="Layer" fill-rule="evenodd" class="shp1" d="M866.7 173.12L869 173.22C869 172.55 869.1 171.87 869.1 171.3C869.1 170.63 869.1 169.96 869 169.38L866.7 169.48C866.7 170.05 866.7 170.72 866.8 171.3C866.7 171.97 866.7 172.55 866.7 173.12Z" />
				<path id="Layer" fill-rule="evenodd" class="shp1" d="M865.8 179.64L868.1 180.12L868.5 178.2C868.6 177.53 868.7 176.95 868.8 176.28L866.5 175.99C866.4 176.57 866.3 177.24 866.2 177.82L865.8 179.64Z" />
			</g>
			<g id="Layer">
				<g id="Layer">
					<path id="Layer" class="shp0" d="M875.9 156.74C874.6 154.34 873 152.04 871.2 150.03C870.7 149.55 870.3 149.07 869.8 148.59C869.6 148.4 869.3 148.11 869.1 147.92L868.4 147.35L867.6 146.77C867.3 146.58 867.1 146.39 866.8 146.2C866.3 145.81 865.8 145.43 865.3 145.14C865.2 145.05 865 144.95 864.9 144.85L864.5 144.66L863.7 144.18C863.2 143.9 862.7 143.51 862.1 143.32L860.5 142.55L860.1 142.36L859.7 142.17L858.9 141.79C858.4 141.6 857.9 141.31 857.4 141.12L855.9 140.54L855.1 140.25C854.8 140.16 854.6 140.06 854.3 139.97L852.8 139.49L845.3 160.66L846.3 160.95C846.5 161.05 846.6 161.05 846.8 161.14L847.2 161.33L848.1 161.72C848.4 161.81 848.7 162.01 848.9 162.1L849.3 162.29L849.5 162.39L849.7 162.48L850.6 162.58C850.9 162.68 851.1 162.87 851.3 162.96L851.6 163.16L851.8 163.25C851.9 163.25 851.9 163.35 851.9 163.35C852.1 163.44 852.3 163.63 852.5 163.73C852.6 163.83 852.7 163.83 852.8 163.92L853 164.11L853.2 164.31C853.3 164.4 853.3 164.4 853.4 164.5C853.5 164.59 853.7 164.78 853.8 164.88C854.3 165.36 854.6 165.93 854.9 166.41L875.9 156.74Z" />
				</g>
				<path id="Layer" fill-rule="evenodd" class="shp1" d="M853.8 152.52L854.8 150.51C853.6 149.93 852.3 149.45 851.1 148.97L850.3 151.08C851.5 151.56 852.7 151.94 853.8 152.52Z" />
				<path id="Layer" fill-rule="evenodd" class="shp1" d="M859.6 155.97L861.1 154.24C860.8 154.05 860.6 153.86 860.3 153.67L859.5 153.09C859.2 152.9 858.9 152.71 858.6 152.52L857.7 152.04L856.5 153.96L857.3 154.44C857.6 154.63 857.8 154.72 858.1 154.91L858.9 155.49C859.1 155.59 859.4 155.68 859.6 155.97Z" />
				<path id="Layer" fill-rule="evenodd" class="shp1" d="M864 160.66L866 159.51C865.8 159.23 865.6 158.94 865.4 158.65L864.8 157.79C864.6 157.5 864.4 157.31 864.1 157.02C863.9 156.74 863.7 156.54 863.4 156.26L861.7 157.79C861.9 157.98 862.1 158.27 862.3 158.46C862.5 158.65 862.7 158.94 862.9 159.13L863.4 159.9C863.6 160.18 863.8 160.38 864 160.66Z" />
			</g>
			<g id="Layer">
				<g id="Layer">
					<path id="Layer" class="shp0" d="M852.9 139.3C848.9 137.96 845 137.09 841.2 136.42C837.4 135.75 833.7 135.18 830 134.79L827.2 157.02C830.4 157.41 833.6 157.89 836.7 158.46C839.8 159.04 842.7 159.71 845.3 160.57L852.9 139.3Z" />
				</g>
				<path id="Layer" fill-rule="evenodd" class="shp1" d="M833.9 147.25L834.3 145.05C833 144.85 831.7 144.66 830.4 144.57L830.1 146.77C831.4 146.96 832.6 147.06 833.9 147.25Z" />
				<path id="Layer" fill-rule="evenodd" class="shp1" d="M840.7 148.5L841.2 146.29L839.3 145.91C838.7 145.81 838 145.72 837.4 145.52L837 147.73C837.6 147.82 838.3 147.92 838.9 148.11L840.7 148.5Z" />
				<path id="Layer" fill-rule="evenodd" class="shp1" d="M847.4 150.12L848.1 148.02C846.8 147.63 845.6 147.35 844.3 146.96L843.7 149.17C844.9 149.45 846.2 149.74 847.4 150.12Z" />
			</g>
			<g id="Layer">
				<g id="Layer">
					<path id="Layer" class="shp0" d="M830 134.7C822.6 133.83 815.4 133.36 808.3 133.07L807.2 155.39C814 155.68 820.7 156.16 827.2 156.93L830 134.7Z" />
				</g>
				<path id="Layer" class="shp1" d="M813.2 145.33L813.3 143.03L811.3 142.94L809.4 142.84L809.3 145.14L811.2 145.24L813.2 145.33Z" />
				<path id="Layer" fill-rule="evenodd" class="shp1" d="M820.1 145.81L820.3 143.61C819 143.51 817.7 143.42 816.4 143.32L816.2 145.52C817.5 145.62 818.8 145.62 820.1 145.81Z" />
				<path id="Layer" fill-rule="evenodd" class="shp1" d="M827 146.39L827.3 144.18C826 143.99 824.7 143.9 823.4 143.8L823.2 146C824.4 146.2 825.7 146.29 827 146.39Z" />
			</g>
			<g id="Layer">
				<g id="Layer">
					<path id="Layer" class="shp0" d="M808.3 133.07L803.1 132.78C801.4 132.69 799.7 132.59 798 132.49C796.3 132.4 794.6 132.3 792.9 132.11C791.2 132.01 789.5 131.82 787.9 131.73L785.7 153.96C787.5 154.15 789.3 154.24 791.1 154.44C792.9 154.53 794.7 154.72 796.5 154.82C798.3 154.91 800.1 155.01 801.8 155.11L807.1 155.39L808.3 133.07Z" />
				</g>
				<path id="Layer" class="shp1" d="M792.2 144.18L792.4 141.88L788.5 141.6L788.3 143.8L792.2 144.18Z" />
				<path id="Layer" class="shp1" d="M799.2 144.57L799.3 142.36L795.5 142.17L795.3 144.37L799.2 144.57Z" />
				<path id="Layer" fill-rule="evenodd" class="shp1" d="M806.1 144.95L806.2 142.75C804.9 142.65 803.6 142.65 802.3 142.55L802.2 144.76C803.6 144.85 804.8 144.85 806.1 144.95Z" />
			</g>
			<g id="Layer">
				<g id="Layer">
					<path id="Layer" class="shp0" d="M788 131.82C784.7 131.54 781.4 131.15 778.2 130.77C775 130.29 771.9 129.81 769.1 129.04L763.3 150.7C767.2 151.66 771 152.33 774.8 152.81C778.5 153.38 782.2 153.77 785.8 154.05L788 131.82Z" />
				</g>
				<path id="Layer" fill-rule="evenodd" class="shp1" d="M771.3 141.69L771.7 139.49C771.1 139.39 771.3 139.3 770.7 139.2L768.9 138.91L768 138.72L767.5 140.93L768.5 141.12L769.5 141.31C770.1 141.5 770.7 141.6 771.3 141.69Z" />
				<path id="Layer" class="shp1" d="M778.3 142.75L778.6 140.54L776.7 140.35L774.8 140.06L774.4 142.27L777.2 142.65L778.3 142.75Z" />
				<path id="Layer" fill-rule="evenodd" class="shp1" d="M785.2 143.61L785.4 141.4C784.1 141.31 782.8 141.12 781.6 141.02L781.3 143.23C782.6 143.32 783.9 143.42 785.2 143.61Z" />
			</g>
			<g id="Layer">
				<g id="Layer">
					<path id="Layer" class="shp0" d="M769.1 129.04C767.7 128.66 766.3 128.28 765.2 127.89L764.7 127.7L764.5 127.61L764.3 127.51L763.5 127.22C763.4 127.13 763.2 127.13 763.1 127.03L762.7 126.84L762.3 126.65C762.2 126.55 762.1 126.55 762 126.46L761.7 126.27C761.6 126.17 761.5 126.17 761.4 126.07C761.2 125.98 761.1 125.88 760.9 125.79C760.8 125.69 760.6 125.59 760.5 125.5C760.5 125.5 760.4 125.5 760.4 125.4L760.3 125.31L760.2 125.21C759.8 124.92 759.7 124.73 759.6 124.54L738.5 134.12C738.7 134.51 738.9 134.79 739 135.18C739.2 135.56 739.4 135.85 739.6 136.23C739.8 136.61 740 136.9 740.2 137.19C740.4 137.48 740.7 137.86 740.9 138.15C741.1 138.43 741.4 138.72 741.6 139.1C741.8 139.39 742.1 139.68 742.4 139.97C742.9 140.54 743.5 141.12 744 141.5L744.8 142.17L745.2 142.55C745.3 142.65 745.5 142.75 745.6 142.84C746.2 143.23 746.7 143.7 747.3 144.09C747.9 144.47 748.4 144.76 749 145.14C749.3 145.33 749.6 145.43 749.8 145.62L750.6 146.1C750.9 146.29 751.2 146.39 751.4 146.58L752.2 146.96L753 147.35C753.3 147.44 753.5 147.63 753.8 147.73L755.4 148.4L755.8 148.59L756.2 148.69L757 148.97C759.1 149.74 761.1 150.22 763.1 150.79L769.1 129.04Z" />
				</g>
				<path id="Layer" fill-rule="evenodd" class="shp1" d="M752.6 134.22L753.3 132.49C752.8 132.11 752.5 131.73 752.1 131.25C751.9 131.06 751.7 130.77 751.6 130.58L751.3 130.29C751.2 130.19 751.2 130.1 751.1 129.91L749.1 131.06C749.2 131.15 749.3 131.34 749.4 131.44L749.7 131.82C749.9 132.11 750.1 132.4 750.3 132.59C750.7 133.26 752.1 133.83 752.6 134.22Z" />
				<path id="Layer" fill-rule="evenodd" class="shp1" d="M757.8 137.86L758.8 135.85C758.2 135.56 758.6 135.46 758 135.18L756.3 134.7C756 134.51 755.8 134.41 755.5 134.22L754.2 136.13C754.5 136.33 754.8 136.52 755 136.61L755.9 137.09C756.6 137.38 757.2 137.67 757.8 137.86Z" />
				<path id="Layer" fill-rule="evenodd" class="shp1" d="M764.4 140.16L765 138.05C764.4 137.86 763.8 137.67 763.2 137.57C762.6 137.38 762 137.19 761.4 137L760.6 139.1C761.2 139.3 762.7 139.58 763.4 139.78C764.1 139.87 763.8 140.06 764.4 140.16Z" />
			</g>
			<g id="Layer">
				<g id="Layer">
					<path id="Layer" class="shp0" d="M759.5 124.64C759.4 124.44 759.3 124.16 759.2 123.58C759.2 123.39 759.2 123.29 759.2 123.1C759.2 122.91 759.2 122.72 759.2 122.53C759.2 122.53 759.2 122.43 759.2 122.34L759.2 122.15L759.2 121.76L759.2 121.57L759.2 121.47L759.2 121.38C759.2 121.28 759.2 121.19 759.2 121.09C759.3 120.8 759.3 120.52 759.4 120.32C759.5 120.13 759.5 120.04 759.5 120.13L759.5 120.13L746.1 101.83C743.2 103.75 740.8 106.34 739.1 109.21C738.9 109.59 738.7 109.98 738.5 110.36C738.3 110.74 738.1 111.13 738 111.51C737.8 111.89 737.7 112.28 737.6 112.56C737.5 112.95 737.3 113.33 737.2 113.62C736.7 115.05 736.4 116.4 736.2 117.74L736.1 118.7L736.1 118.98L736.1 119.17L736.1 119.65L736 120.61L736 121.09C736 121.28 736 121.38 736 121.57C736 122.24 736 122.82 736 123.49C736 124.16 736.1 124.83 736.1 125.5L736.1 125.98L736.2 126.55L736.4 127.61C736.5 128.28 736.7 129.04 736.9 129.81C737 130.19 737.1 130.58 737.2 130.86C737.3 131.25 737.5 131.63 737.6 131.92C737.7 132.3 737.9 132.69 738 132.97C738.2 133.36 738.3 133.64 738.5 134.03L759.5 124.64Z" />
				</g>
				<path id="Layer" fill-rule="evenodd" class="shp1" d="M748.6 114.67L750.7 115.73C751.2 114.77 752.8 114 753.6 113.23L751.1 111.51C750.1 112.47 749.3 113.52 748.6 114.67Z" />
				<path id="Layer" fill-rule="evenodd" class="shp1" d="M746.8 121.38L749.1 121.57C749.2 120.13 749.3 119.46 749.6 118.22L747.3 117.64C747.1 118.89 746.9 120.13 746.8 121.38Z" />
				<path id="Layer" fill-rule="evenodd" class="shp1" d="M747.6 128.28L749.8 127.51L749.7 127.13L749.6 126.74C749.5 126.46 749.5 126.17 749.4 125.98L749.3 125.12C749.3 125.02 749.2 124.83 749.2 124.73L749.2 124.35L746.9 124.54L746.9 125.02C746.9 125.21 746.9 125.31 747 125.5L748 126.55C748.1 126.84 747.3 127.13 747.3 127.42L747.4 127.89L747.6 128.28Z" />
			</g>
			<g id="Layer">
				<g id="Layer">
					<path id="Layer" class="shp0" d="M759.6 120.32L759.6 120.32C759.6 120.32 759.7 120.32 759.6 120.32C759.6 120.32 759.7 120.32 759.7 120.23L759.7 120.23C759.7 120.23 759.7 120.23 759.8 120.23C760 120.13 760.2 120.04 760.6 119.94C760.9 119.85 761.3 119.75 761.8 119.75C762.3 119.65 762.8 119.65 763.4 119.65C764.5 119.65 765.8 119.65 767.2 119.75C768.6 119.85 770 120.04 771.5 120.23L775.1 98.19C773.1 97.9 771.1 97.62 769 97.52C766.9 97.33 764.7 97.33 762.3 97.42C761.1 97.52 759.9 97.62 758.7 97.71C757.4 97.9 756.1 98.09 754.8 98.48C753.5 98.77 752 99.24 750.6 99.82L750.1 100.01L749.6 100.3C749.2 100.49 748.9 100.59 748.5 100.87C748.1 101.07 747.8 101.26 747.4 101.45C747 101.64 746.7 101.93 746.3 102.12L759.6 120.32Z" />
				</g>
				<path id="Layer" fill-rule="evenodd" class="shp1" d="M768 107.77L767.8 109.98C770 110.17 771.2 110.36 771.6 110.36L771.9 108.16C770.6 108.06 769.3 107.87 768 107.77Z" />
				<path id="Layer" fill-rule="evenodd" class="shp1" d="M760.9 107.87L761.2 110.07C762.4 109.98 763.7 109.88 764.9 109.88L765.8 107.77C764.4 107.77 762.2 107.68 760.9 107.87Z" />
				<path id="Layer" fill-rule="evenodd" class="shp1" d="M753.9 109.69L755 111.7C756 111.22 757.1 110.84 758.3 110.55L757.7 108.35C757.2 108.44 755.9 108.73 753.9 109.69Z" />
			</g>
			<g id="Layer">
				<g id="Layer">
					<path id="Layer" class="shp0" d="M771.5 120.23C774.5 120.71 777.6 121.38 780.8 122.05C784 122.82 787.2 123.68 790.6 124.54L796.9 102.98C793.5 102.12 790 101.16 786.5 100.3C782.9 99.44 779.2 98.67 775.3 98.09L771.5 120.23Z" />
				</g>
				<path id="Layer" class="shp1" d="M788.7 111.7L789 113.9L792.7 114.96L792.4 112.66L788.7 111.7Z" />
				<path id="Layer" fill-rule="evenodd" class="shp1" d="M782.8 110.17L781.4 112.28C782.7 112.56 783.9 112.85 785.1 113.14L785.7 110.93C784.4 110.65 784 110.46 782.8 110.17Z" />
				<path id="Layer" fill-rule="evenodd" class="shp1" d="M775 108.63L775.5 110.93C776.8 111.13 777.1 111.32 778.4 111.61L778.9 109.4C777.6 109.11 776.3 108.92 775 108.63Z" />
			</g>
			<g id="Layer">
				<g id="Layer">
					<path id="Layer" class="shp0" d="M790.6 124.64L795.7 125.98L796.4 126.17L796.7 126.27L797.2 126.36C797.9 126.55 798.5 126.65 799.2 126.74C799.9 126.84 800.6 126.94 801.3 127.03C802 127.13 802.7 127.13 803.4 127.22C806.2 127.32 809.2 127.13 812 126.36C814.8 125.69 817.5 124.54 819.8 123.2L807.9 103.94C807.2 104.32 806.7 104.51 806.1 104.71C805.5 104.8 805 104.9 804.4 104.9C804.1 104.9 803.7 104.8 803.4 104.8C803.2 104.71 803 104.71 802.8 104.71L802.7 104.71L802.4 104.61L801.8 104.42L796.8 103.08L790.6 124.64Z" />
				</g>
				<path id="Layer" fill-rule="evenodd" class="shp1" d="M808.7 114.86L809.3 117.07C809.6 116.97 810 116.88 810.3 116.78C810.6 116.68 811.9 116.68 812.2 116.59L812.3 116.11C812.6 116.01 812.9 115.82 813.3 115.73L812.3 113.71C812 113.81 811.7 114 811.5 114.1L810.6 114.38C810.3 114.48 810 114.58 809.7 114.67C809.3 114.67 809 114.77 808.7 114.86Z" />
				<path id="Layer" fill-rule="evenodd" class="shp1" d="M802.1 115.05L801.8 117.26L802.8 117.35C803.1 117.35 803.5 117.35 803.8 117.45L804.3 117.45L804.6 117.45L804.9 117.45L806 117.45L805.9 115.25L805 115.25L804.8 115.25L805.5 115.34L804.1 115.25C803.8 115.25 803.5 115.25 803.2 115.15L802.1 115.05Z" />
				<path id="Layer" class="shp1" d="M795.4 113.52L795.7 115.73L799.5 116.68L799.2 114.48L795.4 113.52Z" />
			</g>
			<g id="Layer">
				<g id="Layer">
					<path id="Layer" class="shp0" d="M819.8 123.29C822.2 121.95 824.2 120.42 826 118.79C827.8 117.16 829.4 115.44 830.8 113.62C832.2 111.89 833.4 110.07 834.5 108.16C835 107.2 835.6 106.24 836.1 105.28C836.2 104.99 836.3 104.8 836.5 104.51C836.6 104.23 836.7 104.04 836.9 103.75C837 103.46 837.1 103.27 837.3 102.98L837.5 102.6L837.6 102.31L837.7 101.93L815.8 94.17L815.8 94.07L815.8 94.07L815.8 94.07L815.7 94.26L815.5 94.65C815.4 94.74 815.4 94.93 815.3 95.03C815.2 95.12 815.2 95.32 815.1 95.41C814.8 95.99 814.5 96.47 814.2 97.04C813.6 98.09 812.9 99.15 812.2 100.01C810.8 101.83 809.2 103.17 807.9 103.94L819.8 123.29Z" />
				</g>
				<path id="Layer" fill-rule="evenodd" class="shp1" d="M819.7 107.77L821.5 109.21C822.4 108.25 823.2 107.2 823.9 106.14L822 104.9C821.3 105.76 820.9 106.43 819.7 107.77Z" />
				<path id="Layer" fill-rule="evenodd" class="shp1" d="M814.8 112.18L816.1 114C817.2 113.23 818.3 112.37 819.3 111.51L817.7 109.88C817 110.55 816.4 111.03 814.8 112.18Z" />
			</g>
		</g>
		<g id="Layer">
			<path id="Layer" class="shp2" d="M815.4 84.39L821.9 91.48L862.3 80.18L815.4 84.39Z" />
			<path id="Layer" class="shp3" d="M823.7 106.24L821.9 91.39L862.3 80.18L827.9 97.62L823.7 106.24Z" />
			<path id="Layer" class="shp2" d="M838.8 108.25L827.9 97.62L862.3 80.18L838.8 108.25Z" />
		</g>
	</g>
	<g id="Layer">
		<path id="Layer" class="shp4" d="M1008.74 169.77L1008.74 169.77C1008.74 169.38 1008.74 169 1008.74 168.52C1008.74 162.58 1013.74 157.79 1019.94 157.79C1022.74 157.79 1025.34 158.84 1027.34 160.47C1028.94 158.08 1031.44 156.26 1034.34 155.39C1036.94 148.59 1043.74 143.7 1051.84 143.7C1062.14 143.7 1070.44 151.66 1070.44 161.53C1070.44 161.81 1070.44 162.1 1070.44 162.48C1072.24 160.95 1074.54 159.99 1077.14 159.99C1077.54 159.99 1077.84 159.99 1078.24 160.09C1080.44 155.11 1085.54 151.66 1091.54 151.66C1099.54 151.66 1105.94 157.89 1105.94 165.45C1105.94 166.99 1105.64 168.52 1105.14 169.86C1107.44 170.34 1109.14 172.26 1109.14 174.56C1109.14 177.14 1106.94 179.35 1104.14 179.35L1008.84 179.35C1006.14 179.35 1003.84 177.24 1003.84 174.56C1003.74 171.87 1005.94 169.77 1008.74 169.77Z" />
		<g id="Layer">
			<g id="Layer">
				<path id="Layer" class="shp1" d="M1000.24 87.17C1000.24 87.17 1010.64 89.28 1017.44 81.04C1024.24 72.7 1016.04 65.8 1026.34 60.92C1036.64 56.03 1047.74 61.4 1060.14 61.2C1072.54 60.92 1079.64 51.14 1081.94 52.49C1084.24 53.92 1080.94 75.67 1044.94 73.57C1044.94 73.57 1060.74 75.67 1068.14 74.91C1075.54 74.14 1072.94 83.05 1061.24 85.35C1049.54 87.65 1038.94 82.96 1038.94 82.96C1038.94 82.96 1047.34 88.13 1054.04 89.18C1060.74 90.33 1044.94 102.69 1030.54 89.95C1030.54 89.95 1032.74 93.11 1035.14 96.18C1037.54 99.24 1024.64 101.64 1019.04 93.11C1019.04 93.11 1021.34 97.42 1020.74 99.63C1020.14 101.74 1011.54 103.17 1007.84 95.8C1007.84 95.8 1008.14 100.3 1005.44 100.78C1002.74 101.26 999.14 101.64 997.64 95.99C996.04 90.43 1000.24 87.17 1000.24 87.17Z" />
				<path id="Layer" class="shp1" d="M898.04 67.82C898.04 67.82 887.54 66 884.64 55.84C881.64 45.68 892.04 42.33 884.44 34.09C876.84 25.85 864.44 26.71 853.04 22.01C841.64 17.22 839.04 5.53 836.34 6.01C833.64 6.49 828.04 27.76 862.24 38.97C862.24 38.97 846.74 35.14 840.24 31.79C833.64 28.34 832.64 37.63 842.44 43.96C852.34 50.38 864.04 49.8 864.04 49.8C864.04 49.8 854.24 51.53 847.64 50.09C841.04 48.65 850.64 65.9 869.14 59.38C869.14 59.38 865.84 61.49 862.34 63.41C858.94 65.32 869.84 72.22 878.44 66.47C878.44 66.47 874.54 69.64 874.24 71.84C873.94 74.04 881.34 78.55 887.74 72.99C887.74 72.99 885.64 77.11 887.94 78.45C890.24 79.89 893.44 81.52 897.04 76.92C900.64 72.32 898.04 67.82 898.04 67.82Z" />
			</g>
			<g id="Layer">
				<path id="Layer" class="shp2" d="M1007.51 68.9L898.62 48.27L884.79 115.29L993.68 135.92L1007.51 68.9Z" />
				<path id="Layer" class="shp5" d="M944.14 101.83L1003.74 71.55L942.64 109.31L901.04 52.1L944.14 101.83Z" />
				<g id="Layer">
					<path id="Layer" class="shp5" d="M968.74 91.77L990.94 132.69L966.14 94.65L968.74 91.77Z" />
					<path id="Layer" class="shp5" d="M925.34 83.53L888.64 113.33L926.64 87.17L925.34 83.53Z" />
				</g>
			</g>
		</g>
		<g id="Layer">
			<g id="Layer">
				<path id="Layer" class="shp1" d="M892.34 157.69C892.34 157.69 896.54 157.89 898.54 154.24C900.64 150.6 896.94 148.5 900.64 145.91C904.34 143.42 908.94 144.76 913.74 143.9C918.54 143.03 920.54 138.82 921.54 139.2C922.54 139.58 922.74 148.21 908.64 149.64C908.64 149.64 914.94 149.45 917.74 148.69C920.54 147.92 920.14 151.56 915.84 153.19C911.54 154.82 907.04 153.67 907.04 153.67C907.04 153.67 910.64 155.11 913.34 155.11C916.04 155.11 910.74 160.86 904.34 156.83C904.34 156.83 905.44 157.89 906.54 158.94C907.64 159.99 902.84 161.72 900.14 158.75C900.14 158.75 901.34 160.28 901.24 161.14C901.14 162.01 897.94 163.16 895.94 160.47C895.94 160.47 896.34 162.2 895.34 162.58C894.34 162.96 892.94 163.35 892.04 161.24C890.94 159.23 892.34 157.69 892.34 157.69Z" />
				<path id="Layer" class="shp1" d="M851.54 156.64C851.54 156.64 847.34 156.64 845.54 152.9C843.74 149.17 847.44 147.25 843.94 144.47C840.44 141.79 835.74 142.84 831.04 141.79C826.34 140.73 824.44 136.33 823.54 136.71C822.54 137.09 821.84 145.62 835.84 147.82C835.84 147.82 829.64 147.35 826.84 146.39C824.04 145.43 824.34 149.07 828.54 150.99C832.74 152.81 837.24 151.94 837.24 151.94C837.24 151.94 833.54 153.19 830.94 153.09C828.24 153 833.14 159.04 839.84 155.3C839.84 155.3 838.74 156.35 837.54 157.31C836.34 158.27 841.04 160.28 843.94 157.5C843.94 157.5 842.64 158.94 842.74 159.8C842.74 160.66 845.94 161.91 848.04 159.42C848.04 159.42 847.54 161.14 848.54 161.53C849.54 161.91 850.84 162.39 851.94 160.38C852.84 158.27 851.54 156.64 851.54 156.64Z" />
			</g>
			<g id="Layer">
				<path id="Layer" class="shp2" d="M893.92 150.2L850.44 149.09L849.69 175.81L893.17 176.93L893.92 150.2Z" />
				<path id="Layer" class="shp5" d="M871.64 166.89L892.64 151.47L871.54 169.86L851.64 150.41L871.64 166.89Z" />
				<g id="Layer">
					<path id="Layer" class="shp5" d="M880.44 161.43L891.84 175.9L879.64 162.77L880.44 161.43Z" />
					<path id="Layer" class="shp5" d="M863.14 161.05L850.94 174.85L863.94 162.39L863.14 161.05Z" />
				</g>
			</g>
		</g>
	</g>
	<g id="Layer copy 89">
		<g id="Layer">
			<g id="Layer">
				<g id="Layer">
					<path id="Layer" class="shp0" d="M260.14 235.1L259.74 234.7L259.44 234.4L258.94 233.8C258.64 233.4 258.24 233 257.94 232.6C257.34 231.8 256.64 231.1 256.04 230.3C254.84 228.7 253.64 227.2 252.54 225.6C250.34 222.4 248.24 219.1 246.34 215.6L266.84 204.4C268.34 207.1 269.94 209.7 271.74 212.2C272.64 213.5 273.54 214.7 274.44 215.9C274.94 216.5 275.34 217.1 275.84 217.7L276.54 218.5L276.84 218.9L277.04 219.2L260.14 235.1Z" />
				</g>
				<path id="Layer" fill-rule="evenodd" class="shp1" d="M260.04 214.3L258.04 215.5C257.34 214.4 256.64 213.3 256.04 212.1L258.04 210.9C258.74 212.1 259.34 213.2 260.04 214.3Z" />
				<path id="Layer" fill-rule="evenodd" class="shp1" d="M263.94 220L262.04 221.4C261.24 220.3 260.54 219.3 259.74 218.2L261.64 216.9C262.44 217.9 263.14 218.9 263.94 220Z" />
				<path id="Layer" fill-rule="evenodd" class="shp1" d="M268.14 225.4L266.34 226.9C265.44 225.9 264.64 224.9 263.84 223.8L265.64 222.4C266.54 223.4 267.34 224.4 268.14 225.4Z" />
			</g>
			<g id="Layer">
				<g id="Layer">
					<path id="Layer" class="shp0" d="M246.34 215.6C244.44 212.1 242.74 208.6 241.24 204.8C239.74 201.1 238.54 197.2 237.64 193.1L260.34 187.9C261.64 193.4 263.84 199 266.74 204.4L246.34 215.6Z" />
				</g>
				<path id="Layer" fill-rule="evenodd" class="shp1" d="M251.24 195.5L249.04 196.2C248.84 195.6 248.64 194.9 248.44 194.3C248.24 193.7 248.04 193 247.94 192.4L250.24 191.8C250.44 192.4 250.54 193 250.74 193.7C250.84 194.3 251.04 194.9 251.24 195.5Z" />
				<path id="Layer" fill-rule="evenodd" class="shp1" d="M253.64 202L251.54 202.9C251.24 202.3 251.04 201.7 250.74 201.1C250.54 200.5 250.24 199.9 250.04 199.2L252.24 198.4C252.44 199 252.74 199.6 252.94 200.2C253.14 200.8 253.34 201.4 253.64 202Z" />
				<path id="Layer" class="shp1" d="M256.54 208.2L254.54 209.3L253.64 207.5L252.74 205.7L254.84 204.8L255.74 206.5L256.54 208.2Z" />
			</g>
			<g id="Layer">
				<g id="Layer">
					<path id="Layer" class="shp0" d="M237.64 193.1C237.44 192.1 237.14 191.1 237.04 190C236.94 189.5 236.84 189 236.74 188.5L236.54 186.9C236.34 185.9 236.24 184.7 236.14 183.6C236.04 183.1 236.04 182.4 236.04 181.9C236.04 181.3 235.94 180.7 236.04 180.1L236.04 178.3C236.04 178 236.04 177.7 236.04 177.4L236.14 176.5L236.24 175.6C236.24 175.3 236.34 175 236.34 174.7C236.44 174.1 236.54 173.4 236.64 172.8C236.64 172.6 236.74 172.5 236.74 172.3L236.84 171.8L237.04 170.8L237.34 169.8C237.44 169.5 237.54 169.1 237.64 168.8C237.84 168.1 238.04 167.5 238.34 166.8C238.64 166.2 238.94 165.5 239.24 164.9L260.14 175.2C260.04 175.4 260.04 175.5 259.94 175.7C259.84 175.9 259.84 176 259.74 176.2C259.74 176.3 259.64 176.4 259.64 176.5C259.64 176.6 259.64 176.7 259.54 176.8C259.54 176.9 259.54 177 259.44 177.1L259.44 177.2C259.44 177.3 259.44 177.3 259.44 177.4C259.44 177.6 259.34 177.8 259.34 178C259.34 178.1 259.34 178.2 259.34 178.4L259.34 178.8L259.34 179.2C259.34 179.3 259.34 179.5 259.34 179.6C259.34 179.9 259.34 180.1 259.34 180.4C259.34 180.7 259.34 181 259.34 181.3C259.34 181.6 259.34 181.9 259.34 182.2L259.44 183.1C259.44 183.3 259.44 183.4 259.44 183.6L259.54 184.1L259.64 185.1C259.74 185.4 259.74 185.8 259.84 186.1C259.94 186.8 260.14 187.5 260.24 188.2L237.64 193.1Z" />
				</g>
				<path id="Layer" fill-rule="evenodd" class="shp1" d="M248.94 175.3L246.64 174.9L246.74 174.4L246.84 173.9L247.14 172.9C247.24 172.6 247.34 172.2 247.44 171.9L247.74 170.9L249.94 171.8L249.64 172.7C249.54 173 249.44 173.3 249.34 173.6L249.14 174.5L249.04 175L248.94 175.3Z" />
				<path id="Layer" fill-rule="evenodd" class="shp1" d="M248.54 182L246.24 182.1C246.24 181.4 246.14 180.7 246.14 180.1C246.14 179.4 246.14 178.7 246.24 178.1L248.54 178.2C248.54 178.8 248.54 179.5 248.44 180.1C248.54 180.8 248.54 181.4 248.54 182Z" />
				<path id="Layer" fill-rule="evenodd" class="shp1" d="M249.44 188.8L247.14 189.3L246.74 187.3C246.64 186.6 246.54 186 246.44 185.3L248.74 185C248.84 185.6 248.94 186.3 249.04 186.9L249.44 188.8Z" />
			</g>
			<g id="Layer">
				<g id="Layer">
					<path id="Layer" class="shp0" d="M239.34 164.9C240.64 162.4 242.24 160 244.04 157.9C244.54 157.4 244.94 156.9 245.44 156.4C245.64 156.2 245.94 155.9 246.14 155.7L246.84 155.1L247.64 154.5C247.94 154.3 248.14 154.1 248.44 153.9C248.94 153.5 249.44 153.1 249.94 152.8C250.04 152.7 250.24 152.6 250.34 152.5L250.74 152.3L251.54 151.8C252.04 151.5 252.54 151.1 253.14 150.9L254.74 150.1L255.14 149.9L255.54 149.7L256.34 149.3C256.84 149.1 257.34 148.8 257.84 148.6L259.34 148L260.14 147.7C260.44 147.6 260.64 147.5 260.94 147.4L262.44 146.9L269.94 169L268.94 169.3C268.74 169.4 268.64 169.4 268.44 169.5L268.04 169.7L267.14 170.1C266.84 170.2 266.54 170.4 266.34 170.5L265.94 170.7L265.74 170.8L265.54 170.9L264.64 171C264.34 171.1 264.14 171.3 263.94 171.4L263.64 171.6L263.44 171.7C263.34 171.7 263.34 171.8 263.34 171.8C263.14 171.9 262.94 172.1 262.74 172.2C262.64 172.3 262.54 172.3 262.44 172.4L262.24 172.6L262.04 172.8C261.94 172.9 261.94 172.9 261.84 173C261.74 173.1 261.54 173.3 261.44 173.4C260.94 173.9 260.64 174.5 260.34 175L239.34 164.9Z" />
				</g>
				<path id="Layer" fill-rule="evenodd" class="shp1" d="M261.44 160.5L260.44 158.4C261.64 157.8 262.94 157.3 264.14 156.8L264.94 159C263.74 159.5 262.54 159.9 261.44 160.5Z" />
				<path id="Layer" fill-rule="evenodd" class="shp1" d="M255.64 164.1L254.14 162.3C254.44 162.1 254.64 161.9 254.94 161.7L255.74 161.1C256.04 160.9 256.34 160.7 256.64 160.5L257.54 160L258.74 162L257.94 162.5C257.64 162.7 257.44 162.8 257.14 163L256.34 163.6C256.14 163.7 255.84 163.8 255.64 164.1Z" />
				<path id="Layer" fill-rule="evenodd" class="shp1" d="M251.24 169L249.24 167.8C249.44 167.5 249.64 167.2 249.84 166.9L250.44 166C250.64 165.7 250.84 165.5 251.14 165.2C251.34 164.9 251.54 164.7 251.84 164.4L253.54 166C253.34 166.2 253.14 166.5 252.94 166.7C252.74 166.9 252.54 167.2 252.34 167.4L251.84 168.2C251.64 168.5 251.44 168.7 251.24 169Z" />
			</g>
			<g id="Layer">
				<g id="Layer">
					<path id="Layer" class="shp0" d="M262.34 146.7C266.34 145.3 270.24 144.4 274.04 143.7C277.84 143 281.54 142.4 285.24 142L288.04 165.2C284.84 165.6 281.64 166.1 278.54 166.7C275.44 167.3 272.54 168 269.94 168.9L262.34 146.7Z" />
				</g>
				<path id="Layer" fill-rule="evenodd" class="shp1" d="M281.34 155L280.94 152.7C282.24 152.5 283.54 152.3 284.84 152.2L285.14 154.5C283.84 154.7 282.64 154.8 281.34 155Z" />
				<path id="Layer" fill-rule="evenodd" class="shp1" d="M274.54 156.3L274.04 154L275.94 153.6C276.54 153.5 277.24 153.4 277.84 153.2L278.24 155.5C277.64 155.6 276.94 155.7 276.34 155.9L274.54 156.3Z" />
				<path id="Layer" fill-rule="evenodd" class="shp1" d="M267.84 158L267.14 155.8C268.44 155.4 269.64 155.1 270.94 154.7L271.54 157C270.34 157.3 269.04 157.6 267.84 158Z" />
			</g>
			<g id="Layer">
				<g id="Layer">
					<path id="Layer" class="shp0" d="M285.24 141.9C292.64 141 299.84 140.5 306.94 140.2L308.04 163.5C301.24 163.8 294.54 164.3 288.04 165.1L285.24 141.9Z" />
				</g>
				<path id="Layer" class="shp1" d="M302.04 153L301.94 150.6L303.94 150.5L305.84 150.4L305.94 152.8L304.04 152.9L302.04 153Z" />
				<path id="Layer" fill-rule="evenodd" class="shp1" d="M295.14 153.5L294.94 151.2C296.24 151.1 297.54 151 298.84 150.9L299.04 153.2C297.74 153.3 296.44 153.3 295.14 153.5Z" />
				<path id="Layer" fill-rule="evenodd" class="shp1" d="M288.24 154.1L287.94 151.8C289.24 151.6 290.54 151.5 291.84 151.4L292.04 153.7C290.84 153.9 289.54 154 288.24 154.1Z" />
			</g>
			<g id="Layer">
				<g id="Layer">
					<path id="Layer" class="shp0" d="M306.94 140.2L312.14 139.9C313.84 139.8 315.54 139.7 317.24 139.6C318.94 139.5 320.64 139.4 322.34 139.2C324.04 139.1 325.74 138.9 327.34 138.8L329.54 162C327.74 162.2 325.94 162.3 324.14 162.5C322.34 162.6 320.54 162.8 318.74 162.9C316.94 163 315.14 163.1 313.44 163.2L308.14 163.5L306.94 140.2Z" />
				</g>
				<path id="Layer" class="shp1" d="M323.04 151.8L322.84 149.4L326.74 149.1L326.94 151.4L323.04 151.8Z" />
				<path id="Layer" class="shp1" d="M316.04 152.2L315.94 149.9L319.74 149.7L319.94 152L316.04 152.2Z" />
				<path id="Layer" fill-rule="evenodd" class="shp1" d="M309.14 152.6L309.04 150.3C310.34 150.2 311.64 150.2 312.94 150.1L313.04 152.4C311.64 152.5 310.44 152.5 309.14 152.6Z" />
			</g>
			<g id="Layer">
				<g id="Layer">
					<path id="Layer" class="shp0" d="M327.24 138.9C330.54 138.6 333.84 138.2 337.04 137.8C340.24 137.3 343.34 136.8 346.14 136L351.94 158.6C348.04 159.6 344.24 160.3 340.44 160.8C336.74 161.4 333.04 161.8 329.44 162.1L327.24 138.9Z" />
				</g>
				<path id="Layer" fill-rule="evenodd" class="shp1" d="M343.94 149.2L343.54 146.9C344.14 146.8 343.94 146.7 344.54 146.6L346.34 146.3L347.24 146.1L347.74 148.4L346.74 148.6L345.74 148.8C345.14 149 344.54 149.1 343.94 149.2Z" />
				<path id="Layer" class="shp1" d="M336.94 150.3L336.64 148L338.54 147.8L340.44 147.5L340.84 149.8L338.04 150.2L336.94 150.3Z" />
				<path id="Layer" fill-rule="evenodd" class="shp1" d="M330.04 151.2L329.84 148.9C331.14 148.8 332.44 148.6 333.64 148.5L333.94 150.8C332.64 150.9 331.34 151 330.04 151.2Z" />
			</g>
			<g id="Layer">
				<g id="Layer">
					<path id="Layer" class="shp0" d="M346.14 136C347.54 135.6 348.94 135.2 350.04 134.8L350.54 134.6L350.74 134.5L350.94 134.4L351.74 134.1C351.84 134 352.04 134 352.14 133.9L352.54 133.7L352.94 133.5C353.04 133.4 353.14 133.4 353.24 133.3L353.54 133.1C353.64 133 353.74 133 353.84 132.9C354.04 132.8 354.14 132.7 354.34 132.6C354.44 132.5 354.64 132.4 354.74 132.3C354.74 132.3 354.84 132.3 354.84 132.2L354.94 132.1L355.04 132C355.44 131.7 355.54 131.5 355.64 131.3L376.74 141.3C376.54 141.7 376.34 142 376.24 142.4C376.04 142.8 375.84 143.1 375.64 143.5C375.44 143.9 375.24 144.2 375.04 144.5C374.84 144.8 374.54 145.2 374.34 145.5C374.14 145.8 373.84 146.1 373.64 146.5C373.44 146.8 373.14 147.1 372.84 147.4C372.34 148 371.74 148.6 371.24 149L370.44 149.7L370.04 150.1C369.94 150.2 369.74 150.3 369.64 150.4C369.04 150.8 368.54 151.3 367.94 151.7C367.34 152.1 366.84 152.4 366.24 152.8C365.94 153 365.64 153.1 365.44 153.3L364.64 153.8C364.34 154 364.04 154.1 363.84 154.3L363.04 154.7L362.24 155.1C361.94 155.2 361.74 155.4 361.44 155.5L359.84 156.2L359.44 156.4L359.04 156.5L358.24 156.8C356.14 157.6 354.14 158.1 352.14 158.7L346.14 136Z" />
				</g>
				<path id="Layer" fill-rule="evenodd" class="shp1" d="M362.64 141.4L361.94 139.6C362.44 139.2 362.74 138.8 363.14 138.3C363.34 138.1 363.54 137.8 363.64 137.6L363.94 137.3C364.04 137.2 364.04 137.1 364.14 136.9L366.14 138.1C366.04 138.2 365.94 138.4 365.84 138.5L365.54 138.9C365.34 139.2 365.14 139.5 364.94 139.7C364.54 140.4 363.14 141 362.64 141.4Z" />
				<path id="Layer" fill-rule="evenodd" class="shp1" d="M357.44 145.2L356.44 143.1C357.04 142.8 356.64 142.7 357.24 142.4L358.94 141.9C359.24 141.7 359.44 141.6 359.74 141.4L361.04 143.4C360.74 143.6 360.44 143.8 360.24 143.9L359.34 144.4C358.64 144.7 358.04 145 357.44 145.2Z" />
				<path id="Layer" fill-rule="evenodd" class="shp1" d="M350.84 147.6L350.24 145.4C350.84 145.2 351.44 145 352.04 144.9C352.64 144.7 353.24 144.5 353.84 144.3L354.64 146.5C354.04 146.7 352.54 147 351.84 147.2C351.14 147.3 351.44 147.5 350.84 147.6Z" />
			</g>
			<g id="Layer">
				<g id="Layer">
					<path id="Layer" class="shp0" d="M355.74 131.4C355.84 131.2 355.94 130.9 356.04 130.3C356.04 130.1 356.04 130 356.04 129.8C356.04 129.6 356.04 129.4 356.04 129.2C356.04 129.2 356.04 129.1 356.04 129L356.04 128.8L356.04 128.4L356.04 128.2L356.04 128.1L356.04 128C356.04 127.9 356.04 127.8 356.04 127.7C355.94 127.4 355.94 127.1 355.84 126.9C355.74 126.7 355.74 126.6 355.74 126.7L355.74 126.7L369.14 107.6C372.04 109.6 374.44 112.3 376.14 115.3C376.34 115.7 376.54 116.1 376.74 116.5C376.94 116.9 377.14 117.3 377.24 117.7C377.44 118.1 377.54 118.5 377.64 118.8C377.74 119.2 377.94 119.6 378.04 119.9C378.54 121.4 378.84 122.8 379.04 124.2L379.14 125.2L379.14 125.5L379.14 125.7L379.14 126.2L379.24 127.2L379.24 127.7C379.24 127.9 379.24 128 379.24 128.2C379.24 128.9 379.24 129.5 379.24 130.2C379.24 130.9 379.14 131.6 379.14 132.3L379.14 132.8L379.04 133.4L378.84 134.5C378.74 135.2 378.54 136 378.34 136.8C378.24 137.2 378.14 137.6 378.04 137.9C377.94 138.3 377.74 138.7 377.64 139C377.54 139.4 377.34 139.8 377.24 140.1C377.04 140.5 376.94 140.8 376.74 141.2L355.74 131.4Z" />
				</g>
				<path id="Layer" fill-rule="evenodd" class="shp1" d="M366.64 121L364.54 122.1C364.04 121.1 362.44 120.3 361.64 119.5L364.14 117.7C365.14 118.7 365.94 119.8 366.64 121Z" />
				<path id="Layer" fill-rule="evenodd" class="shp1" d="M368.44 128L366.14 128.2C366.04 126.7 365.94 126 365.64 124.7L367.94 124.1C368.14 125.4 368.34 126.7 368.44 128Z" />
				<path id="Layer" fill-rule="evenodd" class="shp1" d="M367.64 135.2L365.44 134.4L365.54 134L365.64 133.6C365.74 133.3 365.74 133 365.84 132.8L365.94 131.9C365.94 131.8 366.04 131.6 366.04 131.5L366.04 131.1L368.34 131.3L368.34 131.8C368.34 132 368.34 132.1 368.24 132.3L367.24 133.4C367.14 133.7 367.94 134 367.94 134.3L367.84 134.8L367.64 135.2Z" />
			</g>
			<g id="Layer">
				<g id="Layer">
					<path id="Layer" class="shp0" d="M355.64 126.9L355.64 126.9C355.64 126.9 355.54 126.9 355.64 126.9C355.64 126.9 355.54 126.9 355.54 126.8L355.54 126.8C355.54 126.8 355.54 126.8 355.44 126.8C355.24 126.7 355.04 126.6 354.64 126.5C354.34 126.4 353.94 126.3 353.44 126.3C352.94 126.2 352.44 126.2 351.84 126.2C350.74 126.2 349.44 126.2 348.04 126.3C346.64 126.4 345.24 126.6 343.74 126.8L340.14 103.8C342.14 103.5 344.14 103.2 346.24 103.1C348.34 102.9 350.54 102.9 352.94 103C354.14 103.1 355.34 103.2 356.54 103.3C357.84 103.5 359.14 103.7 360.44 104.1C361.74 104.4 363.24 104.9 364.64 105.5L365.14 105.7L365.64 106C366.04 106.2 366.34 106.3 366.74 106.6C367.14 106.8 367.44 107 367.84 107.2C368.24 107.4 368.54 107.7 368.94 107.9L355.64 126.9Z" />
				</g>
				<path id="Layer" fill-rule="evenodd" class="shp1" d="M347.24 113.8L347.44 116.1C345.24 116.3 344.04 116.5 343.64 116.5L343.34 114.2C344.64 114.1 345.94 113.9 347.24 113.8Z" />
				<path id="Layer" fill-rule="evenodd" class="shp1" d="M354.34 113.9L354.04 116.2C352.84 116.1 351.54 116 350.34 116L349.44 113.8C350.84 113.8 353.04 113.7 354.34 113.9Z" />
				<path id="Layer" fill-rule="evenodd" class="shp1" d="M361.34 115.8L360.24 117.9C359.24 117.4 358.14 117 356.94 116.7L357.54 114.4C358.04 114.5 359.34 114.8 361.34 115.8Z" />
			</g>
			<g id="Layer">
				<g id="Layer">
					<path id="Layer" class="shp0" d="M343.74 126.8C340.74 127.3 337.64 128 334.44 128.7C331.24 129.5 328.04 130.4 324.64 131.3L318.34 108.8C321.74 107.9 325.24 106.9 328.74 106C332.34 105.1 336.04 104.3 339.94 103.7L343.74 126.8Z" />
				</g>
				<path id="Layer" class="shp1" d="M326.54 117.9L326.24 120.2L322.54 121.3L322.84 118.9L326.54 117.9Z" />
				<path id="Layer" fill-rule="evenodd" class="shp1" d="M332.44 116.3L333.84 118.5C332.54 118.8 331.34 119.1 330.14 119.4L329.54 117.1C330.84 116.8 331.24 116.6 332.44 116.3Z" />
				<path id="Layer" fill-rule="evenodd" class="shp1" d="M340.24 114.7L339.74 117.1C338.44 117.3 338.14 117.5 336.84 117.8L336.34 115.5C337.64 115.2 338.94 115 340.24 114.7Z" />
			</g>
			<g id="Layer">
				<g id="Layer">
					<path id="Layer" class="shp0" d="M324.64 131.4L319.54 132.8L318.84 133L318.54 133.1L318.04 133.2C317.34 133.4 316.74 133.5 316.04 133.6C315.34 133.7 314.64 133.8 313.94 133.9C313.24 134 312.54 134 311.84 134.1C309.04 134.2 306.04 134 303.24 133.2C300.44 132.5 297.74 131.3 295.44 129.9L307.34 109.8C308.04 110.2 308.54 110.4 309.14 110.6C309.74 110.7 310.24 110.8 310.84 110.8C311.14 110.8 311.54 110.7 311.84 110.7C312.04 110.6 312.24 110.6 312.44 110.6L312.54 110.6L312.84 110.5L313.44 110.3L318.44 108.9L324.64 131.4Z" />
				</g>
				<path id="Layer" fill-rule="evenodd" class="shp1" d="M306.54 121.2L305.94 123.5C305.64 123.4 305.24 123.3 304.94 123.2C304.64 123.1 303.34 123.1 303.04 123L302.94 122.5C302.64 122.4 302.34 122.2 301.94 122.1L302.94 120C303.24 120.1 303.54 120.3 303.74 120.4L304.64 120.7C304.94 120.8 305.24 120.9 305.54 121C305.94 121 306.24 121.1 306.54 121.2Z" />
				<path id="Layer" fill-rule="evenodd" class="shp1" d="M313.14 121.4L313.44 123.7L312.44 123.8C312.14 123.8 311.74 123.8 311.44 123.9L310.94 123.9L310.64 123.9L310.34 123.9L309.24 123.9L309.34 121.6L310.24 121.6L310.44 121.6L309.74 121.7L311.14 121.6C311.44 121.6 311.74 121.6 312.04 121.5L313.14 121.4Z" />
				<path id="Layer" class="shp1" d="M319.84 119.8L319.54 122.1L315.74 123.1L316.04 120.8L319.84 119.8Z" />
			</g>
			<g id="Layer">
				<g id="Layer">
					<path id="Layer" class="shp0" d="M295.44 130C293.04 128.6 291.04 127 289.24 125.3C287.44 123.6 285.84 121.8 284.44 119.9C283.04 118.1 281.84 116.2 280.74 114.2C280.24 113.2 279.64 112.2 279.14 111.2C279.04 110.9 278.94 110.7 278.74 110.4C278.64 110.1 278.54 109.9 278.34 109.6C278.24 109.3 278.14 109.1 277.94 108.8L277.74 108.4L277.64 108.1L277.54 107.7L299.44 99.6L299.44 99.5L299.44 99.5L299.44 99.5L299.54 99.7L299.74 100.1C299.84 100.2 299.84 100.4 299.94 100.5C300.04 100.6 300.04 100.8 300.14 100.9C300.44 101.5 300.74 102 301.04 102.6C301.64 103.7 302.34 104.8 303.04 105.7C304.44 107.6 306.04 109 307.34 109.8L295.44 130Z" />
				</g>
				<path id="Layer" fill-rule="evenodd" class="shp1" d="M295.54 113.8L293.74 115.3C292.84 114.3 292.04 113.2 291.34 112.1L293.24 110.8C293.94 111.7 294.34 112.4 295.54 113.8Z" />
				<path id="Layer" fill-rule="evenodd" class="shp1" d="M300.44 118.4L299.14 120.3C298.04 119.5 296.94 118.6 295.94 117.7L297.54 116C298.24 116.7 298.84 117.2 300.44 118.4Z" />
			</g>
		</g>
		<g id="Layer">
			<path id="Layer" class="shp2" d="M299.84 89.4L293.34 96.8L252.94 85L299.84 89.4Z" />
			<path id="Layer" class="shp3" d="M291.54 112.2L293.34 96.7L252.94 85L287.34 103.2L291.54 112.2Z" />
			<path id="Layer" class="shp2" d="M276.44 114.3L287.34 103.2L252.94 85L276.44 114.3Z" />
		</g>
	</g>
	<g id="Layer copy 111">
		<path id="Layer" class="shp4" d="M106.5 178.5L106.5 178.5C106.5 178.1 106.5 177.7 106.5 177.2C106.5 171 101.5 166 95.3 166C92.5 166 89.9 167.1 87.9 168.8C86.3 166.3 83.8 164.4 80.9 163.5C78.3 156.4 71.5 151.3 63.4 151.3C53.1 151.3 44.8 159.6 44.8 169.9C44.8 170.2 44.8 170.5 44.8 170.9C43 169.3 40.7 168.3 38.1 168.3C37.7 168.3 37.4 168.3 37 168.4C34.8 163.2 29.7 159.6 23.7 159.6C15.7 159.6 9.3 166.1 9.3 174C9.3 175.6 9.6 177.2 10.1 178.6C7.8 179.1 6.1 181.1 6.1 183.5C6.1 186.2 8.3 188.5 11.1 188.5L106.4 188.5C109.1 188.5 111.4 186.3 111.4 183.5C111.5 180.7 109.3 178.5 106.5 178.5Z" />
		<g id="Layer">
			<g id="Layer">
				<path id="Layer" class="shp1" d="M115 92.3C115 92.3 104.6 94.5 97.8 85.9C91 77.2 99.2 70 88.9 64.9C78.6 59.8 67.5 65.4 55.1 65.2C42.7 64.9 35.6 54.7 33.3 56.1C31 57.6 34.3 80.3 70.3 78.1C70.3 78.1 54.5 80.3 47.1 79.5C39.7 78.7 42.3 88 54 90.4C65.7 92.8 76.3 87.9 76.3 87.9C76.3 87.9 67.9 93.3 61.2 94.4C54.5 95.6 70.3 108.5 84.7 95.2C84.7 95.2 82.5 98.5 80.1 101.7C77.7 104.9 90.6 107.4 96.2 98.5C96.2 98.5 93.9 103 94.5 105.3C95.1 107.5 103.7 109 107.4 101.3C107.4 101.3 107.1 106 109.8 106.5C112.5 107 116.1 107.4 117.6 101.5C119.2 95.7 115 92.3 115 92.3Z" />
				<path id="Layer" class="shp1" d="M217.2 72.1C217.2 72.1 227.7 70.2 230.6 59.6C233.6 49 223.2 45.5 230.8 36.9C238.4 28.3 250.8 29.2 262.2 24.3C273.6 19.3 276.2 7.1 278.9 7.6C281.6 8.1 287.2 30.3 253 42C253 42 268.5 38 275 34.5C281.6 30.9 282.6 40.6 272.8 47.2C262.9 53.9 251.2 53.3 251.2 53.3C251.2 53.3 261 55.1 267.6 53.6C274.2 52.1 264.6 70.1 246.1 63.3C246.1 63.3 249.4 65.5 252.9 67.5C256.3 69.5 245.4 76.7 236.8 70.7C236.8 70.7 240.7 74 241 76.3C241.3 78.6 233.9 83.3 227.5 77.5C227.5 77.5 229.6 81.8 227.3 83.2C225 84.7 221.8 86.4 218.2 81.6C214.6 76.8 217.2 72.1 217.2 72.1Z" />
			</g>
			<g id="Layer">
				<path id="Layer" class="shp2" d="M107.73 73.24L216.62 51.7L230.45 121.65L121.56 143.18L107.73 73.24Z" />
				<path id="Layer" class="shp5" d="M171.1 107.6L111.5 76L172.6 115.4L214.2 55.7L171.1 107.6Z" />
				<g id="Layer">
					<path id="Layer" class="shp5" d="M146.5 97.1L124.3 139.8L149.1 100.1L146.5 97.1Z" />
					<path id="Layer" class="shp5" d="M189.9 88.5L226.6 119.6L188.6 92.3L189.9 88.5Z" />
				</g>
			</g>
		</g>
		<g id="Layer">
			<g id="Layer">
				<path id="Layer" class="shp1" d="M222.9 165.9C222.9 165.9 218.7 166.1 216.7 162.3C214.6 158.5 218.3 156.3 214.6 153.6C210.9 151 206.3 152.4 201.5 151.5C196.7 150.6 194.7 146.2 193.7 146.6C192.7 147 192.5 156 206.6 157.5C206.6 157.5 200.3 157.3 197.5 156.5C194.7 155.7 195.1 159.5 199.4 161.2C203.7 162.9 208.2 161.7 208.2 161.7C208.2 161.7 204.6 163.2 201.9 163.2C199.2 163.2 204.5 169.2 210.9 165C210.9 165 209.8 166.1 208.7 167.2C207.6 168.3 212.4 170.1 215.1 167C215.1 167 213.9 168.6 214 169.5C214.1 170.4 217.3 171.6 219.3 168.8C219.3 168.8 218.9 170.6 219.9 171C220.9 171.4 222.3 171.8 223.2 169.6C224.3 167.5 222.9 165.9 222.9 165.9Z" />
				<path id="Layer" class="shp1" d="M263.7 164.8C263.7 164.8 267.9 164.8 269.7 160.9C271.5 157 267.8 155 271.3 152.1C274.8 149.3 279.5 150.4 284.2 149.3C288.9 148.2 290.8 143.6 291.7 144C292.7 144.4 293.4 153.3 279.4 155.6C279.4 155.6 285.6 155.1 288.4 154.1C291.2 153.1 290.9 156.9 286.7 158.9C282.5 160.8 278 159.9 278 159.9C278 159.9 281.7 161.2 284.3 161.1C287 161 282.1 167.3 275.4 163.4C275.4 163.4 276.5 164.5 277.7 165.5C278.9 166.5 274.2 168.6 271.3 165.7C271.3 165.7 272.6 167.2 272.5 168.1C272.5 169 269.3 170.3 267.2 167.7C267.2 167.7 267.7 169.5 266.7 169.9C265.7 170.3 264.4 170.8 263.3 168.7C262.4 166.5 263.7 164.8 263.7 164.8Z" />
			</g>
			<g id="Layer">
				<path id="Layer" class="shp2" d="M221.32 158.08L264.81 156.92L265.55 184.81L222.07 185.97L221.32 158.08Z" />
				<path id="Layer" class="shp5" d="M243.6 175.5L222.6 159.4L243.7 178.6L263.6 158.3L243.6 175.5Z" />
				<g id="Layer">
					<path id="Layer" class="shp5" d="M234.8 169.8L223.4 184.9L235.6 171.2L234.8 169.8Z" />
					<path id="Layer" class="shp5" d="M252.1 169.4L264.3 183.8L251.3 170.8L252.1 169.4Z" />
				</g>
			</g>
		</g>
	</g>
</svg>