<svg version="1.2" baseProfile="tiny-ps" xmlns="http://www.w3.org/2000/svg" viewBox="0 0 200 240" width="200" height="240">
	<title>New Project</title>
	<style>
		tspan { white-space:pre }
		.shp0 { fill: #362017 } 
		.shp1 { fill: #1a0c06 } 
		.shp2 { fill: #c07147 } 
		.shp3 { mix-blend-mode: multiply;fill: #c4c5c7 } 
		.shp4 { fill: #ff5048 } 
		.shp5 { fill: #c4c5c7 } 
		.shp6 { fill: #ececed } 
		.shp7 { fill: #995b39 } 
		.shp8 { fill: #341e15 } 
		.shp9 { fill: #160903 } 
		.shp10 { fill: #190b05 } 
		.shp11 { fill: #ffffff } 
		.shp12 { opacity: 0.2;fill: #ff9085 } 
		.shp13 { fill: #e76457 } 
		.shp14 { fill: #d14f30 } 
		.shp15 { opacity: 0.2;fill: #35383d } 
		.shp16 { fill: #0a191e } 
		.shp17 { fill: #bd3333 } 
	</style>
	<g id="&lt;Group&gt;">
		<g id="&lt;Group&gt;">
			<path id="&lt;Path&gt;" class="shp0" d="M156.96 180.79L156.96 75.03L40.65 75.03L40.65 180.79C76.58 161.23 115.35 161.23 156.96 180.79Z" />
		</g>
		<g id="&lt;Group&gt;">
			<path id="&lt;Path&gt;" class="shp1" d="M97.88 167.76C98.19 167.76 98.5 167.77 98.81 167.77C110.29 167.75 122.94 169.19 136.26 173.02L136.26 75.03L61.35 75.03L61.35 172.96C70.98 170.27 83.48 167.89 97.88 167.76Z" />
		</g>
		<g id="&lt;Group&gt;">
			<g id="&lt;Group&gt;">
				<path id="&lt;Path&gt;" class="shp2" d="M141.87 240L163.63 240L155.17 198.59L155.14 198.44C155.1 198.29 155.07 198.14 155.03 197.99C153.54 192.17 147.26 188.58 141.01 189.97C134.76 191.36 130.89 197.2 132.39 203.02L141.87 240Z" />
			</g>
		</g>
		<g id="&lt;Group&gt;">
			<path id="&lt;Path&gt;" class="shp2" d="M58.24 240C58.58 237.62 58.92 235.32 59.21 233.11C60.97 220.75 62.43 210.44 63.6 202.19L63.6 202.18C64.44 196.25 59.95 190.82 53.58 190.05C47.2 189.27 41.37 193.45 40.54 199.38L40.48 199.76C40.41 200.27 40.31 201.01 40.17 201.98C39.97 203.42 39.66 205.55 39.35 208.27C39.03 210.98 38.64 214.27 38.19 218.05C37.69 221.82 37.33 226.1 36.88 230.75C36.6 233.69 36.31 236.79 36 240L58.24 240Z" />
		</g>
		<g id="&lt;Group&gt;">
			<path id="&lt;Path&gt;" class="shp2" d="M110.86 183.93L82.93 183.93L87.33 155.96L106.81 155.96L110.86 183.93Z" />
			<path id="&lt;Path&gt;" class="shp3" d="M92.85 167.04C98.06 166.35 105.18 165.61 107.8 161.52L106.81 155.96L87.33 155.96L85.15 169.77C87.43 168.41 89.95 167.42 92.85 167.04Z" />
		</g>
		<path id="&lt;Path&gt;" class="shp2" d="M51.56 240L142.68 240L148.2 218.41C153.37 204.51 152.52 194.89 145.65 189.55L110.08 175.74L84.16 175.74L48.57 189.55C41.71 194.89 40.87 204.51 46.04 218.41L51.56 240Z" />
		<path id="&lt;Path&gt;" class="shp4" d="M142.65 240L148.08 218.73C138.53 212.07 137.65 197.59 145.42 189.47L113.68 176.91L96.98 178.66L80.03 177.26L49.07 189.34C57.08 197.54 56.12 212.41 46.15 218.99L51.52 240L142.65 240Z" />
		<g id="&lt;Group&gt;">
			<g id="&lt;Group&gt;">
				<g id="&lt;Group&gt;">
					<path id="&lt;Path&gt;" class="shp2" d="M141.54 104.88C140.54 111.81 143.54 117.9 148.22 118.48C152.91 119.06 157.51 113.91 158.5 106.98C159.5 100.04 156.5 93.96 151.8 93.38C147.13 92.8 142.52 97.95 141.54 104.88Z" />
					<g id="&lt;Group&gt;" style="mix-blend-mode: multiply">
						<path id="&lt;Path&gt;" class="shp5" d="M147.28 102.81C147.31 102.56 147.37 102.22 147.47 101.79C147.6 101.15 147.91 100.25 148.41 99.29C148.93 98.36 149.79 97.27 150.96 97.2C151.25 97.18 151.56 97.21 151.87 97.27C151.92 97.3 152.23 97.39 152.33 97.44C152.43 97.52 152.54 97.55 152.67 97.65C153.17 97.99 153.6 98.52 153.89 99.13C154.22 99.73 154.44 100.42 154.58 101.08C154.71 101.76 154.8 102.46 154.75 103.06C154.65 103.76 154.66 104.47 154.53 105.07C154.42 105.7 154.31 106.28 154.22 106.81C154.05 107.36 153.96 107.86 153.85 108.31C153.76 108.76 153.6 109.14 153.52 109.45C153.39 109.87 153.3 110.21 153.23 110.47C153.38 110.25 153.56 109.94 153.79 109.56C153.96 109.26 154.2 108.91 154.39 108.49C154.59 108.06 154.82 107.58 155.06 107.04C155.27 106.5 155.46 105.88 155.66 105.23C155.88 104.57 155.95 103.92 156.08 103.21C156.21 102.41 156.18 101.64 156.03 100.85C155.89 100.07 155.65 99.28 155.27 98.52C154.88 97.77 154.32 97.05 153.52 96.52C153.33 96.39 153.06 96.28 152.83 96.18C152.57 96.08 152.5 96.07 152.17 95.99C151.71 95.92 151.25 95.9 150.77 95.97C149.82 96.09 149.06 96.65 148.58 97.23C148.08 97.8 147.81 98.41 147.6 98.98C147.21 100.12 147.18 101.1 147.18 101.77C147.19 102.22 147.22 102.57 147.28 102.81Z" />
					</g>
					<path id="&lt;Path&gt;" class="shp3" d="M147.28 102.81C146.96 102.33 147.82 102.01 149.85 101.85C152.14 102.13 152.71 103.43 151.53 105.75C151.14 106.49 150.83 107.27 150.67 108.07C150.44 109.23 151.1 110.79 150.35 111.83C149.38 113.17 146.65 112.47 146.38 110.96C146.17 109.8 147.61 107.79 148.28 106.95C149.62 105.26 149.29 103.88 147.28 102.81Z" />
					<g id="&lt;Group&gt;" style="mix-blend-mode: multiply">
						<path id="&lt;Path&gt;" class="shp5" d="M146.37 110.81C146.37 110.81 146.27 110.86 146.15 111C146 111.13 145.86 111.36 145.75 111.65C145.66 111.79 145.65 111.96 145.62 112.14C145.58 112.33 145.55 112.52 145.6 112.72C145.63 112.91 145.65 113.12 145.72 113.33C145.79 113.53 145.9 113.71 146 113.9C146.14 114.08 146.22 114.28 146.39 114.42C146.53 114.57 146.72 114.69 146.86 114.81C147.18 115.08 147.52 115.22 147.83 115.29C148.25 115.42 148.6 115.48 148.89 115.47C148.75 115.19 148.58 114.92 148.37 114.64C148.27 114.53 148.18 114.42 148.08 114.33C148 114.2 147.93 114.06 147.83 113.94C147.75 113.82 147.66 113.69 147.56 113.58C147.44 113.47 147.41 113.32 147.33 113.2C147.14 112.97 147.04 112.71 146.91 112.45C146.84 112.33 146.8 112.2 146.75 112.08C146.72 111.95 146.64 111.83 146.61 111.71C146.51 111.39 146.43 111.09 146.37 110.81Z" />
					</g>
				</g>
				<g id="&lt;Group&gt;">
					<path id="&lt;Path&gt;" class="shp2" d="M53.49 104.88C54.49 111.81 51.49 117.9 46.81 118.48C42.13 119.06 37.52 113.91 36.53 106.98C35.55 100.04 38.54 93.96 43.23 93.38C47.91 92.8 52.51 97.95 53.49 104.88Z" />
					<g id="&lt;Group&gt;" style="mix-blend-mode: multiply">
						<path id="&lt;Path&gt;" class="shp5" d="M47.75 102.81C47.72 102.56 47.66 102.22 47.57 101.79C47.44 101.15 47.13 100.25 46.63 99.29C46.11 98.36 45.25 97.27 44.07 97.2C43.78 97.18 43.48 97.21 43.17 97.27C43.12 97.3 42.81 97.39 42.71 97.44C42.6 97.52 42.49 97.55 42.36 97.65C41.86 97.99 41.44 98.52 41.14 99.13C40.83 99.73 40.6 100.42 40.46 101.08C40.34 101.76 40.22 102.46 40.3 103.06C40.38 103.76 40.38 104.47 40.5 105.07C40.62 105.7 40.72 106.28 40.83 106.81C40.97 107.36 41.08 107.86 41.18 108.31C41.27 108.76 41.43 109.14 41.51 109.45C41.64 109.87 41.74 110.21 41.81 110.47C41.66 110.25 41.47 109.94 41.24 109.56C41.08 109.26 40.85 108.91 40.65 108.49C40.44 108.06 40.21 107.58 39.98 107.04C39.76 106.5 39.58 105.88 39.38 105.23C39.16 104.57 39.09 103.92 38.96 103.21C38.83 102.41 38.87 101.64 39.01 100.85C39.15 100.07 39.39 99.28 39.77 98.52C40.15 97.77 40.72 97.05 41.52 96.52C41.71 96.39 41.97 96.28 42.22 96.18C42.47 96.08 42.55 96.07 42.86 95.99C43.32 95.92 43.79 95.9 44.27 95.97C45.22 96.09 45.98 96.65 46.45 97.23C46.95 97.8 47.23 98.41 47.43 98.98C47.83 100.12 47.86 101.1 47.87 101.77C47.85 102.22 47.82 102.57 47.75 102.81Z" />
					</g>
					<path id="&lt;Path&gt;" class="shp3" d="M47.75 102.81C48.07 102.33 47.22 102.01 45.19 101.85C42.89 102.13 42.33 103.43 43.51 105.75C43.89 106.49 44.2 107.27 44.37 108.07C44.6 109.23 43.94 110.79 44.68 111.83C45.65 113.17 48.39 112.47 48.66 110.96C48.86 109.8 47.43 107.79 46.76 106.95C45.42 105.26 45.75 103.88 47.75 102.81Z" />
					<g id="&lt;Group&gt;" style="mix-blend-mode: multiply">
						<path id="&lt;Path&gt;" class="shp5" d="M48.66 110.81C48.66 110.81 48.77 110.86 48.89 111C49.03 111.13 49.18 111.36 49.3 111.65C49.37 111.79 49.39 111.96 49.42 112.14C49.45 112.33 49.49 112.52 49.43 112.72C49.4 112.91 49.38 113.12 49.32 113.33C49.25 113.53 49.13 113.71 49.03 113.9C48.91 114.08 48.81 114.28 48.64 114.42C48.5 114.57 48.32 114.69 48.16 114.81C47.86 115.08 47.51 115.22 47.2 115.29C46.79 115.42 46.44 115.48 46.15 115.47C46.28 115.19 46.46 114.92 46.68 114.64C46.76 114.53 46.85 114.42 46.96 114.33C47.04 114.2 47.1 114.06 47.2 113.94C47.29 113.82 47.37 113.69 47.48 113.58C47.6 113.47 47.62 113.32 47.7 113.2C47.9 112.97 48 112.71 48.12 112.45C48.19 112.33 48.24 112.2 48.29 112.08C48.32 111.95 48.4 111.83 48.43 111.71C48.53 111.39 48.61 111.09 48.66 110.81Z" />
					</g>
				</g>
			</g>
			<path id="&lt;Path&gt;" class="shp2" d="M122.71 32.94C115.36 29.88 106.77 28.33 96.96 28.29C87.23 28.33 78.68 29.88 71.33 32.94C43.57 45.32 38.26 77.28 55.38 128.82C59.05 139.88 70.23 148.37 80.74 154.55C91.58 160.93 102.49 160.91 113.29 154.55C123.8 148.37 134.98 139.88 138.66 128.82C155.78 77.28 150.47 45.32 122.71 32.94Z" />
			<g id="&lt;Group&gt;" style="mix-blend-mode: multiply">
				<g id="&lt;Group&gt;">
					<path id="&lt;Path&gt;" class="shp6" d="M122.71 32.94C115.37 29.89 106.81 28.34 97.01 28.29C104.84 28.34 111.68 29.89 117.55 32.94C139.73 45.32 143.97 77.28 130.3 128.82C127.36 139.88 118.42 148.37 110.02 154.55C105.7 157.73 101.37 159.32 97.03 159.33C102.46 159.32 107.89 157.73 113.29 154.55C123.8 148.37 134.98 139.88 138.66 128.82C155.78 77.28 150.47 45.32 122.71 32.94Z" />
					<path id="&lt;Path&gt;" class="shp6" d="M84.01 154.55C75.6 148.37 66.67 139.88 63.74 128.82C50.06 77.28 54.3 45.32 76.48 32.94C82.36 29.88 89.18 28.33 96.96 28.29C87.23 28.33 78.68 29.88 71.33 32.94C43.57 45.32 38.26 77.28 55.38 128.82C59.05 139.88 70.23 148.37 80.74 154.55C86.16 157.74 91.59 159.33 97.02 159.33C92.68 159.33 88.34 157.74 84.01 154.55Z" />
				</g>
			</g>
			<g id="&lt;Group&gt;">
				<path id="&lt;Path&gt;" class="shp7" d="M89.07 115.54C91.88 115.49 94.69 115.44 97.49 115.4C97.87 115.47 98.25 115.35 98.64 115.42C99.02 115.41 99.42 115.4 99.84 115.45C100.67 115.42 101.58 115.48 102.47 115.46C103.38 115.54 104.2 115.47 104.87 115.52C105.3 115.54 105.67 115.57 105.97 115.61C105.96 115.88 105.91 116.21 105.8 116.62C105.63 117.22 105.37 118.11 104.72 118.94C104.12 119.83 103.15 120.66 101.92 121.35C101.27 121.64 100.58 121.96 99.83 122.12C99.07 122.27 98.28 122.43 97.48 122.4C96.69 122.38 95.89 122.32 95.14 122.11C94.38 121.96 93.7 121.63 93.06 121.34C91.82 120.66 90.85 119.82 90.25 118.93C89.62 118.05 89.31 117.21 89.17 116.57C89.08 116.16 89.04 115.81 89.07 115.54Z" />
			</g>
			<g id="&lt;Group&gt;">
				<g id="&lt;Group&gt;">
					<g id="&lt;Group&gt;">
						<g id="&lt;Group&gt;">
							<path id="&lt;Path&gt;" class="shp8" d="M69.67 95.56C69.76 98.26 72.19 100.38 75.09 100.29C77.99 100.21 80.27 97.95 80.17 95.25C80.08 92.55 77.65 90.44 74.75 90.52C71.86 90.6 69.58 92.86 69.67 95.56Z" />
							<path id="&lt;Path&gt;" class="shp9" d="M73.05 95.58C73.08 96.55 73.96 97.32 75.01 97.29C76.05 97.26 76.87 96.44 76.84 95.46C76.81 94.49 75.93 93.73 74.89 93.76C73.83 93.79 73.01 94.6 73.05 95.58Z" />
							<g id="&lt;Group&gt;">
								<g id="&lt;Group&gt;">
									<path id="&lt;Path&gt;" class="shp10" d="M84.31 94.85C83.9 94.88 83.43 94.79 83.01 94.66L81.76 94.22C80.99 93.85 80.23 93.42 79.49 92.98L79.44 92.94C78.72 92.46 77.82 92.01 76.97 91.76C76.1 91.51 75.22 91.43 74.38 91.6C73.54 91.74 72.74 92.1 71.97 92.59C71.2 93.09 70.51 93.74 69.81 94.43L69.84 94.38C69.49 94.83 69.12 95.1 68.7 95.38C68.28 95.64 67.82 95.85 67.33 95.96C66.36 96.19 65.34 96.07 64.55 95.67C65.46 95.69 66.31 95.56 66.97 95.15C67.3 94.94 67.61 94.72 67.86 94.45C68.12 94.2 68.36 93.86 68.48 93.62L68.49 93.61L68.52 93.57L69.48 92.26C69.88 91.87 70.25 91.45 70.71 91.1C71.59 90.35 72.75 89.83 73.99 89.58C75.24 89.36 76.55 89.52 77.67 89.96C78.8 90.41 79.75 91.01 80.59 91.87L80.54 91.83C81.15 92.34 81.71 92.9 82.31 93.46L83.25 94.21C83.41 94.36 83.58 94.43 83.75 94.54C83.92 94.66 84.11 94.78 84.31 94.85Z" />
								</g>
							</g>
							<g id="&lt;Group&gt;">
								<g id="&lt;Group&gt;">
									<path id="&lt;Path&gt;" class="shp10" d="M69.6 94.17C68.57 94.45 67.53 94.58 66.46 94.55C65.67 94.54 64.82 94.31 64.42 93.87C64.03 93.43 64.07 93.04 64.04 93.05C64.06 93.03 64.11 93.43 64.54 93.76C64.96 94.08 65.72 94.14 66.43 94.04C67.4 93.9 68.33 93.62 69.21 93.21L69.6 94.17Z" />
								</g>
							</g>
							<g id="&lt;Group&gt;">
								<g id="&lt;Group&gt;">
									<path id="&lt;Path&gt;" class="shp10" d="M70.35 93.37C69.29 93.49 68.23 93.45 67.18 93.26C66.41 93.12 65.61 92.77 65.29 92.28C64.99 91.78 65.1 91.39 65.07 91.4C65.1 91.39 65.07 91.79 65.43 92.18C65.8 92.56 66.52 92.74 67.25 92.75C68.23 92.76 69.19 92.63 70.14 92.36L70.35 93.37Z" />
								</g>
							</g>
							<path id="&lt;Path&gt;" class="shp11" d="M71.03 94.34C71.06 95.01 71.66 95.55 72.38 95.52C73.11 95.5 73.68 94.94 73.66 94.26C73.63 93.58 73.03 93.06 72.3 93.08C71.58 93.1 71.01 93.66 71.03 94.34Z" />
							<path id="&lt;Path&gt;" class="shp11" d="M73.07 95.55C73.08 95.88 73.38 96.15 73.75 96.14C74.11 96.12 74.4 95.84 74.38 95.51C74.38 95.16 74.07 94.9 73.71 94.91C73.34 94.92 73.06 95.2 73.07 95.55Z" />
						</g>
						<g id="&lt;Group&gt;">
							<path id="&lt;Path&gt;" class="shp0" d="M61.63 85.66C65.62 80.26 72.87 79.02 83.38 81.95C86.16 82.73 88.13 83.55 89.31 84.39C90.76 84.23 91.26 82.41 90.81 78.95C73.19 72.47 63.46 74.7 61.63 85.66Z" />
						</g>
					</g>
				</g>
				<g id="&lt;Group&gt;">
					<g id="&lt;Group&gt;">
						<g id="&lt;Group&gt;">
							<path id="&lt;Path&gt;" class="shp8" d="M125.37 95.56C125.27 98.26 122.85 100.38 119.95 100.29C117.05 100.21 114.77 97.95 114.86 95.25C114.94 92.55 117.38 90.44 120.28 90.52C123.18 90.6 125.46 92.86 125.37 95.56Z" />
							<path id="&lt;Path&gt;" class="shp9" d="M121.99 95.58C121.96 96.55 121.08 97.32 120.03 97.29C118.97 97.26 118.15 96.44 118.19 95.46C118.22 94.49 119.1 93.73 120.15 93.76C121.2 93.79 122.02 94.6 121.99 95.58Z" />
							<g id="&lt;Group&gt;">
								<g id="&lt;Group&gt;">
									<path id="&lt;Path&gt;" class="shp10" d="M110.72 94.85C110.93 94.78 111.11 94.66 111.28 94.54C111.45 94.43 111.62 94.36 111.78 94.21L112.72 93.46C113.31 92.9 113.88 92.34 114.48 91.83L114.43 91.87C115.27 91.01 116.22 90.41 117.35 89.96C118.47 89.52 119.79 89.36 121.04 89.58C122.28 89.83 123.44 90.35 124.32 91.09C124.79 91.45 125.15 91.87 125.55 92.26L126.51 93.57L126.55 93.61L126.55 93.62C126.68 93.86 126.92 94.2 127.17 94.45C127.43 94.72 127.73 94.94 128.06 95.15C128.72 95.56 129.57 95.69 130.48 95.67C129.69 96.07 128.67 96.19 127.71 95.96C127.21 95.85 126.75 95.64 126.33 95.38C125.91 95.1 125.54 94.83 125.19 94.38L125.23 94.43C124.53 93.74 123.83 93.09 123.06 92.59C122.3 92.1 121.49 91.74 120.64 91.6C119.81 91.43 118.93 91.51 118.06 91.76C117.21 92.01 116.3 92.46 115.58 92.94L115.54 92.98C114.79 93.42 114.04 93.85 113.27 94.22L112.03 94.66C111.61 94.79 111.14 94.88 110.72 94.85Z" />
								</g>
							</g>
							<g id="&lt;Group&gt;">
								<g id="&lt;Group&gt;">
									<path id="&lt;Path&gt;" class="shp10" d="M125.81 93.21C126.7 93.62 127.63 93.9 128.6 94.04C129.31 94.14 130.06 94.08 130.49 93.76C130.92 93.43 130.97 93.03 130.99 93.05C130.96 93.04 131 93.43 130.61 93.88C130.2 94.32 129.36 94.54 128.57 94.55C127.5 94.58 126.45 94.45 125.43 94.17L125.81 93.21Z" />
								</g>
							</g>
							<g id="&lt;Group&gt;">
								<g id="&lt;Group&gt;">
									<path id="&lt;Path&gt;" class="shp10" d="M124.89 92.36C125.84 92.63 126.8 92.76 127.78 92.75C128.51 92.74 129.24 92.56 129.6 92.18C129.96 91.8 129.94 91.39 129.97 91.4C129.94 91.39 130.05 91.78 129.74 92.28C129.42 92.77 128.62 93.12 127.85 93.26C126.8 93.45 125.74 93.49 124.68 93.37L124.89 92.36Z" />
								</g>
							</g>
							<path id="&lt;Path&gt;" class="shp11" d="M124 94.34C123.98 95.01 123.37 95.55 122.64 95.52C121.92 95.5 121.35 94.94 121.38 94.26C121.41 93.58 122 93.06 122.73 93.08C123.45 93.1 124.03 93.66 124 94.34Z" />
							<path id="&lt;Path&gt;" class="shp11" d="M121.96 95.55C121.96 95.88 121.65 96.15 121.28 96.14C120.92 96.12 120.63 95.84 120.65 95.51C120.66 95.16 120.97 94.9 121.33 94.91C121.69 94.92 121.97 95.2 121.96 95.55Z" />
						</g>
						<g id="&lt;Group&gt;">
							<path id="&lt;Path&gt;" class="shp0" d="M133.4 85.66C129.41 80.26 122.16 79.02 111.66 81.95C108.87 82.73 106.9 83.55 105.72 84.39C104.27 84.23 103.77 82.41 104.23 78.95C121.85 72.47 131.58 74.7 133.4 85.66Z" />
						</g>
					</g>
				</g>
			</g>
			<g id="&lt;Group&gt;">
				<path id="&lt;Path&gt;" class="shp12" d="M138.35 105.64C137.96 101.67 131.9 98.94 124.78 99.53C117.67 100.12 112.21 103.82 112.59 107.78C112.97 111.74 119.05 114.47 126.16 113.88C133.27 113.28 138.73 109.6 138.35 105.64Z" />
				<path id="&lt;Path&gt;" class="shp12" d="M69.25 99.53C62.13 98.94 56.06 101.67 55.68 105.64C55.3 109.6 60.76 113.28 67.87 113.88C74.98 114.47 81.06 111.74 81.43 107.78C81.81 103.82 76.37 100.12 69.25 99.53Z" />
			</g>
			<path id="&lt;Path&gt;" class="shp11" d="M150.57 116.73C150.57 118.29 149.2 119.56 147.53 119.56C145.85 119.56 144.49 118.29 144.49 116.73C144.49 115.17 145.85 113.9 147.53 113.9C149.2 113.9 150.57 115.17 150.57 116.73Z" />
			<path id="&lt;Path&gt;" class="shp11" d="M50.55 116.73C50.55 118.29 49.19 119.56 47.51 119.56C45.83 119.56 44.47 118.29 44.47 116.73C44.47 115.17 45.83 113.9 47.51 113.9C49.19 113.9 50.55 115.17 50.55 116.73Z" />
			<g id="&lt;Group&gt;">
				<path id="&lt;Path&gt;" class="shp11" d="M81.84 130.45C85.09 136.82 90.88 141.08 97.52 141.08C104.15 141.08 109.95 136.82 113.19 130.45L81.84 130.45Z" />
				<g id="&lt;Group&gt;">
					<path id="&lt;Path&gt;" class="shp13" d="M81.84 130.45C82.24 130.7 82.75 131.07 83.36 131.55C83.8 131.93 84.37 132.37 84.99 132.76C85.62 133.17 86.22 133.63 87.01 134.06C87.76 134.52 88.53 135 89.39 135.39C90.19 135.87 91.13 136.13 91.99 136.51C92.92 136.74 93.79 137.12 94.73 137.2C95.2 137.26 95.65 137.41 96.12 137.39L96.82 137.43L97.17 137.45L97.34 137.47L97.43 137.48L97.47 137.48L97.49 137.48L97.51 137.48C97.36 137.49 97.85 137.47 97.19 137.5C98.44 137.42 99.91 137.35 100.44 137.16C101.13 137.13 102.16 136.73 103.04 136.51C103.9 136.12 104.84 135.86 105.63 135.38C106.5 135 107.27 134.51 108.01 134.06C108.8 133.64 109.43 133.13 110.07 132.71C110.7 132.29 111.25 131.9 111.68 131.54C112.28 131.08 112.78 130.72 113.19 130.45C113.2 130.89 113.14 131.48 113.02 132.24C112.94 132.82 112.83 133.52 112.52 134.26C112.24 135.01 111.98 135.93 111.4 136.78C110.89 137.68 110.27 138.63 109.4 139.51C108.61 140.47 107.51 141.26 106.37 142.09C105.78 142.49 105.09 142.78 104.42 143.12C103.79 143.48 102.99 143.75 102.13 143.97C100.24 144.54 99.13 144.52 97.85 144.66L97.5 144.68L97.48 144.68L97.44 144.67L97.37 144.67L97.21 144.65L96.91 144.63L96.3 144.58L95.1 144.46C94.28 144.43 93.54 144.12 92.77 143.93C91.23 143.57 89.92 142.77 88.68 142.08C87.53 141.25 86.43 140.46 85.65 139.5C84.77 138.62 84.15 137.67 83.64 136.78C83.07 135.94 82.78 134.97 82.49 134.22C82.16 133.45 82.08 132.79 82.01 132.23C81.91 131.49 81.85 130.9 81.84 130.45Z" />
				</g>
				<g id="&lt;Group&gt;">
					<path id="&lt;Path&gt;" class="shp13" d="M113.19 130.45C111.89 130.97 110.25 131.42 108.29 131.78C105.35 132.37 101.44 132.79 97.52 132.78C93.6 132.8 89.68 132.38 86.74 131.79C84.78 131.42 83.15 130.98 81.84 130.45C83.15 129.93 84.78 129.49 86.74 129.12C89.68 128.53 93.6 128.11 97.52 128.13C101.44 128.12 105.35 128.54 108.29 129.12C110.25 129.49 111.89 129.93 113.19 130.45Z" />
				</g>
			</g>
			<g id="&lt;Group&gt;">
				<path id="&lt;Path&gt;" class="shp0" d="M49.07 105.27C49.07 96.86 46.56 92.97 41.54 93.59C37.03 58.71 43.38 39.27 60.6 35.25C59.71 29.02 63.84 23.21 72.98 17.81C96.78 7.3 116.39 7.4 131.83 18.1C157.46 33.99 165.01 59.16 154.5 93.59C147.6 92.48 143.9 96.37 143.4 105.27C142.73 77.24 137.71 60.42 128.33 54.82C106.36 43.49 84.96 43.49 64.14 54.82C58.39 60.74 56.08 68.06 57.19 76.79C52.28 79.28 49.58 88.77 49.07 105.27Z" />
			</g>
			<g id="&lt;Group&gt;">
				<path id="&lt;Path&gt;" class="shp2" d="M68.51 55.02L64.9 42.21L71.99 53.69L68.51 55.02Z" />
			</g>
			<g id="&lt;Group&gt;">
				<path id="&lt;Path&gt;" class="shp14" d="M114.28 103.58C113.5 103.58 113.5 104.69 114.28 104.69C115.05 104.69 115.05 103.58 114.28 103.58Z" />
				<path id="&lt;Path&gt;" class="shp14" d="M119.07 101.94C118.27 101.94 118.27 103.12 119.07 103.12C119.89 103.12 119.89 101.94 119.07 101.94Z" />
				<path id="&lt;Path&gt;" class="shp14" d="M129.18 100.41C128.47 100.41 128.47 101.44 129.18 101.44C129.9 101.44 129.9 100.41 129.18 100.41Z" />
				<path id="&lt;Path&gt;" class="shp14" d="M122.15 105.66C122.11 105.65 122.07 105.64 122.03 105.63C121.22 105.44 121.22 106.74 122.03 106.54C122.07 106.53 122.11 106.52 122.15 106.52C122.6 106.41 122.6 105.77 122.15 105.66Z" />
				<path id="&lt;Path&gt;" class="shp14" d="M124.2 102.05C124.18 102.05 124.15 102.04 124.13 102.04L124.11 102.05C124.05 102.06 124.01 102.06 123.96 102.06C123.31 102.1 123.31 102.96 123.96 103C124.01 103 124.05 103.01 124.11 103.01L124.12 103.02C124.15 103.02 124.18 103.02 124.2 103.01C124.55 103.03 124.71 102.78 124.69 102.53C124.71 102.28 124.55 102.03 124.2 102.05Z" />
				<path id="&lt;Path&gt;" class="shp14" d="M117.23 108.19C116.5 108.19 116.5 109.25 117.23 109.25C117.96 109.25 117.96 108.19 117.23 108.19Z" />
				<path id="&lt;Path&gt;" class="shp14" d="M124.81 112.44C124.48 112.16 124.32 111.9 123.84 112.08C123.63 112.17 123.48 112.5 123.57 112.71C123.67 112.93 123.77 113.07 123.94 113.25C124.45 113.82 125.41 112.95 124.81 112.44Z" />
				<path id="&lt;Path&gt;" class="shp14" d="M131.27 106.12C130.53 106.12 130.53 107.19 131.27 107.19C132.02 107.19 132.02 106.12 131.27 106.12Z" />
				<path id="&lt;Path&gt;" class="shp14" d="M111.56 106.74C111.05 106.74 111.05 107.49 111.56 107.49C112.08 107.49 112.08 106.74 111.56 106.74Z" />
				<path id="&lt;Path&gt;" class="shp14" d="M115.09 112.97C114.96 113.62 116.05 113.62 115.92 112.97C115.82 112.47 115.2 112.47 115.09 112.97Z" />
				<path id="&lt;Path&gt;" class="shp14" d="M120.19 109.87C119.56 109.87 119.56 110.77 120.19 110.77C120.81 110.77 120.81 109.87 120.19 109.87Z" />
				<path id="&lt;Path&gt;" class="shp14" d="M130.79 111.66C130.08 111.66 130.08 112.66 130.79 112.66C131.47 112.66 131.47 111.66 130.79 111.66Z" />
				<path id="&lt;Path&gt;" class="shp14" d="M126.97 107.4C126.82 107.44 126.72 107.49 126.61 107.6C126.5 107.72 126.5 107.88 126.61 108.01C126.72 108.12 126.82 108.16 126.97 108.21C127.69 108.41 127.69 107.19 126.97 107.4Z" />
				<path id="&lt;Path&gt;" class="shp14" d="M110.57 101.58C110.5 101.5 110.43 101.43 110.36 101.36C110.21 101.22 109.96 101.22 109.82 101.36C109.73 101.43 109.68 101.5 109.61 101.58C108.86 102.53 111.31 102.53 110.57 101.58Z" />
				<path id="&lt;Path&gt;" class="shp14" d="M134.23 97.18C133.82 97.18 133.82 97.79 134.23 97.79C134.65 97.79 134.65 97.18 134.23 97.18Z" />
				<path id="&lt;Path&gt;" class="shp14" d="M134.48 101.55C133.75 101.55 133.75 102.6 134.48 102.6C135.21 102.6 135.21 101.55 134.48 101.55Z" />
			</g>
			<g id="&lt;Group&gt;">
				<path id="&lt;Path&gt;" class="shp14" d="M81.98 103.58C82.75 103.58 82.75 104.69 81.98 104.69C81.2 104.69 81.2 103.58 81.98 103.58Z" />
				<path id="&lt;Path&gt;" class="shp14" d="M77.17 101.94C77.99 101.94 77.99 103.12 77.17 103.12C76.36 103.12 76.36 101.94 77.17 101.94Z" />
				<path id="&lt;Path&gt;" class="shp14" d="M67.07 100.41C67.79 100.41 67.79 101.44 67.07 101.44C66.35 101.44 66.35 100.41 67.07 100.41Z" />
				<path id="&lt;Path&gt;" class="shp14" d="M74.1 105.66C74.14 105.65 74.18 105.64 74.21 105.63C75.03 105.44 75.03 106.74 74.21 106.54C74.18 106.53 74.14 106.52 74.1 106.52C73.64 106.41 73.64 105.77 74.1 105.66Z" />
				<path id="&lt;Path&gt;" class="shp14" d="M72.05 102.05C72.08 102.05 72.09 102.04 72.12 102.04L72.14 102.05C72.19 102.06 72.24 102.06 72.29 102.06C72.94 102.1 72.94 102.96 72.29 103C72.24 103 72.19 103.01 72.14 103.01L72.13 103.02C72.09 103.02 72.08 103.02 72.05 103.01C71.71 103.03 71.55 102.78 71.56 102.53C71.55 102.28 71.71 102.03 72.05 102.05Z" />
				<path id="&lt;Path&gt;" class="shp14" d="M79.02 108.19C79.76 108.19 79.76 109.25 79.02 109.25C78.28 109.25 78.28 108.19 79.02 108.19Z" />
				<path id="&lt;Path&gt;" class="shp14" d="M71.44 112.44C71.78 112.16 71.93 111.9 72.4 112.08C72.63 112.17 72.77 112.5 72.68 112.71C72.58 112.93 72.47 113.07 72.31 113.25C71.81 113.82 70.85 112.95 71.44 112.44Z" />
				<path id="&lt;Path&gt;" class="shp14" d="M64.97 106.12C65.72 106.12 65.72 107.19 64.97 107.19C64.23 107.19 64.23 106.12 64.97 106.12Z" />
				<path id="&lt;Path&gt;" class="shp14" d="M84.69 106.74C85.2 106.74 85.2 107.49 84.69 107.49C84.18 107.49 84.18 106.74 84.69 106.74Z" />
				<path id="&lt;Path&gt;" class="shp14" d="M81.16 112.97C81.29 113.62 80.2 113.62 80.33 112.97C80.43 112.47 81.06 112.47 81.16 112.97Z" />
				<path id="&lt;Path&gt;" class="shp14" d="M76.06 109.87C76.69 109.87 76.69 110.77 76.06 110.77C75.44 110.77 75.44 109.87 76.06 109.87Z" />
				<path id="&lt;Path&gt;" class="shp14" d="M65.47 111.66C66.16 111.66 66.16 112.66 65.47 112.66C64.77 112.66 64.77 111.66 65.47 111.66Z" />
				<path id="&lt;Path&gt;" class="shp14" d="M69.29 107.4C69.43 107.44 69.53 107.49 69.63 107.6C69.75 107.72 69.75 107.88 69.63 108.01C69.53 108.12 69.43 108.16 69.29 108.21C68.56 108.41 68.56 107.19 69.29 107.4Z" />
				<path id="&lt;Path&gt;" class="shp14" d="M85.69 101.58C85.75 101.5 85.82 101.43 85.89 101.36C86.04 101.22 86.29 101.22 86.44 101.36C86.52 101.43 86.58 101.5 86.64 101.58C87.39 102.53 84.94 102.53 85.69 101.58Z" />
				<path id="&lt;Path&gt;" class="shp14" d="M62.02 97.18C62.44 97.18 62.44 97.79 62.02 97.79C61.6 97.79 61.6 97.18 62.02 97.18Z" />
				<path id="&lt;Path&gt;" class="shp14" d="M61.78 101.55C62.5 101.55 62.5 102.6 61.78 102.6C61.04 102.6 61.04 101.55 61.78 101.55Z" />
			</g>
			<g id="&lt;Group&gt;">
				<path id="&lt;Compound Path&gt;" fill-rule="evenodd" class="shp11" d="M142.52 86.71L143.19 93.74L138.86 92.51L137.53 100.62C136.15 107.93 131.1 111.37 122.37 110.93C109.26 111.47 102.01 106.6 100.62 96.33C100.16 95.52 99.53 95.03 98.86 94.71C98.36 94.54 97.55 94.3 96.59 94.22C96.5 94.23 96.42 94.22 96.34 94.22C96.26 94.22 96.19 94.23 96.11 94.22C95.14 94.3 94.33 94.54 93.83 94.71C93.16 95.03 92.53 95.52 92.06 96.33C90.67 106.6 83.42 111.47 70.31 110.93C61.58 111.37 56.53 107.93 55.15 100.62L53.82 92.51L49.89 93.91L50.57 86.57L54.5 85.82C56.33 82.85 64.46 81.98 78.9 83.21C86.01 83.85 90.83 85.44 93.36 87.98C93.85 88.55 94.85 88.99 96.35 89.29C97.84 88.99 98.83 88.55 99.32 87.98C101.86 85.44 106.68 83.85 113.8 83.21C128.22 81.98 136.35 82.85 138.18 85.82L142.52 86.71ZM89.36 88.77C87.51 86.26 79.66 85.08 65.82 85.21C56.93 86 53.93 90.45 56.82 98.55C57.92 104.49 60.55 107.68 64.71 108.13C77.3 110.63 85.33 108.01 88.81 100.28C91.25 94.02 91.44 90.18 89.36 88.77ZM126.87 85.21C113.02 85.08 105.17 86.26 103.32 88.77C101.24 90.18 101.43 94.02 103.87 100.28C107.35 108.01 115.39 110.63 127.98 108.13C132.14 107.68 134.77 104.49 135.86 98.55C138.75 90.45 135.75 86 126.87 85.21Z" />
				<path id="&lt;Path&gt;" class="shp15" d="M88.81 100.28C85.33 108.01 77.3 110.63 64.71 108.13C60.55 107.68 57.92 104.49 56.82 98.55C53.93 90.45 56.93 86 65.82 85.21C79.66 85.08 87.51 86.26 89.36 88.77C91.44 90.18 91.25 94.02 88.81 100.28Z" />
				<path id="&lt;Path&gt;" class="shp15" d="M135.86 98.55C134.77 104.49 132.14 107.68 127.98 108.13C115.39 110.63 107.35 108.01 103.87 100.28C101.43 94.02 101.24 90.18 103.32 88.77C105.17 86.26 113.02 85.08 126.87 85.21C135.75 86 138.75 90.45 135.86 98.55Z" />
			</g>
		</g>
		<g id="&lt;Group&gt;">
			<g id="&lt;Group&gt;">
				<path id="&lt;Path&gt;" class="shp16" d="M79.23 240L79.23 176.91L49.07 188.68C57.08 196.88 56.12 211.75 46.15 218.32L51.69 240L79.23 240Z" />
			</g>
			<g id="&lt;Group&gt;">
				<path id="&lt;Path&gt;" class="shp16" d="M142.48 240L148.08 218.08C138.53 211.41 137.65 196.93 145.42 188.81L116.06 177.19L116.06 240L142.48 240Z" />
			</g>
		</g>
		<g id="&lt;Group&gt;">
			<path id="&lt;Path&gt;" class="shp17" d="M96.91 178.47L84.21 169.43L69.21 179.12L84.1 196.76L96.91 178.47Z" />
			<path id="&lt;Path&gt;" class="shp17" d="M96.87 178.47L109.58 169.43L124.58 179.12L109.68 196.76L96.87 178.47Z" />
		</g>
		<g id="&lt;Group&gt;">
			<path id="&lt;Path&gt;" class="shp0" d="M134.46 54.7C141.13 131.83 137.9 178.96 124.76 196.08C144.48 192 155.21 186.91 156.96 180.79L161.06 62.04C159.1 33.31 145.3 16.95 119.67 12.98C117.37 32.24 122.3 46.15 134.46 54.7Z" />
		</g>
	</g>
</svg>