<svg version="1.2" baseProfile="tiny-ps" xmlns="http://www.w3.org/2000/svg" viewBox="0 0 200 240" width="200" height="240">
	<title>New Project</title>
	<style>
		tspan { white-space:pre }
		.shp0 { fill: #491b13 } 
		.shp1 { fill: #190201 } 
		.shp2 { fill: #ffc289 } 
		.shp3 { mix-blend-mode: multiply;fill: #c4c5c7 } 
		.shp4 { fill: #ffffff } 
		.shp5 { fill: #c4c5c7 } 
		.shp6 { fill: #ececed } 
		.shp7 { fill: #dda574 } 
		.shp8 { fill: #341e15 } 
		.shp9 { fill: #160903 } 
		.shp10 { fill: #190b05 } 
		.shp11 { fill: #2e0d0a } 
		.shp12 { opacity: 0.2;fill: #ff9085 } 
		.shp13 { fill: #e76457 } 
		.shp14 { fill: #123740 } 
		.shp15 { fill: #c6dae2 } 
		.shp16 { fill: #1e2830 } 
		.shp17 { fill: #2c2e35 } 
		.shp18 { opacity: 0.2;fill: #35383d } 
	</style>
	<g id="&lt;Group&gt;">
		<g id="&lt;Group&gt;">
			<g id="&lt;Group&gt;">
				<path id="&lt;Path&gt;" class="shp0" d="M141.14 240L141.84 70.94L34.26 70.94C33.79 92.07 32.44 178.28 40.09 240L141.14 240Z" />
			</g>
			<g id="&lt;Group&gt;">
				<g id="&lt;Group&gt;">
					<path id="&lt;Path&gt;" class="shp1" d="M141.23 240L141.84 70.94L47.58 70.94C47.17 92.07 45.99 178.28 52.69 240L141.23 240Z" />
				</g>
			</g>
		</g>
		<g id="&lt;Group&gt;">
			<path id="&lt;Path&gt;" class="shp2" d="M121.03 202.18C121.58 206.41 122.19 210.63 122.85 214.84L124.79 227.49L126.94 240L148.43 240L142.91 198.89C142.13 192.83 136.58 188.6 130.52 189.39C124.46 190.18 120.19 195.74 120.99 201.79L121.03 202.18Z" />
		</g>
		<g id="&lt;Group&gt;">
			<path id="&lt;Path&gt;" class="shp2" d="M48.76 240L55.64 202.55C56.77 196.54 52.81 190.8 46.8 189.67C40.8 188.55 35.02 192.5 33.88 198.51L33.82 198.89C33.02 203.15 32.27 207.42 31.58 211.7L29.46 224.53L27.2 240L48.76 240Z" />
		</g>
		<g id="&lt;Group&gt;">
			<path id="&lt;Path&gt;" class="shp2" d="M100.67 183.32L74.09 183.32L78.3 154.72L96.81 154.72L100.67 183.32Z" />
			<path id="&lt;Path&gt;" class="shp3" d="M83.53 166.05C88.5 165.34 95.26 164.59 97.75 160.41L96.81 154.72L78.3 154.72L76.22 168.84C78.39 167.45 80.78 166.44 83.53 166.05Z" />
		</g>
		<path id="&lt;Path&gt;" class="shp2" d="M44.12 240L131.09 240L136.18 218.56C141.11 204.35 140.3 194.51 133.77 189.06L99.93 174.94L75.27 174.94L41.43 189.06C34.9 194.51 34.09 204.35 39.02 218.56L44.12 240Z" />
		<path id="&lt;Path&gt;" class="shp4" d="M131.09 240L136.1 218.89C127.03 212.08 126.18 197.27 133.58 188.97L103.38 176.14L87.5 177.93L71.38 176.5L41.94 188.84C49.56 197.23 48.63 212.43 39.16 219.15L44.12 240L131.09 240Z" />
		<g id="&lt;Group&gt;">
			<g id="&lt;Group&gt;">
				<g id="&lt;Group&gt;">
					<path id="&lt;Path&gt;" class="shp2" d="M129.86 102.5C128.9 109.59 131.75 115.82 136.21 116.41C140.66 117 145.05 111.74 145.98 104.65C146.93 97.56 144.08 91.34 139.61 90.75C135.16 90.16 130.79 95.42 129.86 102.5Z" />
					<g id="&lt;Group&gt;" style="mix-blend-mode: multiply">
						<path id="&lt;Path&gt;" class="shp5" d="M135.31 100.39C135.34 100.13 135.4 99.78 135.49 99.35C135.61 98.7 135.9 97.78 136.39 96.79C136.88 95.84 137.7 94.73 138.82 94.66C139.09 94.63 139.38 94.67 139.67 94.73C139.72 94.76 140.02 94.85 140.12 94.91C140.21 94.99 140.32 95.01 140.44 95.12C140.92 95.46 141.32 96.01 141.61 96.63C141.9 97.25 142.12 97.94 142.25 98.63C142.37 99.31 142.47 100.03 142.41 100.65C142.32 101.36 142.33 102.09 142.21 102.7C142.1 103.34 142 103.93 141.9 104.48C141.76 105.04 141.66 105.55 141.56 106.01C141.48 106.47 141.32 106.85 141.25 107.18C141.12 107.61 141.03 107.96 140.97 108.22C141.11 107.99 141.29 107.68 141.51 107.29C141.66 106.98 141.89 106.63 142.07 106.19C142.27 105.76 142.49 105.26 142.71 104.72C142.91 104.16 143.09 103.53 143.28 102.87C143.49 102.2 143.56 101.53 143.68 100.8C143.8 99.98 143.77 99.19 143.63 98.38C143.5 97.58 143.27 96.78 142.91 96C142.55 95.24 142 94.5 141.24 93.96C141.07 93.83 140.81 93.72 140.58 93.61C140.34 93.51 140.28 93.5 139.97 93.42C139.53 93.35 139.09 93.33 138.63 93.39C137.73 93.53 137.01 94.1 136.55 94.68C136.08 95.27 135.82 95.89 135.62 96.47C135.24 97.64 135.22 98.64 135.21 99.32C135.22 99.79 135.25 100.14 135.31 100.39Z" />
					</g>
					<path id="&lt;Path&gt;" class="shp3" d="M135.31 100.39C135.01 99.9 135.82 99.57 137.75 99.42C139.93 99.7 140.46 101.03 139.34 103.39C138.99 104.15 138.69 104.94 138.54 105.78C138.32 106.96 138.95 108.55 138.23 109.61C137.32 110.98 134.71 110.26 134.45 108.72C134.26 107.54 135.62 105.48 136.26 104.63C137.54 102.89 137.22 101.48 135.31 100.39Z" />
					<g id="&lt;Group&gt;" style="mix-blend-mode: multiply">
						<path id="&lt;Path&gt;" class="shp5" d="M134.45 108.56C134.45 108.57 134.35 108.62 134.23 108.76C134.1 108.9 133.96 109.13 133.85 109.43C133.77 109.58 133.77 109.75 133.73 109.93C133.71 110.12 133.67 110.32 133.72 110.51C133.75 110.72 133.77 110.93 133.82 111.15C133.89 111.35 134.01 111.53 134.1 111.73C134.22 111.91 134.3 112.12 134.46 112.26C134.6 112.41 134.78 112.54 134.91 112.66C135.21 112.93 135.54 113.07 135.85 113.15C136.23 113.28 136.57 113.34 136.85 113.33C136.71 113.05 136.54 112.77 136.34 112.49C136.26 112.37 136.17 112.26 136.07 112.16C135.99 112.03 135.93 111.89 135.83 111.77C135.75 111.65 135.68 111.52 135.58 111.4C135.47 111.29 135.44 111.14 135.36 111.02C135.18 110.77 135.08 110.5 134.96 110.25C134.88 110.12 134.85 109.99 134.81 109.87C134.78 109.73 134.7 109.61 134.67 109.48C134.58 109.16 134.5 108.85 134.45 108.56Z" />
					</g>
				</g>
				<g id="&lt;Group&gt;">
					<path id="&lt;Path&gt;" class="shp2" d="M46.11 102.5C47.06 109.59 44.21 115.82 39.75 116.41C35.3 117 30.92 111.74 29.98 104.65C29.04 97.56 31.89 91.34 36.35 90.75C40.8 90.16 45.18 95.42 46.11 102.5Z" />
					<g id="&lt;Group&gt;" style="mix-blend-mode: multiply">
						<path id="&lt;Path&gt;" class="shp5" d="M40.65 100.39C40.62 100.13 40.56 99.78 40.47 99.35C40.34 98.7 40.06 97.78 39.58 96.79C39.09 95.84 38.26 94.73 37.15 94.66C36.88 94.63 36.58 94.67 36.29 94.73C36.24 94.76 35.94 94.85 35.85 94.91C35.76 94.99 35.64 95.01 35.52 95.12C35.04 95.46 34.64 96.01 34.36 96.63C34.06 97.25 33.85 97.94 33.71 98.63C33.59 99.31 33.49 100.03 33.55 100.65C33.64 101.36 33.63 102.09 33.75 102.7C33.86 103.34 33.96 103.93 34.06 104.48C34.2 105.04 34.3 105.55 34.4 106.01C34.49 106.47 34.63 106.85 34.71 107.18C34.84 107.61 34.93 107.96 34.99 108.22C34.85 107.99 34.67 107.68 34.46 107.29C34.3 106.98 34.08 106.63 33.89 106.19C33.7 105.76 33.47 105.26 33.25 104.72C33.04 104.16 32.87 103.53 32.69 102.87C32.48 102.2 32.4 101.53 32.28 100.8C32.16 99.98 32.2 99.19 32.33 98.38C32.46 97.58 32.69 96.78 33.05 96C33.42 95.24 33.96 94.5 34.72 93.96C34.89 93.83 35.15 93.72 35.38 93.61C35.63 93.51 35.69 93.5 35.99 93.42C36.44 93.35 36.88 93.33 37.33 93.39C38.23 93.53 38.96 94.1 39.41 94.68C39.89 95.27 40.14 95.89 40.34 96.47C40.72 97.64 40.75 98.64 40.75 99.32C40.74 99.79 40.71 100.14 40.65 100.39Z" />
					</g>
					<path id="&lt;Path&gt;" class="shp3" d="M40.65 100.39C40.96 99.9 40.14 99.57 38.21 99.42C36.03 99.7 35.49 101.03 36.61 103.39C36.97 104.15 37.27 104.94 37.43 105.78C37.65 106.96 37.02 108.55 37.73 109.61C38.65 110.98 41.26 110.26 41.51 108.72C41.7 107.54 40.34 105.48 39.7 104.63C38.43 102.89 38.74 101.48 40.65 100.39Z" />
					<g id="&lt;Group&gt;" style="mix-blend-mode: multiply">
						<path id="&lt;Path&gt;" class="shp5" d="M41.52 108.56C41.52 108.57 41.62 108.62 41.73 108.76C41.86 108.9 42 109.13 42.11 109.43C42.19 109.58 42.21 109.75 42.23 109.93C42.25 110.12 42.3 110.32 42.25 110.51C42.21 110.72 42.19 110.93 42.14 111.15C42.07 111.35 41.96 111.53 41.86 111.73C41.75 111.91 41.65 112.12 41.5 112.26C41.36 112.41 41.19 112.54 41.04 112.66C40.75 112.93 40.42 113.07 40.12 113.15C39.73 113.28 39.4 113.34 39.11 113.33C39.25 113.05 39.42 112.77 39.63 112.49C39.7 112.37 39.79 112.26 39.89 112.16C39.97 112.03 40.03 111.89 40.12 111.77C40.21 111.65 40.29 111.52 40.39 111.4C40.5 111.29 40.53 111.14 40.6 111.02C40.78 110.77 40.88 110.5 41 110.25C41.08 110.12 41.11 109.99 41.16 109.87C41.19 109.73 41.26 109.61 41.29 109.48C41.38 109.16 41.46 108.85 41.52 108.56Z" />
					</g>
				</g>
			</g>
			<path id="&lt;Path&gt;" class="shp2" d="M111.95 28.96C104.95 25.84 96.78 24.25 87.45 24.21C78.19 24.25 70.06 25.84 63.06 28.96C36.67 41.62 31.62 74.29 47.9 126.98C51.39 138.28 62.02 146.96 72.02 153.28C82.34 159.8 92.71 159.78 102.99 153.28C112.98 146.96 123.62 138.28 127.11 126.98C143.39 74.29 138.34 41.62 111.95 28.96Z" />
			<g id="&lt;Group&gt;" style="mix-blend-mode: multiply">
				<g id="&lt;Group&gt;">
					<path id="&lt;Path&gt;" class="shp6" d="M111.95 28.96C104.96 25.85 96.82 24.26 87.51 24.21C94.95 24.26 101.46 25.85 107.03 28.96C128.13 41.62 132.17 74.29 119.15 126.98C116.36 138.28 107.86 146.96 99.88 153.28C95.77 156.53 91.64 158.16 87.51 158.16C92.68 158.16 97.85 156.53 102.99 153.28C112.98 146.96 123.62 138.28 127.11 126.98C143.39 74.29 138.34 41.62 111.95 28.96Z" />
					<path id="&lt;Path&gt;" class="shp6" d="M75.13 153.28C67.14 146.96 58.64 138.28 55.85 126.98C42.84 74.29 46.88 41.62 67.97 28.96C73.56 25.84 80.05 24.26 87.45 24.21C78.19 24.25 70.06 25.84 63.06 28.96C36.67 41.62 31.62 74.29 47.9 126.98C51.39 138.28 62.02 146.96 72.02 153.28C77.17 156.54 82.34 158.16 87.51 158.16C83.38 158.16 79.25 156.54 75.13 153.28Z" />
				</g>
			</g>
			<g id="&lt;Group&gt;">
				<path id="&lt;Path&gt;" class="shp7" d="M79.94 113.4C82.61 113.29 85.29 113.18 87.96 113.07C88.31 113.14 88.65 113.03 89.02 113.11C89.38 113.1 89.74 113.1 90.14 113.16C90.92 113.15 91.78 113.24 92.63 113.24C93.51 113.33 94.3 113.29 94.95 113.36C95.37 113.39 95.73 113.43 96.02 113.48C96.02 113.76 95.97 114.11 95.88 114.53C95.72 115.17 95.5 116.1 94.88 116.97C94.32 117.9 93.4 118.78 92.21 119.5C91.59 119.8 90.93 120.14 90.2 120.31C89.47 120.47 88.71 120.63 87.94 120.6C87.17 120.58 86.41 120.52 85.69 120.29C84.95 120.14 84.3 119.79 83.69 119.48C82.5 118.77 81.57 117.88 81 116.96C80.42 116.04 80.13 115.15 80.02 114.48C79.94 114.05 79.91 113.69 79.94 113.4Z" />
			</g>
			<g id="&lt;Group&gt;">
				<g id="&lt;Group&gt;">
					<g id="&lt;Group&gt;">
						<g id="&lt;Group&gt;">
							<path id="&lt;Path&gt;" class="shp8" d="M61.5 92.98C61.58 95.74 63.89 97.9 66.64 97.82C69.41 97.73 71.57 95.42 71.49 92.66C71.4 89.91 69.09 87.74 66.33 87.83C63.56 87.91 61.41 90.22 61.5 92.98Z" />
							<path id="&lt;Path&gt;" class="shp9" d="M64.71 93C64.74 94 65.57 94.78 66.57 94.75C67.56 94.72 68.35 93.88 68.32 92.88C68.29 91.88 67.45 91.1 66.45 91.13C65.46 91.17 64.67 92 64.71 93Z" />
							<g id="&lt;Group&gt;">
								<g id="&lt;Group&gt;">
									<path id="&lt;Path&gt;" class="shp10" d="M75.42 92.26C75.03 92.29 74.57 92.2 74.18 92.07L72.98 91.63C72.24 91.25 71.52 90.83 70.81 90.38L70.77 90.33C70.08 89.85 69.23 89.39 68.42 89.15C67.6 88.9 66.78 88.81 65.99 88.99C65.2 89.12 64.44 89.48 63.71 89.99C62.98 90.49 62.33 91.15 61.66 91.84L61.69 91.79C61.35 92.25 61 92.53 60.59 92.82C60.2 93.09 59.75 93.3 59.28 93.41C58.35 93.64 57.38 93.51 56.63 93.09C57.49 93.1 58.3 92.96 58.92 92.53C59.23 92.32 59.52 92.09 59.76 91.82C59.99 91.56 60.22 91.22 60.34 90.98L60.34 90.97L60.37 90.92L61.28 89.57C61.67 89.18 62.01 88.74 62.45 88.38C63.3 87.61 64.41 87.08 65.6 86.81C66.8 86.6 68.06 86.75 69.13 87.21C70.21 87.68 71.11 88.29 71.91 89.18L71.87 89.14C72.44 89.66 72.97 90.24 73.53 90.81L74.42 91.59C74.73 91.82 75.03 92.07 75.42 92.26Z" />
								</g>
							</g>
							<g id="&lt;Group&gt;">
								<g id="&lt;Group&gt;">
									<path id="&lt;Path&gt;" class="shp10" d="M61.44 91.58C60.46 91.87 59.46 92 58.45 91.97C57.69 91.94 56.89 91.71 56.5 91.26C56.13 90.81 56.17 90.4 56.14 90.42C56.16 90.4 56.22 90.81 56.62 91.14C57.03 91.46 57.74 91.52 58.42 91.41C59.34 91.26 60.22 90.98 61.06 90.55L61.44 91.58Z" />
								</g>
							</g>
							<g id="&lt;Group&gt;">
								<g id="&lt;Group&gt;">
									<path id="&lt;Path&gt;" class="shp10" d="M62.15 90.76C62.15 90.76 60.63 90.94 59.13 90.64C58.39 90.5 57.63 90.14 57.33 89.63C57.03 89.12 57.15 88.73 57.11 88.73C57.14 88.72 57.12 89.14 57.46 89.53C57.81 89.91 58.51 90.09 59.19 90.09C60.13 90.1 61.04 89.96 61.94 89.68L62.15 90.76Z" />
								</g>
							</g>
							<path id="&lt;Path&gt;" class="shp4" d="M62.79 91.73C62.81 92.42 63.39 92.96 64.07 92.94C64.77 92.92 65.3 92.34 65.28 91.65C65.26 90.96 64.68 90.42 63.99 90.44C63.31 90.46 62.77 91.04 62.79 91.73Z" />
							<path id="&lt;Path&gt;" class="shp4" d="M64.72 92.96C64.74 93.31 65.03 93.58 65.37 93.57C65.71 93.56 65.99 93.27 65.98 92.92C65.97 92.58 65.68 92.31 65.33 92.31C64.99 92.33 64.72 92.61 64.72 92.96Z" />
						</g>
						<path id="&lt;Path&gt;" class="shp11" d="M53.85 82.86C57.64 77.34 64.53 76.08 74.53 79.06C77.17 79.87 79.06 80.7 80.18 81.57C81.55 81.39 82.03 79.54 81.6 76C64.84 69.37 55.59 71.66 53.85 82.86Z" />
					</g>
				</g>
				<g id="&lt;Group&gt;">
					<g id="&lt;Group&gt;">
						<g id="&lt;Group&gt;">
							<path id="&lt;Path&gt;" class="shp8" d="M114.46 92.98C114.37 95.74 112.07 97.9 109.32 97.82C106.55 97.73 104.38 95.42 104.47 92.66C104.56 89.91 106.87 87.74 109.63 87.83C112.39 87.91 114.55 90.22 114.46 92.98Z" />
							<path id="&lt;Path&gt;" class="shp9" d="M111.25 93C111.22 94 110.39 94.78 109.4 94.75C108.4 94.72 107.61 93.88 107.64 92.88C107.67 91.88 108.51 91.1 109.51 91.13C110.5 91.17 111.28 92 111.25 93Z" />
							<g id="&lt;Group&gt;">
								<g id="&lt;Group&gt;">
									<path id="&lt;Path&gt;" class="shp10" d="M100.54 92.26C100.93 92.07 101.23 91.82 101.54 91.59L102.43 90.81C102.99 90.24 103.53 89.66 104.09 89.14L104.05 89.18C104.85 88.29 105.75 87.68 106.83 87.21C107.9 86.75 109.17 86.6 110.37 86.81C111.55 87.08 112.67 87.61 113.51 88.37C113.96 88.74 114.3 89.18 114.69 89.57L115.59 90.92L115.63 90.97L115.63 90.98C115.75 91.22 115.97 91.56 116.21 91.82C116.45 92.09 116.73 92.32 117.04 92.53C117.66 92.96 118.47 93.1 119.33 93.09C118.58 93.51 117.61 93.64 116.68 93.41C116.21 93.3 115.77 93.09 115.37 92.82C114.96 92.53 114.61 92.25 114.27 91.79L114.31 91.84C113.64 91.15 112.98 90.49 112.25 89.99C111.52 89.48 110.77 89.12 109.97 88.99C109.19 88.81 108.37 88.9 107.54 89.15C106.73 89.39 105.88 89.85 105.2 90.33L105.15 90.38C104.44 90.83 103.72 91.26 102.97 91.63L101.78 92.07C101.38 92.21 100.93 92.29 100.54 92.26Z" />
								</g>
							</g>
							<g id="&lt;Group&gt;">
								<g id="&lt;Group&gt;">
									<path id="&lt;Path&gt;" class="shp10" d="M114.9 90.55C115.74 90.98 116.62 91.26 117.54 91.41C118.21 91.52 118.93 91.46 119.34 91.14C119.74 90.81 119.79 90.4 119.81 90.42C119.79 90.4 119.83 90.81 119.46 91.26C119.07 91.72 118.26 91.94 117.51 91.97C116.49 92 115.5 91.87 114.52 91.58L114.9 90.55Z" />
								</g>
							</g>
							<g id="&lt;Group&gt;">
								<g id="&lt;Group&gt;">
									<path id="&lt;Path&gt;" class="shp10" d="M114.03 89.68C114.92 89.96 115.84 90.1 116.77 90.09C117.45 90.09 118.14 89.91 118.5 89.52C118.84 89.14 118.82 88.72 118.85 88.73C118.82 88.73 118.93 89.12 118.63 89.63C118.33 90.14 117.57 90.5 116.83 90.64C115.33 90.94 113.81 90.76 113.81 90.76L114.03 89.68Z" />
								</g>
							</g>
							<path id="&lt;Path&gt;" class="shp4" d="M113.17 91.73C113.15 92.42 112.57 92.96 111.88 92.94C111.2 92.92 110.66 92.34 110.68 91.65C110.7 90.96 111.27 90.42 111.96 90.44C112.65 90.46 113.19 91.04 113.17 91.73Z" />
							<path id="&lt;Path&gt;" class="shp4" d="M111.23 92.96C111.22 93.31 110.93 93.58 110.58 93.57C110.25 93.56 109.97 93.27 109.98 92.92C109.99 92.58 110.28 92.31 110.63 92.31C110.97 92.33 111.24 92.61 111.23 92.96Z" />
						</g>
						<path id="&lt;Path&gt;" class="shp11" d="M122.11 82.86C118.32 77.34 111.43 76.08 101.43 79.06C98.79 79.87 96.91 80.7 95.79 81.57C94.41 81.39 93.93 79.54 94.36 76C111.12 69.37 120.37 71.66 122.11 82.86Z" />
					</g>
				</g>
			</g>
			<g id="&lt;Group&gt;">
				<path id="&lt;Path&gt;" class="shp12" d="M126.82 103.28C126.45 99.23 120.68 96.44 113.91 97.04C107.15 97.65 101.96 101.42 102.31 105.47C102.68 109.52 108.46 112.31 115.22 111.71C121.99 111.1 127.19 107.33 126.82 103.28Z" />
				<path id="&lt;Path&gt;" class="shp12" d="M61.1 97.04C54.32 96.44 48.54 99.23 48.18 103.28C47.83 107.33 53.02 111.1 59.79 111.71C66.55 112.31 72.32 109.52 72.69 105.47C73.05 101.42 67.87 97.65 61.1 97.04Z" />
			</g>
			<path id="&lt;Path&gt;" class="shp4" d="M138.44 114.62C138.44 116.22 137.14 117.52 135.55 117.52C133.95 117.52 132.65 116.22 132.65 114.62C132.65 113.02 133.95 111.73 135.55 111.73C137.14 111.73 138.44 113.02 138.44 114.62Z" />
			<path id="&lt;Path&gt;" class="shp4" d="M43.31 114.62C43.31 116.22 42.01 117.52 40.41 117.52C38.81 117.52 37.53 116.22 37.53 114.62C37.53 113.02 38.81 111.73 40.41 111.73C42.01 111.73 43.31 113.02 43.31 114.62Z" />
			<g id="&lt;Group&gt;">
				<path id="&lt;Path&gt;" class="shp4" d="M73.07 128.65C76.16 135.16 81.67 139.51 87.98 139.51C94.29 139.51 99.8 135.16 102.89 128.65L73.07 128.65Z" />
				<g id="&lt;Group&gt;">
					<path id="&lt;Path&gt;" class="shp13" d="M73.07 128.65C73.46 128.9 73.96 129.27 74.55 129.76C74.97 130.13 75.54 130.57 76.13 130.97C76.74 131.38 77.31 131.84 78.07 132.27C78.79 132.72 79.52 133.2 80.35 133.58C81.11 134.06 82 134.31 82.81 134.7C83.68 134.91 84.5 135.29 85.38 135.37C85.82 135.42 86.24 135.58 86.68 135.55L87.33 135.59L87.66 135.61L87.82 135.63L87.9 135.64L87.94 135.64L87.96 135.64L87.97 135.64C87.83 135.65 88.31 135.63 87.65 135.66C88.85 135.58 90.25 135.5 90.72 135.33C91.36 135.3 92.32 134.9 93.15 134.69C93.96 134.3 94.85 134.05 95.61 133.57C96.44 133.2 97.17 132.71 97.88 132.26C98.64 131.84 99.25 131.33 99.86 130.92C100.47 130.5 101.01 130.1 101.42 129.74C102 129.28 102.49 128.92 102.89 128.65C102.9 129.1 102.86 129.71 102.76 130.5C102.7 131.09 102.61 131.82 102.31 132.58C102.05 133.36 101.81 134.31 101.27 135.19C100.79 136.11 100.2 137.1 99.37 138.01C98.62 139 97.58 139.83 96.48 140.69C95.91 141.1 95.25 141.41 94.61 141.76C94.01 142.13 93.24 142.41 92.4 142.64C90.58 143.24 89.54 143.21 88.31 143.36L87.96 143.37L87.95 143.37L87.91 143.37L87.84 143.36L87.69 143.35L87.4 143.33L86.82 143.27L85.66 143.15C84.88 143.12 84.16 142.79 83.42 142.6C81.94 142.22 80.68 141.4 79.49 140.68C78.39 139.82 77.35 139 76.6 138.01C75.77 137.09 75.18 136.11 74.7 135.18C74.17 134.31 73.89 133.32 73.63 132.53C73.32 131.74 73.26 131.05 73.2 130.49C73.11 129.73 73.07 129.11 73.07 128.65Z" />
				</g>
				<g id="&lt;Group&gt;">
					<path id="&lt;Path&gt;" class="shp13" d="M102.89 128.65C101.65 129.21 100.1 129.69 98.23 130.08C95.44 130.71 91.71 131.16 87.98 131.15C84.26 131.17 80.53 130.72 77.73 130.09C75.87 129.69 74.32 129.21 73.07 128.65C74.32 128.09 75.87 127.61 77.73 127.22C80.53 126.58 84.26 126.13 87.98 126.15C91.71 126.14 95.44 126.59 98.23 127.22C100.1 127.62 101.65 128.09 102.89 128.65Z" />
				</g>
			</g>
			<g id="&lt;Group&gt;">
				<path id="&lt;Path&gt;" class="shp0" d="M41.9 102.91C41.9 94.31 39.51 90.33 34.74 90.97C30.45 55.31 36.49 35.43 52.87 31.33C52.02 24.96 55.95 19.02 64.65 13.5C90.29 -0.21 113.08 1.95 133.03 20C151.92 32.73 153.84 56.39 138.79 90.97C134.02 90.33 131.63 94.31 131.63 102.91C130.99 74.25 126.21 57.06 117.3 51.33C96.39 39.75 76.04 39.75 56.23 51.33C50.77 57.39 48.57 64.87 49.63 73.79C44.96 76.33 42.38 86.04 41.9 102.91Z" />
			</g>
			<g id="&lt;Group&gt;">
				<path id="&lt;Path&gt;" class="shp2" d="M60.31 51.58L56.96 38.44L63.79 50.15L60.31 51.58Z" />
			</g>
		</g>
		<g id="&lt;Group&gt;">
			<g id="&lt;Group&gt;">
				<path id="&lt;Path&gt;" class="shp14" d="M70.63 240L70.63 176.81L41.94 188.84C49.56 197.23 48.63 212.43 39.16 219.15L44.12 240L70.63 240Z" />
			</g>
			<g id="&lt;Group&gt;">
				<path id="&lt;Path&gt;" class="shp14" d="M131.09 240L136.1 218.89C127.03 212.08 126.18 197.27 133.58 188.97L105.65 177.1L105.65 240L131.09 240Z" />
			</g>
		</g>
		<g id="&lt;Group&gt;">
			<path id="&lt;Path&gt;" class="shp15" d="M87.41 177.74L75.32 168.49L61.05 178.4L75.22 196.43L87.41 177.74Z" />
			<path id="&lt;Path&gt;" class="shp15" d="M87.37 177.74L99.45 168.49L113.72 178.4L99.56 196.43L87.37 177.74Z" />
		</g>
		<path id="&lt;Compound Path&gt;" fill-rule="evenodd" class="shp16" d="M94.99 221.29C95.28 222.08 94.09 222.49 93.39 222.03C88.55 218.78 89.42 212.4 90.15 207.95C91.2 201.59 92.77 195.85 89.19 189.93C88.68 190.23 88.16 190.51 87.65 190.76C83 197.84 80.04 205.92 81.39 213.98C82.31 219.45 85.5 227.22 81.47 232.27C80.71 233.21 78.93 232.6 79.24 231.51C81.59 223.12 77.08 215.01 78.48 206.54C79.36 201.22 80.91 194.39 85.51 190.02C85.57 189.82 85.7 189.63 85.95 189.47C81.65 188.81 77.42 185.41 74.88 182.98C73.44 181.59 68.57 176.96 72.08 175.29C75.55 173.63 79.29 177.69 81.17 179.46C83.33 181.51 85.63 183.67 87.54 185.96C88.34 179.82 93.32 172.79 99.95 170.59C100.5 170.41 101.07 170.78 101.23 171.16C103.87 177.72 97.14 184.99 90.4 189.21C94.81 193.13 94.49 198.4 93.73 203.45C93.3 206.41 92.5 209.38 92.5 212.38C92.49 215.71 93.83 218.19 94.99 221.29ZM85.48 186.91C84.25 185.59 83.02 184.27 81.73 183C79.98 181.27 77.05 177.52 74.16 176.91C72.87 176.64 74.31 178.63 74.52 178.9C75.56 180.25 76.82 181.49 78.23 182.61C80.34 184.3 82.71 186 85.48 186.91ZM89.13 187.56C94.83 183.88 100.88 178.23 99.51 172.57C93.15 175.2 90.3 182.02 89.13 187.56Z" />
		<path id="&lt;Path&gt;" class="shp14" d="M48.76 240L55.64 202.55C56.77 196.54 53.07 189.41 47.06 188.28C41.06 187.15 34.18 192.94 33.05 198.95L26 240L48.76 240Z" />
		<path id="&lt;Path&gt;" class="shp14" d="M126.52 240L150.05 240L143.43 198.45C142.3 192.45 134.13 186.67 128.12 187.8C122.12 188.93 118.41 196.07 119.55 202.07L126.52 240Z" />
		<g id="&lt;Group&gt;">
			<path id="&lt;Compound Path&gt;" fill-rule="evenodd" class="shp17" d="M132.46 85.8L131.93 91.99L127.49 91.73L126.22 100.03C124.91 107.5 120.11 111.01 111.8 110.55C99.33 111.11 92.44 106.13 91.13 95.64C90.68 94.81 90.08 94.31 89.45 93.98C88.97 93.8 88.2 93.56 87.28 93.48C87.21 93.49 87.13 93.48 87.04 93.48C86.97 93.48 86.9 93.49 86.81 93.48C85.91 93.56 85.13 93.8 84.66 93.98C84.03 94.31 83.43 94.8 82.97 95.64C81.65 106.13 74.76 111.11 62.29 110.55C53.98 111.01 49.18 107.5 47.88 100.03L46.61 91.73L42.86 93.16L43.51 85.66L47.26 84.9C48.99 81.85 56.72 80.96 70.46 82.23C77.22 82.88 81.8 84.5 84.22 87.1C84.68 87.68 85.63 88.13 87.05 88.44C88.47 88.13 89.41 87.68 89.88 87.1C92.29 84.5 96.88 82.88 103.64 82.23C117.37 80.96 125.1 81.85 126.85 84.9L132.46 85.8ZM80.41 87.91C78.65 85.35 71.18 84.14 58.02 84.27C49.57 85.08 46.71 89.62 49.46 97.9C50.5 103.98 53 107.25 56.96 107.7C68.93 110.26 76.57 107.58 79.88 99.67C82.2 93.27 82.38 89.35 80.41 87.91ZM116.08 84.27C102.91 84.14 95.44 85.35 93.68 87.91C91.71 89.35 91.89 93.27 94.22 99.67C97.53 107.58 105.16 110.26 117.14 107.7C121.1 107.25 123.6 103.98 124.64 97.9C127.39 89.62 124.54 85.08 116.08 84.27Z" />
			<path id="&lt;Path&gt;" class="shp18" d="M79.88 99.67C76.57 107.58 68.93 110.26 56.96 107.7C53 107.25 50.5 103.98 49.46 97.9C46.71 89.62 49.57 85.08 58.02 84.27C71.18 84.14 78.65 85.35 80.41 87.91C82.38 89.35 82.2 93.27 79.88 99.67Z" />
			<path id="&lt;Path&gt;" class="shp18" d="M124.64 97.9C123.6 103.98 121.1 107.25 117.14 107.7C105.16 110.26 97.53 107.58 94.22 99.67C91.89 93.27 91.71 89.35 93.68 87.91C95.44 85.35 102.91 84.14 116.08 84.27C124.54 85.08 127.39 89.62 124.64 97.9Z" />
		</g>
		<g id="&lt;Group&gt;">
			<path id="&lt;Path&gt;" class="shp0" d="M150.61 240L165.41 240C196.46 58.12 132.55 19.22 136.85 23.5L127.64 45.13C164.61 72.31 157.27 182.48 150.61 240Z" />
			<path id="&lt;Path&gt;" class="shp11" d="M100.68 46.78C136.43 58.18 129.41 102.64 128.91 132.38C132.95 174.74 135.79 210.62 137.42 240L154.91 240C169.75 94 153.59 22.95 106.44 26.86C83.51 26.44 69.46 33.38 64.27 47.68C81.05 44.71 93.18 44.41 100.68 46.78Z" />
		</g>
	</g>
</svg>