<svg version="1.2" baseProfile="tiny-ps" xmlns="http://www.w3.org/2000/svg" viewBox="0 0 200 240" width="200" height="240">
	<title>New Project</title>
	<style>
		tspan { white-space:pre }
		.shp0 { fill: #ffa273 } 
		.shp1 { mix-blend-mode: multiply;fill: #d8d9da } 
		.shp2 { fill: #ffb590 } 
		.shp3 { fill: #ffffff } 
		.shp4 { fill: #2dc1b8 } 
		.shp5 { mix-blend-mode: multiply;fill: #c4c5c7 } 
		.shp6 { fill: #220b00 } 
		.shp7 { fill: #2b1101 } 
		.shp8 { fill: #d5825e } 
		.shp9 { fill: #ececed } 
		.shp10 { fill: #3a3c42 } 
		.shp11 { fill: #41261b } 
		.shp12 { fill: #e58f64 } 
		.shp13 { fill: #da885f } 
		.shp14 { fill: #5f3b2d } 
		.shp15 { fill: #d8d9da } 
	</style>
	<g id="&lt;Group&gt;">
		<g id="&lt;Group&gt;">
			<path id="&lt;Path&gt;" class="shp0" d="M111.84 190.69L86.99 190.69L86.99 175.72L111.84 175.72L111.84 190.69Z" />
		</g>
		<path id="&lt;Path&gt;" class="shp1" d="M102.72 188.69C97.52 187 93.15 183.69 92.49 177.89C92.4 177.09 92.5 176.38 92.7 175.72L86.99 175.72L86.99 190.69L111.84 190.69L111.84 188.81C108.79 189.59 105.6 189.61 102.72 188.69Z" />
		<path id="&lt;Path&gt;" class="shp2" d="M174 240C173.62 224.27 170.04 211.79 156.88 207C146.85 203.35 132.06 197.7 112.51 190.06L87.49 190.06C67.95 197.7 53.16 203.35 43.13 207C29.96 211.79 26.39 224.27 26 240L174 240Z" />
		<path id="&lt;Path&gt;" class="shp3" d="M174 240C173.62 224.27 170.04 211.79 156.88 207C146.85 203.35 132.06 197.7 112.51 190.06L87.49 190.06C67.95 197.7 53.16 203.35 43.13 207C29.96 211.79 26.39 224.27 26 240L174 240Z" />
		<g id="&lt;Group&gt;">
			<path id="&lt;Path&gt;" class="shp4" d="M94.8 209.73C94.87 209.62 94.99 209.48 95.16 209.32C95.04 209.45 94.93 209.59 94.8 209.73L94.03 240L106.37 240L105.22 209.73L107.64 198.51C108.52 196.83 108.79 194.89 107.88 193.19C107.04 191.65 105.89 190.86 104.59 190.46C102.54 189.83 100.1 190.2 97.92 190.2C95.74 190.2 94.19 190.42 92.75 192.32C91.32 194.24 91.22 196.31 92.38 198.51L94.8 209.73Z" />
			<path id="&lt;Path&gt;" class="shp5" d="M94.39 207.99C99.25 205.46 102.84 206.04 105.18 209.73C101.92 207.65 98.44 207.65 94.77 209.73L94.39 207.99Z" />
		</g>
		<path id="&lt;Path&gt;" class="shp6" d="M174 240C173.62 224.27 170.04 211.79 156.88 207C146.85 203.35 135.94 199.21 124.16 194.59L114.66 240L174 240Z" />
		<path id="&lt;Path&gt;" class="shp6" d="M86.08 240L76.11 194.49C64.15 199.18 53.16 203.35 43.13 207C29.96 211.79 26.39 224.27 26 240L86.08 240Z" />
		<g id="&lt;Group&gt;">
			<path id="&lt;Path&gt;" class="shp5" d="M100.01 190.06L88.06 219.61L76.11 194.49L100.01 190.06Z" />
			<path id="&lt;Path&gt;" class="shp3" d="M86.99 187.88C85.57 189.02 81.95 191.22 76.11 194.49L87.57 214.38C92.12 203.61 96.26 195.51 100.01 190.06L86.99 187.88Z" />
		</g>
		<g id="&lt;Group&gt;">
			<path id="&lt;Path&gt;" class="shp5" d="M99.89 190.06L111.84 219.61L123.78 194.49L99.89 190.06Z" />
			<path id="&lt;Path&gt;" class="shp3" d="M112.9 187.88C114.31 189.02 117.94 191.22 123.78 194.49L112.33 214.38C107.78 203.61 103.63 195.51 99.89 190.06L112.9 187.88Z" />
		</g>
		<path id="&lt;Path&gt;" class="shp7" d="M65.99 226.97C72.74 227.53 75.06 228.92 72.96 231.15L58.89 236.11L61.19 240L86.08 240L76.11 194.49L55.13 202.54L56.15 219.61C55.98 225.87 59.26 228.32 65.99 226.97Z" />
		<path id="&lt;Path&gt;" class="shp7" d="M138.96 240L141.19 236.11L127.13 231.15C125.03 228.92 127.35 227.53 134.09 226.97C140.84 228.32 144.11 225.87 143.93 219.61L144.95 202.54L123.97 194.49L114.52 240L138.96 240Z" />
		<g id="&lt;Group&gt;">
			<g id="&lt;Group&gt;">
				<g id="&lt;Group&gt;">
					<path id="&lt;Path&gt;" class="shp0" d="M134.33 128.23C133.81 136.28 137.44 143.07 142.43 143.4C147.43 143.72 151.9 137.47 152.4 129.42C152.91 121.37 149.28 114.58 144.29 114.26C139.29 113.93 134.83 120.19 134.33 128.23Z" />
				</g>
				<g id="&lt;Group&gt;">
					<path id="&lt;Path&gt;" class="shp8" d="M141.39 125.37C141.4 125.07 141.44 124.67 141.52 124.17C141.59 123.43 141.85 122.37 142.31 121.22C142.78 120.11 143.62 118.81 144.84 118.64C145.16 118.59 145.48 118.61 145.8 118.66C145.87 118.69 146.2 118.76 146.31 118.82C146.43 118.89 146.55 118.92 146.69 119.03C147.25 119.38 147.73 119.96 148.1 120.65C148.48 121.32 148.77 122.08 148.96 122.84C149.15 123.61 149.32 124.4 149.3 125.11C149.25 125.91 149.32 126.73 149.23 127.44C149.16 128.16 149.09 128.83 149.03 129.46C148.91 130.1 148.82 130.68 148.76 131.2C148.69 131.73 148.56 132.17 148.5 132.55C148.39 133.04 148.31 133.44 148.27 133.73C148.41 133.47 148.58 133.11 148.8 132.64C148.94 132.29 149.16 131.87 149.34 131.37C149.52 130.86 149.73 130.3 149.94 129.66C150.12 129.02 150.27 128.3 150.44 127.53C150.61 126.77 150.63 126 150.72 125.18C150.78 124.25 150.7 123.37 150.48 122.46C150.27 121.57 149.96 120.68 149.5 119.84C149.03 119.01 148.38 118.21 147.49 117.67C147.29 117.53 147.01 117.43 146.74 117.33C146.45 117.22 146.39 117.23 146.04 117.16C145.54 117.11 145.05 117.12 144.56 117.22C143.55 117.45 142.8 118.14 142.34 118.84C141.86 119.53 141.61 120.26 141.44 120.92C141.1 122.27 141.16 123.4 141.19 124.17C141.24 124.69 141.31 125.09 141.39 125.37Z" />
				</g>
				<path id="&lt;Path&gt;" class="shp8" d="M141.39 125.37C141.02 124.83 141.9 124.4 144.03 124.08C146.48 124.23 147.17 125.68 146.1 128.42C145.76 129.31 145.49 130.22 145.37 131.18C145.22 132.52 146.04 134.26 145.34 135.51C144.42 137.12 141.47 136.51 141.07 134.8C140.77 133.48 142.13 131.07 142.77 130.05C144.05 128 143.59 126.44 141.39 125.37Z" />
				<g id="&lt;Group&gt;">
					<path id="&lt;Path&gt;" class="shp8" d="M141.05 134.63C141.06 134.63 140.94 134.69 140.83 134.86C140.69 135.03 140.55 135.3 140.45 135.64C140.38 135.81 140.37 136 140.36 136.22C140.34 136.43 140.31 136.66 140.38 136.87C140.43 137.1 140.48 137.34 140.55 137.58C140.64 137.79 140.78 138 140.9 138.21C141.05 138.4 141.16 138.64 141.35 138.78C141.52 138.94 141.71 139.06 141.89 139.19C142.22 139.48 142.6 139.62 142.94 139.69C143.39 139.8 143.76 139.84 144.07 139.8C143.91 139.5 143.7 139.19 143.44 138.89C143.35 138.78 143.24 138.65 143.12 138.54C143.04 138.41 142.94 138.25 142.84 138.13C142.73 138 142.64 137.85 142.52 137.73C142.39 137.62 142.34 137.45 142.25 137.31C142.02 137.05 141.9 136.76 141.75 136.48C141.66 136.35 141.6 136.2 141.55 136.07C141.5 135.92 141.41 135.77 141.38 135.64C141.17 135.11 141.05 134.63 141.05 134.63Z" />
				</g>
			</g>
			<g id="&lt;Group&gt;">
				<path id="&lt;Path&gt;" class="shp0" d="M50.61 99.69C46.81 140.01 54.65 166.52 74.13 179.21C83.86 188.9 94.58 189.5 106.27 181.01C123.61 171.52 133.71 163.17 136.57 155.94C151.55 90.47 140.86 56.68 104.5 54.56C73.45 47.29 55.49 62.33 50.61 99.69Z" />
			</g>
			<g id="&lt;Group&gt;" style="mix-blend-mode: multiply">
				<path id="&lt;Path&gt;" class="shp9" d="M104.5 54.56C102.03 53.99 98.97 53.7 95.32 53.71C105 57.52 112.39 65.65 117.33 75.56C124.32 89.61 129.14 106.87 129.95 122.62C131.02 143.53 120.43 164.85 101.87 174.98C94.13 179.19 84.46 183.17 75.57 180.45C79.66 183.68 92 191.38 106.27 181.01C123.61 171.52 133.71 163.17 136.57 155.94C151.55 90.47 140.86 56.68 104.5 54.56Z" />
			</g>
			<g id="&lt;Group&gt;">
				<g id="&lt;Group&gt;">
					<path id="&lt;Path&gt;" class="shp10" d="M105.79 114.53C105.79 117.16 107.89 119.29 110.49 119.29C113.08 119.29 115.19 117.16 115.19 114.53C115.19 111.9 113.08 109.77 110.49 109.77C107.89 109.77 105.79 111.9 105.79 114.53Z" />
					<path id="&lt;Path&gt;" class="shp3" d="M110.21 111.48C109.83 112.02 110.39 113.07 111.44 113.84C112.49 114.61 113.65 114.8 114.03 114.26C114.4 113.73 113.86 112.68 112.81 111.91C111.76 111.14 110.59 110.95 110.21 111.48Z" />
				</g>
				<g id="&lt;Group&gt;">
					<path id="&lt;Path&gt;" class="shp11" d="M101.54 98.58C100.16 99.03 99.41 100.04 99.27 101.6C99.33 103.45 100.12 104.29 101.64 104.13C112.87 102.66 120.65 103.34 124.98 106.17C124.46 97.82 116.64 95.29 101.54 98.58Z" />
				</g>
			</g>
			<g id="&lt;Group&gt;">
				<g id="&lt;Group&gt;">
					<path id="&lt;Path&gt;" class="shp10" d="M77.51 114.53C77.51 117.16 75.4 119.29 72.81 119.29C70.21 119.29 68.1 117.16 68.1 114.53C68.1 111.9 70.21 109.77 72.81 109.77C75.4 109.77 77.51 111.9 77.51 114.53Z" />
					<path id="&lt;Path&gt;" class="shp3" d="M73.08 111.48C73.46 112.02 72.9 113.07 71.85 113.84C70.8 114.61 69.64 114.8 69.26 114.26C68.87 113.73 69.43 112.68 70.48 111.91C71.53 111.14 72.7 110.95 73.08 111.48Z" />
				</g>
				<g id="&lt;Group&gt;">
					<path id="&lt;Path&gt;" class="shp11" d="M81.75 98.58C83.12 99.03 83.88 100.04 84.02 101.6C83.96 103.45 83.17 104.29 81.65 104.13C70.42 102.66 62.64 103.34 58.31 106.17C58.83 97.82 66.65 95.29 81.75 98.58Z" />
				</g>
			</g>
			<g id="&lt;Group&gt;">
				<g id="&lt;Group&gt;">
					<path id="&lt;Path&gt;" class="shp12" d="M88.19 125.43C88.22 125.87 88.23 126.41 88.21 127.07C88.19 128.07 88.09 129.42 87.88 130.93C87.64 132.43 87.29 134.09 86.78 135.75C86.65 136.17 86.52 136.59 86.4 137.02L86.17 137.65L86.11 137.81L86.08 137.89L86.08 137.91L86.07 137.92C86.11 137.8 85.98 138.19 86.16 137.65L86.15 137.69C86.16 137.67 86.13 137.79 86.12 137.85C85.95 138.49 85.89 139.23 85.84 139.85C85.82 140.48 85.85 141.02 85.91 141.4C85.97 141.8 86.05 142.06 86.27 142.42C86.71 143.13 88.07 143.78 89.35 144.16C90.66 144.59 91.93 144.79 92.82 145C93.42 145.12 93.91 145.23 94.27 145.33C94 145.59 93.61 145.91 93.09 146.29C92.3 146.83 91.14 147.55 89.49 148.08C88.65 148.31 87.71 148.52 86.59 148.52C85.5 148.51 84.19 148.33 82.88 147.63C81.56 146.96 80.31 145.71 79.6 144.31C78.85 142.9 78.54 141.43 78.46 140.07C78.36 138.7 78.5 137.44 78.76 136.15L78.91 135.6L79.03 135.23L79.07 135.14L79.15 134.96L79.45 134.24C79.68 133.77 79.9 133.31 80.12 132.86C81.1 131.11 82.24 129.61 83.43 128.49C84.61 127.36 85.79 126.57 86.68 126.1C87.27 125.76 87.77 125.54 88.19 125.43Z" />
				</g>
			</g>
			<g id="&lt;Group&gt;">
				<path id="&lt;Path&gt;" class="shp13" d="M76 154.36C77.32 153.93 78.97 153.57 80.96 153.26C82.45 153.02 84.18 152.81 86.05 152.68C87.91 152.53 89.89 152.44 91.88 152.45C95.85 152.44 99.81 152.78 102.79 153.26C104.78 153.56 106.43 153.93 107.75 154.36C106.43 154.79 104.78 155.15 102.79 155.46C99.81 155.93 95.85 156.27 91.88 156.27C89.89 156.27 87.91 156.18 86.05 156.04C84.18 155.9 82.45 155.7 80.96 155.45C78.97 155.15 77.32 154.78 76 154.36Z" />
			</g>
			<g id="&lt;Group&gt;">
				<path id="&lt;Path&gt;" class="shp14" d="M134.27 45.11C143.3 46.91 148.1 55.3 148.65 70.28C149.29 87.49 148.57 102.25 146.51 114.57C143.64 114.12 141.86 114.12 141.17 114.57L140.04 133.73L137.24 133.73L137.24 112.88C137.07 103.9 133.76 99.39 127.32 99.36C131.11 91.82 131.14 84.36 127.4 76.97C124.71 70.37 105.97 68.12 71.17 70.23C57.87 70.5 52.93 78.71 56.35 94.87C52.86 94.79 50.95 96.62 50.61 100.38C50.21 105.03 49.85 109.87 50.19 114.53C42.18 87.64 42.71 67.37 51.78 53.71C45.39 37.66 53.97 23.43 77.51 11C74.81 12.42 79.42 20.11 80.46 21.09C86.87 27.06 96 25.6 103.93 25.1C105.22 25.01 106.5 24.98 107.76 24.99C113.86 25.05 120.84 26.02 126.18 29.18C133.7 33.1 136.4 38.41 134.27 45.11Z" />
			</g>
			<g id="&lt;Group&gt;">
				<path id="&lt;Path&gt;" class="shp14" d="M129.64 154.36C121.93 164.69 115.55 165.17 110.49 155.8C108.66 148.1 102.02 146.42 90.55 150.77C82.5 146.82 76.59 148.02 72.8 154.36C68.94 162.7 65.23 164.26 61.68 159.01C57.13 150.06 53.58 140 51.02 128.83C52.89 147.1 58.54 169.05 74.13 179.21C83.86 188.9 94.58 189.5 106.27 181.01C123.61 171.52 133.71 163.17 136.57 155.94C138.64 145.28 139.8 137.88 140.04 133.73L137.24 133.73C136.08 141.99 133.55 148.87 129.64 154.36Z" />
			</g>
			<g id="&lt;Group&gt;">
				<g id="&lt;Group&gt;">
					<path id="&lt;Path&gt;" class="shp3" d="M78.17 154.36L104.38 154.36C104.07 160.9 99.7 164.51 91.27 165.2C83.57 165.64 79.2 162.02 78.17 154.36Z" />
					<g id="&lt;Group&gt;">
						<g id="&lt;Group&gt;">
							<path id="&lt;Path&gt;" class="shp13" d="M78.48 156.02C78.6 156.38 78.82 156.83 79.13 157.38C79.58 158.2 80.33 159.29 81.41 160.28C81.94 160.78 82.6 161.2 83.28 161.62C83.99 162.02 84.79 162.31 85.61 162.6C86.47 162.85 87.37 163 88.31 163.13C88.77 163.22 89.28 163.19 89.76 163.25L90.52 163.31L91.2 163.31C93.12 163.27 95.07 162.98 96.77 162.43C98.49 161.88 99.95 161.05 101.08 160.09C102.22 159.13 103.02 158.08 103.56 157.3C103.92 156.78 104.19 156.35 104.38 156.02C104.37 156.11 104.37 156.25 104.36 156.42C104.34 156.69 104.35 157.09 104.25 157.58C104.09 158.56 103.72 160.02 102.7 161.53C101.73 163.05 100.07 164.55 98.03 165.53C95.99 166.53 93.64 167.09 91.26 167.13C90.95 167.14 90.67 167.13 90.32 167.11L89.48 167.03C88.89 166.96 88.31 166.93 87.74 166.8C86.58 166.6 85.47 166.19 84.42 165.75C83.91 165.48 83.39 165.24 82.92 164.94C82.47 164.6 82.03 164.29 81.63 163.94C80.83 163.23 80.18 162.46 79.72 161.66C78.76 160.09 78.47 158.59 78.4 157.59C78.36 156.92 78.39 156.39 78.48 156.02Z" />
						</g>
					</g>
					<g id="&lt;Group&gt;">
						<g id="&lt;Group&gt;">
							<path id="&lt;Path&gt;" class="shp15" d="M81.84 159.01C82.63 158.81 83.61 158.63 84.79 158.47C86.56 158.22 88.91 158.06 91.27 158.06C93.63 158.06 95.99 158.22 97.76 158.46C98.94 158.63 99.92 158.81 100.71 159.01C99.92 159.21 98.94 159.39 97.76 159.56C95.99 159.8 93.63 159.96 91.27 159.97C88.91 159.96 86.56 159.8 84.79 159.56C83.61 159.39 82.63 159.21 81.84 159.01Z" />
						</g>
						<g id="&lt;Group&gt;">
							<path id="&lt;Path&gt;" class="shp15" d="M87.3 156.02C87.5 156.29 87.68 156.64 87.84 157.06C88.08 157.68 88.24 158.52 88.24 159.35C88.24 160.18 88.08 161.02 87.84 161.64C87.68 162.06 87.5 162.41 87.3 162.68C87.11 162.41 86.93 162.06 86.76 161.64C86.52 161.02 86.37 160.18 86.36 159.35C86.37 158.52 86.52 157.68 86.76 157.06C86.93 156.64 87.11 156.29 87.3 156.02Z" />
						</g>
						<g id="&lt;Group&gt;">
							<path id="&lt;Path&gt;" class="shp15" d="M93.67 156.02C93.86 156.29 94.04 156.64 94.21 157.06C94.45 157.68 94.61 158.52 94.61 159.35C94.61 160.18 94.45 161.02 94.21 161.64C94.05 162.06 93.87 162.41 93.67 162.68C93.47 162.41 93.29 162.06 93.13 161.64C92.89 161.02 92.73 160.18 92.73 159.35C92.73 158.52 92.89 157.68 93.13 157.06C93.3 156.64 93.48 156.29 93.67 156.02Z" />
						</g>
					</g>
				</g>
			</g>
		</g>
	</g>
</svg>