<svg version="1.2" baseProfile="tiny-ps" xmlns="http://www.w3.org/2000/svg" viewBox="0 0 200 240" width="200" height="240">
	<title>New Project</title>
	<style>
		tspan { white-space:pre }
		.shp0 { fill: #ffc289 } 
		.shp1 { mix-blend-mode: multiply;fill: #c4c5c7 } 
		.shp2 { fill: #c4c5c7 } 
		.shp3 { fill: #ececed } 
		.shp4 { fill: #9be4fa } 
		.shp5 { fill: #362017 } 
		.shp6 { fill: #123740 } 
		.shp7 { fill: #dda574 } 
		.shp8 { fill: #44200e } 
		.shp9 { fill: #1c0800 } 
		.shp10 { fill: #ffffff } 
		.shp11 { fill: #1c4e5a } 
		.shp12 { fill: #c9f0fc } 
	</style>
	<g id="&lt;Group&gt;">
		<g id="&lt;Group&gt;">
			<path id="&lt;Path&gt;" class="shp0" d="M109.97 152.24L85.73 152.24L85.73 128.48L109.97 128.48L109.97 152.24Z" />
			<path id="&lt;Path&gt;" class="shp1" d="M87.87 145.64C94.51 139.85 104.42 141.4 109.97 133.93L109.97 128.48L85.73 128.48L85.73 148.27C86.31 147.28 87.02 146.39 87.87 145.64Z" />
		</g>
		<g id="&lt;Group&gt;">
			<g id="&lt;Group&gt;">
				<path id="&lt;Path&gt;" class="shp0" d="M133.66 80.86C132.8 87.3 135.4 92.96 139.44 93.49C143.49 94.03 147.47 89.25 148.32 82.81C149.18 76.37 146.59 70.71 142.53 70.17C138.49 69.63 134.51 74.42 133.66 80.86Z" />
				<g id="&lt;Group&gt;" style="mix-blend-mode: multiply">
					<path id="&lt;Path&gt;" class="shp2" d="M138.63 78.94C138.65 78.7 138.7 78.38 138.78 77.99C138.9 77.39 139.16 76.56 139.6 75.66C140.04 74.8 140.79 73.8 141.81 73.72C142.05 73.7 142.32 73.73 142.59 73.8C142.64 73.82 142.9 73.9 142.98 73.95C143.08 74.02 143.18 74.05 143.29 74.14C143.72 74.45 144.08 74.95 144.34 75.52C144.62 76.08 144.81 76.7 144.93 77.33C145.04 77.95 145.13 78.61 145.08 79.17C144.99 79.82 145 80.48 144.89 81.04C144.8 81.61 144.7 82.15 144.62 82.65C144.48 83.16 144.38 83.62 144.31 84.04C144.23 84.46 144.09 84.81 144.02 85.1C143.91 85.5 143.82 85.81 143.76 86.04C143.89 85.84 144.06 85.56 144.26 85.2C144.39 84.93 144.6 84.61 144.77 84.2C144.95 83.81 145.14 83.36 145.35 82.87C145.53 82.36 145.7 81.79 145.87 81.18C146.05 80.58 146.11 79.96 146.23 79.31C146.34 78.56 146.31 77.84 146.18 77.11C146.06 76.39 145.86 75.65 145.53 74.95C145.2 74.26 144.7 73.58 144.01 73.09C143.85 72.97 143.62 72.87 143.42 72.77C143.2 72.68 143.13 72.68 142.86 72.6C142.45 72.53 142.05 72.51 141.64 72.57C140.82 72.7 140.16 73.21 139.75 73.74C139.32 74.28 139.09 74.85 138.91 75.38C138.56 76.43 138.54 77.34 138.54 77.96C138.54 78.39 138.57 78.71 138.63 78.94Z" />
				</g>
				<path id="&lt;Path&gt;" class="shp1" d="M138.63 78.94C138.35 78.49 139.09 78.19 140.85 78.05C142.83 78.31 143.31 79.51 142.29 81.66C141.96 82.35 141.69 83.07 141.55 83.83C141.36 84.9 141.92 86.35 141.28 87.31C140.44 88.56 138.07 87.91 137.85 86.5C137.67 85.43 138.91 83.56 139.49 82.78C140.65 81.21 140.36 79.92 138.63 78.94Z" />
				<g id="&lt;Group&gt;" style="mix-blend-mode: multiply">
					<path id="&lt;Path&gt;" class="shp2" d="M137.83 86.36C137.84 86.37 137.75 86.41 137.64 86.54C137.52 86.67 137.39 86.88 137.3 87.15C137.22 87.28 137.21 87.44 137.18 87.61C137.16 87.78 137.13 87.96 137.18 88.13C137.2 88.32 137.22 88.52 137.27 88.71C137.33 88.9 137.44 89.06 137.52 89.24C137.63 89.4 137.71 89.6 137.86 89.72C137.98 89.86 138.14 89.97 138.26 90.08C138.54 90.33 138.83 90.47 139.11 90.53C139.46 90.65 139.76 90.7 140.02 90.7C139.9 90.44 139.74 90.18 139.55 89.93C139.49 89.83 139.4 89.72 139.31 89.63C139.24 89.52 139.19 89.39 139.1 89.28C139.02 89.16 138.96 89.04 138.87 88.94C138.76 88.84 138.74 88.7 138.67 88.59C138.5 88.37 138.41 88.13 138.3 87.89C138.24 87.78 138.2 87.66 138.17 87.54C138.14 87.43 138.06 87.31 138.05 87.2C137.95 86.9 137.88 86.63 137.83 86.36Z" />
				</g>
			</g>
			<g id="&lt;Group&gt;">
				<path id="&lt;Path&gt;" class="shp0" d="M62.04 80.86C62.9 87.3 60.3 92.96 56.25 93.49C52.21 94.03 48.23 89.25 47.37 82.81C46.52 76.37 49.11 70.71 53.16 70.17C57.21 69.63 61.19 74.42 62.04 80.86Z" />
				<g id="&lt;Group&gt;" style="mix-blend-mode: multiply">
					<path id="&lt;Path&gt;" class="shp2" d="M57.06 78.94C57.04 78.7 56.99 78.38 56.91 77.99C56.8 77.39 56.54 76.56 56.1 75.66C55.65 74.8 54.91 73.8 53.89 73.72C53.64 73.7 53.38 73.73 53.11 73.8C53.06 73.82 52.8 73.9 52.71 73.95C52.62 74.02 52.52 74.05 52.41 74.14C51.98 74.45 51.61 74.95 51.36 75.52C51.07 76.08 50.89 76.7 50.76 77.33C50.66 77.95 50.56 78.61 50.62 79.17C50.7 79.82 50.7 80.48 50.8 81.04C50.9 81.61 51 82.15 51.07 82.65C51.2 83.16 51.31 83.62 51.38 84.04C51.47 84.46 51.6 84.81 51.68 85.1C51.79 85.5 51.88 85.81 51.93 86.04C51.8 85.84 51.64 85.56 51.44 85.2C51.31 84.93 51.1 84.61 50.93 84.2C50.75 83.81 50.55 83.36 50.35 82.87C50.16 82.36 50 81.79 49.83 81.18C49.64 80.58 49.58 79.96 49.46 79.31C49.36 78.56 49.38 77.84 49.52 77.11C49.64 76.39 49.84 75.65 50.17 74.95C50.5 74.26 51 73.58 51.68 73.09C51.84 72.97 52.07 72.87 52.28 72.77C52.5 72.68 52.57 72.68 52.84 72.6C53.24 72.53 53.65 72.51 54.06 72.57C54.88 72.7 55.53 73.21 55.95 73.74C56.37 74.28 56.62 74.85 56.8 75.38C57.13 76.43 57.16 77.34 57.16 77.96C57.15 78.39 57.12 78.71 57.06 78.94Z" />
				</g>
				<path id="&lt;Path&gt;" class="shp1" d="M57.06 78.94C57.34 78.49 56.61 78.19 54.85 78.05C52.87 78.31 52.38 79.51 53.4 81.66C53.73 82.35 54 83.07 54.15 83.83C54.34 84.9 53.78 86.35 54.42 87.31C55.25 88.56 57.63 87.91 57.85 86.5C58.04 85.43 56.79 83.56 56.21 82.78C55.05 81.21 55.34 79.92 57.06 78.94Z" />
				<g id="&lt;Group&gt;" style="mix-blend-mode: multiply">
					<path id="&lt;Path&gt;" class="shp2" d="M57.86 86.36C57.86 86.37 57.95 86.41 58.06 86.54C58.17 86.67 58.3 86.88 58.4 87.15C58.47 87.28 58.49 87.44 58.52 87.61C58.54 87.78 58.57 87.96 58.53 88.13C58.49 88.32 58.47 88.52 58.42 88.71C58.36 88.9 58.26 89.06 58.17 89.24C58.06 89.4 57.98 89.6 57.85 89.72C57.72 89.86 57.56 89.97 57.43 90.08C57.16 90.33 56.87 90.47 56.59 90.53C56.24 90.65 55.93 90.7 55.68 90.7C55.8 90.44 55.95 90.18 56.14 89.93C56.21 89.83 56.29 89.72 56.38 89.63C56.46 89.52 56.51 89.39 56.59 89.28C56.68 89.16 56.73 89.04 56.83 88.94C56.93 88.84 56.96 88.7 57.03 88.59C57.2 88.37 57.29 88.13 57.4 87.89C57.46 87.78 57.48 87.66 57.53 87.54C57.56 87.43 57.63 87.31 57.65 87.2C57.74 86.9 57.81 86.63 57.86 86.36Z" />
				</g>
			</g>
		</g>
		<g id="&lt;Group&gt;">
			<path id="&lt;Path&gt;" class="shp0" d="M97.98 7.94L97.98 7.92C97.94 7.92 97.88 7.93 97.84 7.93C97.79 7.93 97.74 7.92 97.69 7.92L97.69 7.94C88 8.48 45.73 14.54 55.84 79.68L58.32 106.94C59.76 111.02 63.01 114.98 68.07 118.83C76.78 126.16 84.79 131.44 92.1 134.69C93.7 135.15 95.57 135.77 97.73 136.56L97.73 136.66C97.77 136.64 97.82 136.63 97.87 136.61C97.91 136.63 97.96 136.64 98 136.66L98 136.56C100.15 135.77 102.03 135.15 103.63 134.69C110.93 131.44 118.94 126.15 127.65 118.82C132.71 114.97 135.35 111 135.6 106.92L139.86 79.66C149.94 14.51 107.67 8.47 97.98 7.94Z" />
		</g>
		<g id="&lt;Group&gt;" style="mix-blend-mode: multiply">
			<g id="&lt;Group&gt;">
				<path id="&lt;Path&gt;" class="shp3" d="M97.75 136.65L97.75 136.56C95.98 135.77 94.45 135.15 93.14 134.69C87.15 131.44 80.59 126.16 73.45 118.83C69.29 114.98 66.63 111.02 65.44 106.94L63.41 79.68C55.12 14.54 89.78 8.48 97.72 7.94L97.72 7.92C97.71 7.92 97.7 7.92 97.69 7.92L97.69 7.94C88 8.48 45.73 14.54 55.84 79.68L58.32 106.94C59.76 111.02 63.01 114.98 68.07 118.83C76.78 126.16 84.79 131.44 92.1 134.69C93.7 135.15 95.57 135.77 97.73 136.56L97.73 136.66C97.73 136.66 97.74 136.66 97.75 136.65Z" />
			</g>
			<g id="&lt;Group&gt;">
				<path id="&lt;Path&gt;" class="shp3" d="M97.98 7.94L97.98 7.92C97.97 7.92 97.96 7.92 97.95 7.92L97.95 7.94C105.9 8.47 140.55 14.52 132.29 79.66L128.8 106.92C128.6 111 126.43 114.97 122.28 118.82C115.14 126.15 108.58 131.44 102.58 134.69C101.28 135.15 99.74 135.77 97.98 136.56L97.98 136.65C97.99 136.66 98 136.66 98 136.66L98 136.56C100.15 135.77 102.03 135.15 103.63 134.69C110.93 131.44 118.94 126.15 127.65 118.82C132.71 114.97 135.35 111 135.6 106.92L139.86 79.66C149.94 14.51 107.67 8.47 97.98 7.94Z" />
			</g>
		</g>
		<path id="&lt;Path&gt;" class="shp0" d="M52.67 240L143.03 240L151.47 180.47C153.59 171.63 151.21 165.07 144.34 160.78L108.94 146.72L86.76 146.72L51.36 160.78C44.48 165.07 42.11 171.63 44.22 180.47L52.67 240Z" />
		<g id="&lt;Group&gt;">
			<path id="&lt;Path&gt;" class="shp4" d="M44.28 240L150.49 240L151.47 180.47C153.59 171.63 151.21 165.07 144.34 160.78L109.94 147.1L97.68 152.12L85.78 147.06L51.36 160.78C44.48 165.07 42.11 171.63 44.22 180.47L44.28 240Z" />
		</g>
		<g id="&lt;Group&gt;">
			<path id="&lt;Path&gt;" class="shp4" d="M51.38 160.86C55.44 171.43 54.12 194.82 47.43 231.01L17.04 231.18L23.64 186.2C23.11 178.26 25.23 172.84 29.98 169.94L51.38 160.86Z" />
		</g>
		<g id="&lt;Group&gt;">
			<path id="&lt;Path&gt;" class="shp4" d="M182.54 230.9L170.65 182.52C170.12 175.47 167.12 170.62 161.66 167.98L143.62 160.6C137.71 176.04 147.12 228.16 147.62 230.9L182.54 230.9Z" />
		</g>
		<g id="&lt;Group&gt;">
			<path id="&lt;Path&gt;" class="shp5" d="M136.29 15.71C129.99 7.36 106.69 6.7 99.65 6.69C89.85 6.3 71.51 7.97 60.12 16.62C52.06 28.47 49.41 46.66 52.15 71.19L55.17 78.89L56.27 86.51L58.38 86.51C55.63 69.8 56.93 58.99 62.28 54.09C63.31 41.39 66.78 34.19 72.69 32.5C82.83 29.35 91.6 29.62 97.64 29.7C103.65 29 112.25 29.53 123.46 31.28C129.73 32.3 133.08 39.91 133.5 54.09C138.85 58.99 140.15 69.8 137.41 86.51L139.52 86.51L140.61 78.89L143.62 70.4C147.65 46.39 145.21 28.16 136.29 15.71Z" />
			<path id="&lt;Path&gt;" class="shp5" d="M97.64 29.7C97.49 29.72 97.49 29.72 97.64 29.7Z" />
		</g>
		<g id="&lt;Group&gt;">
			<path id="&lt;Path&gt;" class="shp6" d="M44.28 240L82.61 240L82.61 148.37L51.36 160.78C44.48 165.07 42.11 171.63 44.22 180.47L44.28 240Z" />
		</g>
		<g id="&lt;Group&gt;">
			<path id="&lt;Path&gt;" class="shp6" d="M151.4 240L151.47 180.47C153.59 171.63 151.21 165.07 144.34 160.78L111.95 147.92L111.95 240L151.4 240Z" />
		</g>
		<g id="&lt;Group&gt;">
			<path id="&lt;Path&gt;" class="shp6" d="M51.38 160.86C55.44 171.43 54.12 194.82 47.43 231.01L17.04 231.18L23.64 186.2C23.11 178.26 25.23 172.84 29.98 169.94L51.38 160.86Z" />
		</g>
		<path id="&lt;Path&gt;" class="shp6" d="M45.6 240L45.6 229.58L17.31 229.58L16 240L45.6 240Z" />
		<path id="&lt;Path&gt;" class="shp6" d="M184.24 240L182.54 230.11L150.55 230.24L150.55 238.83L150.88 240L184.24 240Z" />
		<path id="&lt;Path&gt;" class="shp6" d="M182.54 230.9L170.65 182.52C170.12 175.47 167.12 170.62 161.66 167.98L143.62 160.6C137.71 176.04 147.12 228.16 147.62 230.9L182.54 230.9Z" />
		<g id="&lt;Group&gt;">
			<g id="&lt;Group&gt;">
				<path id="&lt;Path&gt;" class="shp7" d="M91.52 95.62C91.66 95.64 91.85 95.66 92.09 95.69C92.45 95.77 92.97 95.74 93.56 95.82C94.16 95.86 94.84 96.01 95.6 96C96.36 95.99 97.16 95.98 97.97 95.97C98.78 96.05 99.58 96.07 100.33 95.96C101.08 95.89 101.79 95.83 102.4 95.78C103.21 95.73 103.89 95.71 104.44 95.72L104.59 96.42C104.57 96.5 104.55 96.61 104.51 96.76C104.45 96.97 104.38 97.35 104.25 97.68C104 98.39 103.61 99.33 103.02 100.13C102.45 101.02 101.68 101.76 100.81 102.32C100.38 102.6 99.91 102.85 99.43 102.98C98.95 103.11 98.45 103.12 97.95 103.14C97.45 103.1 96.95 103.07 96.46 102.92C95.97 102.82 95.51 102.6 95.07 102.37C94.18 101.89 93.28 101.04 92.71 100.15C92.1 99.33 91.74 98.38 91.59 97.62C91.49 97.28 91.45 96.88 91.4 96.67C91.38 96.51 91.36 96.39 91.35 96.31L91.52 95.62Z" />
			</g>
			<g id="&lt;Group&gt;">
				<g id="&lt;Group&gt;">
					<g id="&lt;Group&gt;">
						<g id="&lt;Group&gt;">
							<g id="&lt;Group&gt;">
								<g id="&lt;Group&gt;">
									<g id="&lt;Group&gt;">
										<path id="&lt;Path&gt;" class="shp8" d="M118.67 74.54C118.67 76.77 116.86 78.58 114.64 78.58C112.4 78.58 110.59 76.77 110.59 74.54C110.59 72.31 112.4 70.5 114.64 70.5C116.86 70.5 118.67 72.31 118.67 74.54Z" />
									</g>
									<g id="&lt;Group&gt;">
										<path id="&lt;Path&gt;" class="shp9" d="M116.49 74.54C116.49 75.57 115.66 76.4 114.64 76.4C113.61 76.4 112.77 75.57 112.77 74.54C112.77 73.51 113.61 72.68 114.64 72.68C115.66 72.68 116.49 73.51 116.49 74.54Z" />
									</g>
									<g id="&lt;Group&gt;">
										<path id="&lt;Path&gt;" class="shp10" d="M117.96 73.43C117.96 74.24 117.3 74.89 116.49 74.89C115.69 74.89 115.02 74.24 115.02 73.43C115.02 72.62 115.69 71.97 116.49 71.97C117.3 71.97 117.96 72.62 117.96 73.43Z" />
									</g>
									<g id="&lt;Group&gt;">
										<path id="&lt;Path&gt;" class="shp10" d="M114.99 72.43C114.99 72.92 114.61 73.31 114.12 73.31C113.63 73.31 113.24 72.92 113.24 72.43C113.24 71.95 113.63 71.55 114.12 71.55C114.61 71.55 114.99 71.95 114.99 72.43Z" />
									</g>
								</g>
								<path id="&lt;Path&gt;" class="shp5" d="M105.8 60.12C119.72 57.82 127.3 60.03 128.53 66.73C124.83 65.14 120.33 64.43 115.05 64.61L105 65.14C104.3 62.85 104.56 61.17 105.8 60.12Z" />
							</g>
						</g>
					</g>
				</g>
				<g id="&lt;Group&gt;">
					<g id="&lt;Group&gt;">
						<g id="&lt;Group&gt;">
							<g id="&lt;Group&gt;">
								<g id="&lt;Group&gt;">
									<g id="&lt;Group&gt;">
										<path id="&lt;Path&gt;" class="shp8" d="M77.02 74.54C77.02 76.77 78.83 78.58 81.06 78.58C83.28 78.58 85.09 76.77 85.09 74.54C85.09 72.31 83.28 70.5 81.06 70.5C78.83 70.5 77.02 72.31 77.02 74.54Z" />
									</g>
									<g id="&lt;Group&gt;">
										<path id="&lt;Path&gt;" class="shp9" d="M79.19 74.54C79.19 75.57 80.03 76.4 81.06 76.4C82.09 76.4 82.92 75.57 82.92 74.54C82.92 73.51 82.09 72.68 81.06 72.68C80.03 72.68 79.19 73.51 79.19 74.54Z" />
									</g>
									<g id="&lt;Group&gt;">
										<path id="&lt;Path&gt;" class="shp10" d="M77.73 73.43C77.73 74.24 78.39 74.89 79.19 74.89C80 74.89 80.66 74.24 80.66 73.43C80.66 72.62 80 71.97 79.19 71.97C78.39 71.97 77.73 72.62 77.73 73.43Z" />
									</g>
									<g id="&lt;Group&gt;">
										<path id="&lt;Path&gt;" class="shp10" d="M80.7 72.43C80.7 72.92 81.09 73.31 81.58 73.31C82.05 73.31 82.45 72.92 82.45 72.43C82.45 71.95 82.05 71.55 81.58 71.55C81.09 71.55 80.7 71.95 80.7 72.43Z" />
									</g>
								</g>
								<path id="&lt;Path&gt;" class="shp5" d="M89.9 60.12C75.97 57.82 68.39 60.03 67.16 66.73C70.86 65.14 75.36 64.43 80.64 64.61L90.69 65.14C91.39 62.85 91.13 61.17 89.9 60.12Z" />
							</g>
						</g>
					</g>
				</g>
			</g>
			<g id="&lt;Group&gt;">
				<g id="&lt;Group&gt;">
					<g id="&lt;Group&gt;">
						<path id="&lt;Path&gt;" class="shp10" d="M110.85 109.25C97.84 110.02 93.4 109.25 84.84 109.44C92.29 119.78 100.96 119.72 110.85 109.25Z" />
						<path id="&lt;Compound Path&gt;" fill-rule="evenodd" class="shp7" d="M110.99 109.39C109.71 111.67 107.99 113.75 105.77 115.38C103.59 117.04 100.83 118.19 97.87 118.35C94.91 118.51 91.98 117.54 89.63 116.01C88.44 115.25 87.36 114.38 86.41 113.38C85.45 112.38 84.69 111.31 83.96 110.07L82.73 108.01L84.82 108.34C87.01 108.7 89.18 108.93 91.36 108.82C93.52 108.75 95.73 108.2 97.86 107.94C100 107.69 102.1 107.9 104.3 107.99C106.47 108.14 108.65 108.39 110.85 109.06L111.13 109.15L110.99 109.39ZM109.46 109.88C107.77 110.4 106.1 110.77 104.41 111.03C103.33 111.2 102.25 111.3 101.15 111.32C100.05 111.37 98.94 111.32 97.84 111.2C95.63 110.96 93.51 110.23 91.33 110.09C90.01 109.98 88.7 110.04 87.38 110.18C87.75 110.46 88.13 110.73 88.5 110.99C89.46 111.65 90.44 112.27 91.46 112.76C92.48 113.25 93.53 113.62 94.58 113.84C95.63 114.07 96.68 114.2 97.74 114.17C99.87 114.21 102.04 113.64 104.21 112.72C105.3 112.27 106.36 111.68 107.45 111.09C108.12 110.71 108.78 110.29 109.46 109.88ZM87.38 110.18C86.79 109.74 86.22 109.28 85.73 108.8L84.87 110.53C85.7 110.4 86.54 110.27 87.38 110.18Z" />
					</g>
				</g>
				<path id="&lt;Path&gt;" class="shp7" d="M93.91 119.42C96.53 120.2 99.16 120.21 101.78 119.44C99.04 122.71 96.42 122.71 93.91 119.42Z" />
			</g>
		</g>
		<g id="&lt;Group&gt;">
			<path id="&lt;Path&gt;" class="shp11" d="M64.35 206.62L75.59 240L82.61 240L82.61 148.37L49.28 160.22L74.26 197.49L64.35 206.62Z" />
		</g>
		<g id="&lt;Group&gt;">
			<path id="&lt;Path&gt;" class="shp11" d="M118.82 240L130.22 206.16L120.3 197.04L145.29 159.77L111.95 147.92L111.95 240L118.82 240Z" />
		</g>
		<path id="&lt;Path&gt;" class="shp12" d="M97.88 152.12L109.97 142.86L124.25 152.78L110.07 170.82L97.88 152.12Z" />
		<path id="&lt;Path&gt;" class="shp12" d="M97.68 152.12L85.58 142.86L71.31 152.78L85.48 170.82L97.68 152.12Z" />
	</g>
</svg>