<?xml version="1.0" standalone="no"?>
<!DOCTYPE svg PUBLIC "-//W3C//DTD SVG 20010904//EN"
 "http://www.w3.org/TR/2001/REC-SVG-20010904/DTD/svg10.dtd">
<svg version="1.0" xmlns="http://www.w3.org/2000/svg"
 width="719.000000pt" height="719.000000pt" viewBox="0 0 719.000000 719.000000"
 preserveAspectRatio="xMidYMid meet">
<metadata>
Created by potrace 1.14, written by Peter Selinger 2001-2017
</metadata>
<g transform="translate(0.000000,719.000000) scale(0.100000,-0.100000)"
fill="#000000" stroke="none">
<path d="M154 5700 c-73 -15 -129 -75 -142 -153 -4 -23 -7 -909 -6 -1968 1
-2029 -1 -1961 43 -2013 9 -10 34 -30 56 -44 l40 -26 3450 1 c3290 0 3452 0
3485 18 49 24 88 69 99 113 16 60 15 3805 -1 3796 -10 -6 -11 -4 0 7 14 15 16
87 3 140 -9 41 -52 94 -96 117 -28 15 -315 17 -3465 17 -1889 0 -3449 -2
-3466 -5z"/>
</g>
</svg>
