<svg version="1.2" baseProfile="tiny-ps" xmlns="http://www.w3.org/2000/svg" viewBox="0 0 216 223" width="216" height="223">
	<title>icon</title>
	<style>
		tspan { white-space:pre }
		.shp0 { fill: #006478 } 
		.shp1 { fill: #006e82 } 
		.shp2 { fill: #00788c } 
		.shp3 { fill: #008296 } 
		.shp4 { fill: #ffc800 } 
		.shp5 { fill: #ffdc00 } 
		.shp6 { fill: #e6e6e6 } 
		.shp7 { fill: #f0f0f0 } 
	</style>
	<g id="&lt;Group&gt;">
		<g id="&lt;Group&gt;">
			<g id="&lt;Group&gt;">
				<path id="&lt;Path&gt;" class="shp0" d="M207.34 202.66C207.34 211.35 200.3 218.39 191.62 218.39L63.47 218.39C54.79 218.39 47.75 211.35 47.75 202.66L47.75 112.32C47.75 103.64 54.79 96.6 63.47 96.6L191.62 96.6C200.3 96.6 207.34 103.64 207.34 112.32L207.34 202.66Z" />
			</g>
			<g id="&lt;Group&gt;">
				<path id="&lt;Path&gt;" class="shp1" d="M207.34 197.85C207.34 206.53 200.3 213.57 191.62 213.57L63.47 213.57C54.79 213.57 47.75 206.53 47.75 197.85L47.75 107.51C47.75 98.83 54.79 91.79 63.47 91.79L191.62 91.79C200.3 91.79 207.34 98.83 207.34 107.51L207.34 197.85Z" />
			</g>
			<g id="&lt;Group&gt;">
				<path id="&lt;Path&gt;" class="shp2" d="M207.34 138.88C207.34 147.57 200.3 154.61 191.62 154.61L63.47 154.61C54.79 154.61 47.75 147.57 47.75 138.88L47.75 107.51C47.75 98.83 54.79 91.79 63.47 91.79L191.62 91.79C200.3 91.79 207.34 98.83 207.34 107.51L207.34 138.88Z" />
			</g>
			<g id="&lt;Group&gt;">
				<path id="&lt;Path&gt;" class="shp2" d="M191.62 213.58C200.3 213.58 207.34 206.53 207.34 197.85L207.34 107.51C207.34 98.83 200.3 91.79 191.62 91.79L127.55 91.79L127.55 213.58L191.62 213.58Z" />
			</g>
			<g id="&lt;Group&gt;">
				<path id="&lt;Path&gt;" class="shp0" d="M191.62 154.61L63.47 154.61C54.79 154.61 47.75 147.57 47.75 138.88L47.75 143.34C47.75 152.02 54.79 159.06 63.47 159.06L191.62 159.06C200.3 159.06 207.34 152.02 207.34 143.34L207.34 138.88C207.34 147.57 200.3 154.61 191.62 154.61Z" />
			</g>
			<g id="&lt;Group&gt;">
				<path id="&lt;Path&gt;" class="shp3" d="M191.62 154.61C200.3 154.61 207.34 147.57 207.34 138.88L207.34 107.51C207.34 98.83 200.3 91.79 191.62 91.79L127.55 91.79L127.55 154.61L191.62 154.61Z" />
			</g>
			<g id="&lt;Group&gt;">
				<path id="&lt;Path&gt;" class="shp4" d="M140.72 165.09L114.38 165.09L114.38 146.75L140.72 146.75L140.72 165.09Z" />
			</g>
			<g id="&lt;Group&gt;">
				<path id="&lt;Path&gt;" class="shp5" d="M140.72 165.09L127.68 165.09L127.68 146.75L140.72 146.75L140.72 165.09Z" />
			</g>
			<g id="&lt;Group&gt;">
				<path id="&lt;Path&gt;" class="shp1" d="M106.23 91.79C106.67 86.12 111.42 81.64 117.2 81.64L137.9 81.64C143.68 81.64 148.42 86.12 148.87 91.79L158.3 91.79C157.84 80.92 148.88 72.2 137.9 72.2L117.2 72.2C106.21 72.2 97.25 80.92 96.8 91.79L106.23 91.79Z" />
			</g>
		</g>
		<g id="&lt;Group&gt;">
			<g id="&lt;Group&gt;">
				<path id="&lt;Path&gt;" class="shp6" d="M66.13 35.81L35.38 35.81C35.38 30.64 40.03 26.44 45.76 26.44L55.74 26.44C61.47 26.44 66.13 30.64 66.13 35.81Z" />
			</g>
			<g id="&lt;Group&gt;">
				<path id="&lt;Path&gt;" class="shp7" d="M53.75 31.57L53.75 31.5C52.75 31.5 51.75 31.51 50.75 31.52C49.75 31.51 48.75 31.5 47.75 31.5L47.75 31.57C28.21 32.17 10.79 37.35 34.44 80.06L47.75 80.06L53.75 80.06L67.06 80.06C90.71 37.35 73.29 32.17 53.75 31.57Z" />
			</g>
			<g id="&lt;Group&gt;">
				<path id="&lt;Path&gt;" class="shp7" d="M53.75 80.06L67.06 80.06C90.71 37.35 73.29 32.17 53.75 31.57L53.75 31.52L50.75 31.52L50.75 80.06L53.75 80.06Z" />
			</g>
			<g id="&lt;Group&gt;">
				<path id="&lt;Path&gt;" class="shp6" d="M70.25 84.19L53.75 84.19L47.75 84.19L31.25 84.19C43.81 97.5 39.22 148.13 24.69 183L38 192.94L47.75 192.94L53.75 192.94L63.5 192.94L76.81 183C62.28 148.13 57.69 97.5 70.25 84.19Z" />
			</g>
			<g id="&lt;Group&gt;">
				<path id="&lt;Path&gt;" class="shp6" d="M93.5 218.39L8 218.39L8 217.98C8 214.67 10.69 211.98 14 211.98L87.5 211.98C90.81 211.98 93.5 214.67 93.5 217.98L93.5 218.39Z" />
			</g>
			<g id="&lt;Group&gt;">
				<path id="&lt;Path&gt;" class="shp7" d="M86.75 213L14.75 213L14.75 211.13C14.75 199.53 24.15 190.13 35.75 190.13L65.75 190.13C77.35 190.13 86.75 199.53 86.75 211.13L86.75 213Z" />
			</g>
			<g id="&lt;Group&gt;">
				<path id="&lt;Path&gt;" class="shp7" d="M80.56 81.19C80.56 82.84 79.21 84.19 77.56 84.19L23.94 84.19C22.29 84.19 20.94 82.84 20.94 81.19L20.94 80.06C20.94 78.41 22.29 77.06 23.94 77.06L77.56 77.06C79.21 77.06 80.56 78.41 80.56 80.06L80.56 81.19Z" />
			</g>
			<g id="&lt;Group&gt;">
				<path id="&lt;Path&gt;" class="shp6" d="M50.75 28.88C49.09 28.88 47.75 27.53 47.75 25.87L47.75 3C47.75 1.34 49.09 0 50.75 0C52.41 0 53.75 1.34 53.75 3L53.75 25.87C53.75 27.53 52.41 28.88 50.75 28.88Z" />
			</g>
			<g id="&lt;Group&gt;">
				<path id="&lt;Path&gt;" class="shp6" d="M58.25 14.44L43.25 14.44C41.59 14.44 40.25 13.1 40.25 11.44C40.25 9.78 41.59 8.44 43.25 8.44L58.25 8.44C59.91 8.44 61.25 9.78 61.25 11.44C61.25 13.1 59.91 14.44 58.25 14.44Z" />
			</g>
			<g id="&lt;Group&gt;">
				<path id="&lt;Path&gt;" class="shp7" d="M53.75 192.94L63.5 192.94L76.81 183C62.28 148.13 57.69 97.5 70.25 84.19L53.75 84.19L50.75 84.19L50.75 192.94L53.75 192.94Z" />
			</g>
			<g id="&lt;Group&gt;">
				<path id="&lt;Path&gt;" class="shp7" d="M65.75 190.13L50.75 190.13L50.75 213L86.75 213L86.75 211.13C86.75 199.53 77.35 190.13 65.75 190.13Z" />
			</g>
		</g>
	</g>
</svg>