<svg version="1.2" baseProfile="tiny-ps" xmlns="http://www.w3.org/2000/svg" viewBox="0 0 216 183" width="216" height="183">
	<title>icon</title>
	<style>
		tspan { white-space:pre }
		.shp0 { fill: #ebebeb } 
		.shp1 { fill: #f5f5f5 } 
		.shp2 { fill: #48525e } 
		.shp3 { fill: #ffd7af } 
		.shp4 { fill: #f0f0f0 } 
		.shp5 { fill: #f5cda5 } 
		.shp6 { fill: #fed9ae } 
		.shp7 { fill: #ffe1b9 } 
		.shp8 { fill: #8b5e3c } 
		.shp9 { fill: #ffc800 } 
		.shp10 { fill: #ffdc00 } 
		.shp11 { fill: #ff6400 } 
	</style>
	<g id="&lt;Group&gt;">
		<g id="&lt;Group&gt;">
			<path id="&lt;Path&gt;" class="shp0" d="M212.26 116.66L88.39 116.66L88.39 3.73L212.26 3.73L212.26 116.66Z" />
		</g>
		<g id="&lt;Group&gt;">
			<path id="&lt;Path&gt;" class="shp1" d="M212.26 116.66L150.33 116.66L150.33 3.73L212.26 3.73L212.26 116.66Z" />
		</g>
		<g id="&lt;Group&gt;">
			<g id="&lt;Group&gt;">
				<g id="&lt;Group&gt;">
					<path id="&lt;Path&gt;" class="shp2" d="M0 183.04L8.66 149.97C9.44 147 11.32 144.45 13.92 142.84L40.67 126.22L43.06 148.64L61.6 183.04L0 183.04Z" />
				</g>
				<g id="&lt;Group&gt;">
					<path id="&lt;Path&gt;" class="shp2" d="M134.71 183.04L126.05 149.97C125.28 147 123.39 144.45 120.79 142.84L94.04 126.22L91.65 148.64L73.11 183.04L134.71 183.04Z" />
				</g>
				<g id="&lt;Group&gt;">
					<path id="&lt;Path&gt;" class="shp3" d="M36.22 90.5C32.79 94.15 30.24 91.61 28.58 82.91C25.91 68.95 26 61.38 30.79 59.79C32.83 59.11 34.14 59.64 34.73 61.38L36.22 90.5Z" />
				</g>
				<g id="&lt;Group&gt;">
					<path id="&lt;Path&gt;" class="shp4" d="M93.97 125.67L93.97 141.92C93.97 146.32 92.74 150.62 90.46 154.37L74.75 180.2L74.75 180.23L73.02 183.06L66.93 183.06L66.93 121.99L67.18 121.94L67.2 121.94L87.57 117.35L91.01 119.84C92.85 121.19 93.97 123.35 93.97 125.67Z" />
				</g>
				<g id="&lt;Group&gt;">
					<path id="&lt;Path&gt;" class="shp4" d="M67.36 121.97L67.36 183.06L61.27 183.06L59.81 180.64L43.84 154.4C41.54 150.65 40.36 146.35 40.36 141.94L40.36 125.67C40.36 123.35 41.44 121.19 43.29 119.84L46.73 117.35L67.2 121.94L67.36 121.97Z" />
				</g>
				<g id="&lt;Group&gt;">
					<path id="&lt;Path&gt;" class="shp3" d="M46.73 110.16L46.73 120.04C46.73 123.63 48.34 127.03 51.13 129.3L59.73 136.33C64.12 139.91 70.42 139.93 74.82 136.37L83.56 129.3C86.37 127.03 88.01 123.61 88.01 120L88.01 109.22L46.73 110.16Z" />
				</g>
				<g id="&lt;Group&gt;">
					<path id="&lt;Path&gt;" class="shp5" d="M46.73 117.42C52.28 123.57 59.23 126.92 66.95 126.92C75.04 126.92 82.31 123.27 87.99 116.53L87.99 109.22L46.73 110.16L46.73 117.42Z" />
				</g>
				<g id="&lt;Group&gt;">
					<path id="&lt;Path&gt;" class="shp6" d="M66.95 121.99C85.79 121.99 100.24 102.26 100.24 69.56C100.24 28.78 88.28 19.33 66.95 19.33C45.61 19.33 33.64 28.78 33.64 69.56C33.64 102.26 48.1 121.99 66.95 121.99Z" />
				</g>
				<g id="&lt;Group&gt;">
					<path id="&lt;Path&gt;" class="shp3" d="M98.13 90.5C101.57 94.15 104.12 91.61 105.79 82.91C108.45 68.95 108.36 61.38 103.57 59.79C101.53 59.11 100.22 59.64 99.63 61.38L98.13 90.5Z" />
				</g>
				<g id="&lt;Group&gt;">
					<path id="&lt;Path&gt;" class="shp7" d="M67.36 19.33L67.36 121.97C85.99 121.68 100.24 102.01 100.24 69.56C100.24 29.05 88.43 19.45 67.36 19.33Z" />
				</g>
				<g id="&lt;Group&gt;">
					<path id="&lt;Path&gt;" class="shp2" d="M74.75 180.2L74.75 180.23L73.02 183.06L61.27 183.06L59.81 180.64L63.32 160.15L71.3 160.15L74.75 180.2Z" />
				</g>
				<g id="&lt;Group&gt;">
					<path id="&lt;Path&gt;" class="shp2" d="M67.36 162.98L73.39 159.04C75.26 157.81 76.03 155.45 75.24 153.35L72.46 145.95C71.75 144.09 69.97 142.86 67.98 142.86L67.36 142.86L66.74 142.86C64.75 142.86 62.97 144.09 62.26 145.95L59.48 153.35C58.68 155.45 59.46 157.81 61.33 159.04L67.36 162.98Z" />
				</g>
			</g>
			<g id="&lt;Group&gt;">
				<path id="&lt;Path&gt;" class="shp8" d="M95.72 25.04C99.39 27.13 102.36 34.31 104.19 39.88C105.59 44.14 105.86 48.63 104.99 53.04L99.51 80.97C98.52 74.08 97.86 67.82 97.54 62.17C96.2 38.42 88.97 36.3 81.26 36.3C78.63 36.3 74 37.28 67.37 39.24L67.28 39.24C60.65 37.28 56.02 36.3 53.39 36.3C45.68 36.3 38.41 38.42 37.07 62.17C36.75 67.82 36.11 74.08 35.14 80.97L29.69 53.19C28.81 48.73 29.11 44.09 30.57 39.78C32.44 34.29 35.4 27.27 38.93 25.04C57.85 15.07 75.17 13.69 95.72 25.04Z" />
			</g>
		</g>
		<g id="&lt;Group&gt;">
			<g id="&lt;Group&gt;">
				<path id="&lt;Path&gt;" class="shp9" d="M127.14 102.22L112.61 102.22L112.61 72.79L127.14 72.79L127.14 102.22Z" />
			</g>
			<g id="&lt;Group&gt;">
				<path id="&lt;Path&gt;" class="shp10" d="M127.14 102.22L119.88 102.22L119.88 72.79L127.14 72.79L127.14 102.22Z" />
			</g>
			<g id="&lt;Group&gt;">
				<path id="&lt;Path&gt;" class="shp9" d="M147.31 102.22L132.79 102.22L132.79 67.06L147.31 67.06L147.31 102.22Z" />
			</g>
			<g id="&lt;Group&gt;">
				<path id="&lt;Path&gt;" class="shp9" d="M167.48 102.22L152.96 102.22L152.96 55.34L167.48 55.34L167.48 102.22Z" />
			</g>
			<g id="&lt;Group&gt;">
				<path id="&lt;Path&gt;" class="shp9" d="M187.65 102.22L173.13 102.22L173.13 40.85L187.65 40.85L187.65 102.22Z" />
			</g>
			<g id="&lt;Group&gt;">
				<path id="&lt;Path&gt;" class="shp10" d="M147.31 102.22L139.68 102.22L139.68 67.06L147.31 67.06L147.31 102.22Z" />
			</g>
			<g id="&lt;Group&gt;">
				<path id="&lt;Path&gt;" class="shp10" d="M167.48 102.22L159.25 102.22L159.25 55.34L167.48 55.34L167.48 102.22Z" />
			</g>
			<g id="&lt;Group&gt;">
				<path id="&lt;Path&gt;" class="shp10" d="M187.65 102.22L180.39 102.22L180.39 40.85L187.65 40.85L187.65 102.22Z" />
			</g>
			<g id="&lt;Group&gt;">
				<path id="&lt;Path&gt;" class="shp2" d="M193.77 103.24L106.88 103.24L106.88 101.2L193.77 101.2L193.77 103.24Z" />
			</g>
			<g id="&lt;Group&gt;">
				<path id="&lt;Path&gt;" class="shp11" d="M173.98 36.3L173.13 17.15L160.32 31.41L166.34 30.3C158.18 41.88 139.89 54.44 112.61 54.44L112.61 58.01C141.95 58.01 161.51 44.01 169.88 31.44L173.98 36.3Z" />
			</g>
		</g>
		<g id="&lt;Group&gt;">
			<path id="&lt;Path&gt;" class="shp2" d="M215.29 4.75C215.29 6.24 214.07 7.46 212.59 7.46L88.07 7.46C86.58 7.46 85.37 6.24 85.37 4.75L85.37 2.7C85.37 1.22 86.58 0 88.07 0L177.15 0C178.63 0 181.06 0 182.55 0L212.59 0C214.07 0 215.29 1.22 215.29 2.7L215.29 4.75Z" />
		</g>
	</g>
</svg>