<svg version="1.2" baseProfile="tiny-ps" xmlns="http://www.w3.org/2000/svg" viewBox="0 0 216 223" width="216" height="223">
	<title>icon</title>
	<style>
		tspan { white-space:pre }
		.shp0 { fill: #dcdcdc } 
		.shp1 { fill: #ffdc00 } 
		.shp2 { fill: #ffc800 } 
		.shp3 { fill: #48525e } 
		.shp4 { fill: #ffd200 } 
		.shp5 { fill: #ffe600 } 
		.shp6 { fill: #ffb400 } 
		.shp7 { fill: #525c68 } 
		.shp8 { fill: #ff6400 } 
	</style>
	<g id="&lt;Group&gt;">
		<g id="&lt;Group&gt;">
			<g id="&lt;Group&gt;">
				<path id="&lt;Path&gt;" class="shp0" d="M141.57 223L70.79 223L70.79 163.56L141.57 163.56L141.57 223Z" />
			</g>
			<g id="&lt;Group&gt;">
				<path id="&lt;Path&gt;" class="shp0" d="M212.36 223L141.57 223L141.57 189.88L212.36 189.88L212.36 223Z" />
			</g>
			<g id="&lt;Group&gt;">
				<path id="&lt;Path&gt;" class="shp0" d="M70.79 223L0 223L0 206.44L70.79 206.44L70.79 223Z" />
			</g>
		</g>
		<g id="&lt;Group&gt;">
			<g id="&lt;Group&gt;">
				<path id="&lt;Path&gt;" class="shp1" d="M118.08 103.68C118.08 107.39 115.07 110.4 111.36 110.4L101.94 110.4C98.23 110.4 95.22 107.39 95.22 103.68L118.08 103.68Z" />
			</g>
			<g id="&lt;Group&gt;">
				<g id="&lt;Group&gt;">
					<path id="&lt;Path&gt;" class="shp2" d="M111.73 142.91C109.71 142.91 108.19 142.91 106.68 142.91C105.16 142.91 103.65 142.91 101.63 142.91C102.08 140.32 102.41 137.98 102.67 135.8C102.91 133.61 103.07 131.58 103.19 129.6C103.31 127.62 103.38 125.68 103.41 123.7C103.43 121.72 103.41 119.69 103.34 117.5C103.26 115.32 103.13 112.98 102.92 110.39C104.41 110.39 105.54 110.39 106.68 110.39C107.81 110.39 108.93 110.39 110.44 110.39C110.22 112.98 110.09 115.32 110.02 117.5C109.94 119.69 109.92 121.72 109.95 123.7C109.98 125.69 110.05 127.61 110.17 129.6C110.29 131.58 110.46 133.61 110.71 135.8C110.95 137.98 111.27 140.32 111.73 142.91Z" />
				</g>
			</g>
			<g id="&lt;Group&gt;">
				<path id="&lt;Path&gt;" class="shp1" d="M118.08 147.02L95.24 147.02C95.24 144.74 97.08 142.9 99.35 142.9L113.96 142.9C116.23 142.9 118.08 144.74 118.08 147.02Z" />
			</g>
			<g id="&lt;Group&gt;">
				<path id="&lt;Path&gt;" class="shp2" d="M126.62 151.14L86.68 151.14C86.68 148.86 88.52 147.02 90.8 147.02L122.5 147.02C124.78 147.02 126.62 148.86 126.62 151.14Z" />
			</g>
			<g id="&lt;Group&gt;">
				<path id="&lt;Path&gt;" class="shp3" d="M130.83 163.56L82.47 163.56L82.47 151.14L130.83 151.14L130.83 163.56Z" />
			</g>
			<g id="&lt;Group&gt;">
				<path id="&lt;Path&gt;" class="shp1" d="M74.17 68.56L72.64 67.68C57.65 59.08 48.1 47.81 46.37 36.8C45.46 30.9 46.9 25.52 50.43 21.67C55.38 16.25 63.24 18.19 67.02 20.67C69.85 22.52 72.17 25.09 73.89 27.47L73.89 37.6L73.04 35.74C72.98 35.61 69.63 28.38 64.27 24.86C62.32 23.57 57.05 21.85 54.12 25.05C51.65 27.76 50.65 31.67 51.33 36.04C52.77 45.25 60.96 54.88 73.89 62.61C73.92 64.68 74.02 66.66 74.17 68.56Z" />
			</g>
			<g id="&lt;Group&gt;">
				<path id="&lt;Path&gt;" class="shp2" d="M106.68 13.52C118.31 13.52 133.53 15.3 139.44 18.7C139.44 20.72 139.44 23.64 139.44 27.47L139.44 37.6C139.44 44.09 139.44 52.15 139.44 61.69C139.44 61.98 139.44 62.3 139.43 62.61C139.42 64.68 139.32 66.66 139.15 68.56C136.78 96.26 119.96 106.1 106.68 106.1L106.64 106.1C93.37 106.1 76.55 96.26 74.17 68.56C74.02 66.66 73.92 64.68 73.89 62.61C73.89 62.3 73.89 61.98 73.89 61.69C73.89 52.15 73.89 44.09 73.89 37.6L73.89 27.47C73.89 23.64 73.89 20.72 73.89 18.7C79.8 15.3 95.01 13.52 106.64 13.52L106.68 13.52Z" />
			</g>
			<g id="&lt;Group&gt;">
				<path id="&lt;Path&gt;" class="shp2" d="M139.15 68.56L140.69 67.68C155.67 59.08 165.24 47.81 166.95 36.8C167.87 30.9 166.44 25.52 162.9 21.67C157.95 16.25 150.09 18.19 146.31 20.67C143.48 22.52 141.16 25.09 139.44 27.47L139.44 37.6L140.29 35.74C140.34 35.61 143.7 28.38 149.06 24.86C151.01 23.57 156.28 21.85 159.2 25.05C161.68 27.76 162.68 31.67 161.99 36.04C160.56 45.25 152.36 54.88 139.43 62.61C139.42 64.68 139.32 66.66 139.15 68.56Z" />
			</g>
			<g id="&lt;Group&gt;">
				<path id="&lt;Path&gt;" class="shp4" d="M118.11 50.46C118.11 56.79 112.98 61.92 106.64 61.92C100.32 61.92 95.19 56.79 95.19 50.46C95.19 44.13 100.32 39 106.64 39C112.98 39 118.11 44.13 118.11 50.46Z" />
			</g>
			<g id="&lt;Group&gt;">
				<path id="&lt;Path&gt;" class="shp1" d="M139.15 68.56C139.32 66.66 139.42 64.68 139.43 62.61C139.44 62.3 139.44 61.98 139.44 61.69C139.44 52.15 139.44 44.09 139.44 37.6L139.44 27.47C139.44 23.64 139.44 20.72 139.44 18.7C133.53 15.3 118.31 13.52 106.68 13.52L106.68 106.1C119.96 106.1 136.78 96.26 139.15 68.56Z" />
			</g>
			<g id="&lt;Group&gt;">
				<path id="&lt;Path&gt;" class="shp5" d="M118.11 50.46C118.11 44.13 112.98 39 106.64 39L106.64 61.92C112.98 61.92 118.11 56.79 118.11 50.46Z" />
			</g>
			<g id="&lt;Group&gt;">
				<path id="&lt;Path&gt;" class="shp6" d="M102.92 110.39C103.05 111.85 103.13 113.22 103.2 114.54L109.94 121.28C109.95 120.06 109.97 118.81 110.02 117.5C110.09 115.32 110.22 112.98 110.44 110.39C108.93 110.39 107.81 110.39 106.68 110.39C105.54 110.39 104.41 110.39 102.92 110.39Z" />
			</g>
			<g id="&lt;Group&gt;">
				<path id="&lt;Path&gt;" class="shp7" d="M130.83 163.56L106.64 163.56L106.64 151.14L130.83 151.14L130.83 163.56Z" />
			</g>
		</g>
		<g id="&lt;Group&gt;">
			<path id="&lt;Compound Path&gt;" class="shp8" d="M107.3 177.64L110.7 177.64L110.7 209.39L106.17 209.39L106.17 184.44L102.76 184.44L102.76 181.04C104.64 180.37 106.42 179.36 107.3 177.64Z" />
		</g>
	</g>
</svg>